%TF.GenerationSoftware,KiCad,Pcbnew,9.0.2*%
%TF.CreationDate,2025-07-08T16:12:12-07:00*%
%TF.ProjectId,PCB,5043422e-6b69-4636-9164-5f7063625858,rev?*%
%TF.SameCoordinates,Original*%
%TF.FileFunction,Copper,L2,Bot*%
%TF.FilePolarity,Positive*%
%FSLAX46Y46*%
G04 Gerber Fmt 4.6, Leading zero omitted, Abs format (unit mm)*
G04 Created by KiCad (PCBNEW 9.0.2) date 2025-07-08 16:12:12*
%MOMM*%
%LPD*%
G01*
G04 APERTURE LIST*
%TA.AperFunction,ComponentPad*%
%ADD10C,1.600000*%
%TD*%
%TA.AperFunction,ComponentPad*%
%ADD11C,1.950000*%
%TD*%
%TA.AperFunction,ComponentPad*%
%ADD12R,1.950000X1.950000*%
%TD*%
%TA.AperFunction,ComponentPad*%
%ADD13R,1.700000X1.700000*%
%TD*%
%TA.AperFunction,ComponentPad*%
%ADD14C,1.700000*%
%TD*%
%TA.AperFunction,ComponentPad*%
%ADD15C,1.400000*%
%TD*%
%TA.AperFunction,ComponentPad*%
%ADD16R,1.130000X1.130000*%
%TD*%
%TA.AperFunction,ComponentPad*%
%ADD17C,1.130000*%
%TD*%
%TA.AperFunction,ComponentPad*%
%ADD18R,1.650000X1.650000*%
%TD*%
%TA.AperFunction,ComponentPad*%
%ADD19C,1.650000*%
%TD*%
%TA.AperFunction,ComponentPad*%
%ADD20C,2.000000*%
%TD*%
%TA.AperFunction,ViaPad*%
%ADD21C,3.000000*%
%TD*%
%TA.AperFunction,Conductor*%
%ADD22C,0.250000*%
%TD*%
G04 APERTURE END LIST*
D10*
%TO.P,R6,1*%
%TO.N,3V3*%
X123705000Y-59785000D03*
%TO.P,R6,2*%
%TO.N,Net-(R6-Pad2)*%
X123705000Y-67405000D03*
%TD*%
D11*
%TO.P,SW4,1,1*%
%TO.N,3V3*%
X175895000Y-117760000D03*
%TO.P,SW4,2,2*%
%TO.N,/B2*%
X175895000Y-122760000D03*
%TD*%
D10*
%TO.P,R12,1*%
%TO.N,Net-(U2-LOUT)*%
X161925000Y-110490000D03*
%TO.P,R12,2*%
%TO.N,Net-(C12-Pad1)*%
X161925000Y-118110000D03*
%TD*%
D11*
%TO.P,SW2,A,A*%
%TO.N,Net-(R8-Pad2)*%
X115570000Y-112395000D03*
%TO.P,SW2,B,B*%
%TO.N,Net-(R10-Pad1)*%
X115570000Y-117395000D03*
%TO.P,SW2,C,C*%
%TO.N,GND*%
X115570000Y-122395000D03*
D12*
%TO.P,SW2,S1,S1*%
%TO.N,3V3*%
X115570000Y-102395000D03*
D11*
%TO.P,SW2,S2,S2*%
%TO.N,/Encoder2SW*%
X115570000Y-107395000D03*
%TD*%
D10*
%TO.P,C2,1*%
%TO.N,Net-(C1-Pad1)*%
X142280000Y-103505000D03*
%TO.P,C2,2*%
%TO.N,Net-(C2-Pad2)*%
X144780000Y-103505000D03*
%TD*%
%TO.P,C12,1*%
%TO.N,Net-(C12-Pad1)*%
X156845000Y-112435000D03*
%TO.P,C12,2*%
%TO.N,Net-(U3-+)*%
X156845000Y-114935000D03*
%TD*%
D13*
%TO.P,U1,1,GP0*%
%TO.N,/Encoder1B*%
X131000000Y-47960000D03*
D14*
%TO.P,U1,2,GP1*%
%TO.N,/Encoder1SW*%
X131000000Y-50500000D03*
%TO.P,U1,3,GND*%
%TO.N,GND*%
X131000000Y-53040000D03*
%TO.P,U1,4,GP2*%
%TO.N,/Encoder1A*%
X131000000Y-55580000D03*
%TO.P,U1,5,GP3*%
%TO.N,/Display sda*%
X131000000Y-58120000D03*
%TO.P,U1,6,GP4*%
%TO.N,/Display DC*%
X131000000Y-60660000D03*
%TO.P,U1,7,GP5*%
%TO.N,/Display CS*%
X131000000Y-63200000D03*
%TO.P,U1,8,GND*%
%TO.N,GND*%
X131000000Y-65740000D03*
%TO.P,U1,9,GP6*%
%TO.N,/Display sck*%
X131000000Y-68280000D03*
%TO.P,U1,10,GP7*%
%TO.N,/Display res*%
X131000000Y-70820000D03*
%TO.P,U1,11,GP8*%
%TO.N,unconnected-(U1-GP8-Pad11)*%
X131000000Y-73360000D03*
%TO.P,U1,12,GP9*%
%TO.N,unconnected-(U1-GP9-Pad12)*%
X131000000Y-75900000D03*
%TO.P,U1,13,GND*%
%TO.N,GND*%
X131000000Y-78440000D03*
%TO.P,U1,14,GP10*%
%TO.N,/Encoder2B*%
X131000000Y-80980000D03*
%TO.P,U1,15,GP11*%
%TO.N,/Encoder2SW*%
X131000000Y-83520000D03*
%TO.P,U1,16,GP12*%
%TO.N,/Encoder2A*%
X131000000Y-86060000D03*
%TO.P,U1,17,GP13*%
%TO.N,/B1*%
X131000000Y-88600000D03*
%TO.P,U1,18,GND*%
%TO.N,GND*%
X131000000Y-91140000D03*
%TO.P,U1,19,GP14*%
%TO.N,/B2*%
X131000000Y-93680000D03*
%TO.P,U1,20,GP15*%
%TO.N,/B3*%
X131000000Y-96220000D03*
%TO.P,U1,21,GP16*%
%TO.N,unconnected-(U1-GP16-Pad21)*%
X148780000Y-96220000D03*
%TO.P,U1,22,GP17*%
%TO.N,unconnected-(U1-GP17-Pad22)*%
X148780000Y-93680000D03*
%TO.P,U1,23,GND*%
%TO.N,GND*%
X148780000Y-91140000D03*
%TO.P,U1,24,GP18*%
%TO.N,unconnected-(U1-GP18-Pad24)*%
X148780000Y-88600000D03*
%TO.P,U1,25,GP19*%
%TO.N,unconnected-(U1-GP19-Pad25)*%
X148780000Y-86060000D03*
%TO.P,U1,26,GP20*%
%TO.N,/Radio sclk*%
X148780000Y-83520000D03*
%TO.P,U1,27,GP21*%
%TO.N,/Radio sdio*%
X148780000Y-80980000D03*
%TO.P,U1,28,GND*%
%TO.N,GND*%
X148780000Y-78440000D03*
%TO.P,U1,29,GP22*%
%TO.N,unconnected-(U1-GP22-Pad29)*%
X148780000Y-75900000D03*
%TO.P,U1,30,RUN*%
%TO.N,unconnected-(U1-RUN-Pad30)*%
X148780000Y-73360000D03*
%TO.P,U1,31,GP26/ADC0*%
%TO.N,unconnected-(U1-GP26{slash}ADC0-Pad31)*%
X148780000Y-70820000D03*
%TO.P,U1,32,GP27/ADC1*%
%TO.N,unconnected-(U1-GP27{slash}ADC1-Pad32)*%
X148780000Y-68280000D03*
%TO.P,U1,33,GND*%
%TO.N,GND*%
X148780000Y-65740000D03*
%TO.P,U1,34,GP28/ADC2*%
%TO.N,unconnected-(U1-GP28{slash}ADC2-Pad34)*%
X148780000Y-63200000D03*
%TO.P,U1,35,ADC_VREF*%
%TO.N,unconnected-(U1-ADC_VREF-Pad35)*%
X148780000Y-60660000D03*
%TO.P,U1,36,3V3*%
%TO.N,3V3*%
X148780000Y-58120000D03*
%TO.P,U1,37,3V3_EN*%
%TO.N,unconnected-(U1-3V3_EN-Pad37)*%
X148780000Y-55580000D03*
%TO.P,U1,38,GND*%
%TO.N,GND*%
X148780000Y-53040000D03*
%TO.P,U1,39,VSYS*%
%TO.N,5V*%
X148780000Y-50500000D03*
%TO.P,U1,40,VBUS*%
%TO.N,unconnected-(U1-VBUS-Pad40)*%
X148780000Y-47960000D03*
%TD*%
D10*
%TO.P,C7,1*%
%TO.N,/Encoder2B*%
X123070000Y-120395000D03*
%TO.P,C7,2*%
%TO.N,GND*%
X123070000Y-125395000D03*
%TD*%
%TO.P,R8,1*%
%TO.N,3V3*%
X118880000Y-97395000D03*
%TO.P,R8,2*%
%TO.N,Net-(R8-Pad2)*%
X111260000Y-97395000D03*
%TD*%
%TO.P,R7,1*%
%TO.N,Net-(R6-Pad2)*%
X123705000Y-69975000D03*
%TO.P,R7,2*%
%TO.N,/Encoder1B*%
X123705000Y-77595000D03*
%TD*%
%TO.P,C3,1*%
%TO.N,Net-(U3--)*%
X133255000Y-113030000D03*
%TO.P,C3,2*%
%TO.N,5V*%
X135255000Y-113030000D03*
%TD*%
D13*
%TO.P,U2,1,SDIO*%
%TO.N,/Radio sdio*%
X167005000Y-91440000D03*
D14*
%TO.P,U2,2,SCLK*%
%TO.N,/Radio sclk*%
X164465000Y-91440000D03*
%TO.P,U2,3,N/C*%
%TO.N,unconnected-(U2-N{slash}C-Pad3)*%
X161925000Y-91440000D03*
%TO.P,U2,4,N/C*%
%TO.N,unconnected-(U2-N{slash}C-Pad4)*%
X159385000Y-91440000D03*
%TO.P,U2,5,VDD*%
%TO.N,3V3*%
X156845000Y-91440000D03*
%TO.P,U2,6,GND*%
%TO.N,GND*%
X156845000Y-106680000D03*
%TO.P,U2,7,ROUT*%
%TO.N,unconnected-(U2-ROUT-Pad7)*%
X159385000Y-106680000D03*
%TO.P,U2,8,LOUT*%
%TO.N,Net-(U2-LOUT)*%
X161925000Y-106680000D03*
%TO.P,U2,9,N/C*%
%TO.N,unconnected-(U2-N{slash}C-Pad9)*%
X164465000Y-106680000D03*
%TO.P,U2,10,FMIN*%
%TO.N,/antenna*%
X167005000Y-106680000D03*
%TD*%
D10*
%TO.P,R11,1*%
%TO.N,3V3*%
X123070000Y-99775000D03*
%TO.P,R11,2*%
%TO.N,Net-(R10-Pad1)*%
X123070000Y-107395000D03*
%TD*%
%TO.P,C6,1*%
%TO.N,/Encoder2A*%
X119070000Y-89395000D03*
%TO.P,C6,2*%
%TO.N,GND*%
X114070000Y-89395000D03*
%TD*%
%TO.P,R3,1*%
%TO.N,Net-(C1-Pad2)*%
X148590000Y-114935000D03*
%TO.P,R3,2*%
%TO.N,GND*%
X140970000Y-114935000D03*
%TD*%
%TO.P,R13,1*%
%TO.N,Net-(C12-Pad1)*%
X152400000Y-107950000D03*
%TO.P,R13,2*%
%TO.N,GND*%
X152400000Y-100330000D03*
%TD*%
D11*
%TO.P,LS1,1,1*%
%TO.N,Net-(C2-Pad2)*%
X175895000Y-95290000D03*
%TO.P,LS1,2,2*%
%TO.N,GND*%
X175895000Y-100290000D03*
%TD*%
D15*
%TO.P,BT1,1,+*%
%TO.N,Net-(BT1-+)*%
X155891250Y-58647500D03*
%TO.P,BT1,2,-*%
%TO.N,GND*%
X155891250Y-61187500D03*
%TD*%
D10*
%TO.P,R4,1*%
%TO.N,3V3*%
X119515000Y-55595000D03*
%TO.P,R4,2*%
%TO.N,Net-(R4-Pad2)*%
X111895000Y-55595000D03*
%TD*%
%TO.P,R2,1*%
%TO.N,3V3*%
X152400000Y-91440000D03*
%TO.P,R2,2*%
%TO.N,/Radio sclk*%
X152400000Y-83820000D03*
%TD*%
%TO.P,R10,1*%
%TO.N,Net-(R10-Pad1)*%
X123070000Y-110085000D03*
%TO.P,R10,2*%
%TO.N,/Encoder2B*%
X123070000Y-117705000D03*
%TD*%
D16*
%TO.P,U3,1,GAIN*%
%TO.N,unconnected-(U3-GAIN-Pad1)*%
X130490000Y-99695000D03*
D17*
%TO.P,U3,2,-*%
%TO.N,Net-(U3--)*%
X130490000Y-102235000D03*
%TO.P,U3,3,+*%
%TO.N,Net-(U3-+)*%
X130490000Y-104775000D03*
%TO.P,U3,4,GND*%
%TO.N,GND*%
X130490000Y-107315000D03*
%TO.P,U3,5*%
%TO.N,Net-(C1-Pad1)*%
X138430000Y-107315000D03*
%TO.P,U3,6,V+*%
%TO.N,5V*%
X138430000Y-104775000D03*
%TO.P,U3,7,BYPASS*%
%TO.N,unconnected-(U3-BYPASS-Pad7)*%
X138430000Y-102235000D03*
%TO.P,U3,8,GAIN*%
%TO.N,unconnected-(U3-GAIN-Pad8)*%
X138430000Y-99695000D03*
%TD*%
D11*
%TO.P,SW3,1,1*%
%TO.N,3V3*%
X175895000Y-106760000D03*
%TO.P,SW3,2,2*%
%TO.N,/B1*%
X175895000Y-111760000D03*
%TD*%
D18*
%TO.P,DISP1,1,VSS/GND*%
%TO.N,GND*%
X165100000Y-123190000D03*
D19*
%TO.P,DISP1,2,VDD*%
%TO.N,3V3*%
X161290000Y-123190000D03*
%TO.P,DISP1,3,SCLK*%
%TO.N,/Display sck*%
X157480000Y-123190000D03*
%TO.P,DISP1,4,SDA*%
%TO.N,/Display sda*%
X153670000Y-123190000D03*
%TO.P,DISP1,5,RES*%
%TO.N,/Display res*%
X149860000Y-123190000D03*
%TO.P,DISP1,6,DC*%
%TO.N,/Display DC*%
X146050000Y-123190000D03*
%TO.P,DISP1,7,CS*%
%TO.N,/Display CS*%
X142240000Y-123190000D03*
%TD*%
D11*
%TO.P,SW1,A,A*%
%TO.N,Net-(R4-Pad2)*%
X116205000Y-71595000D03*
%TO.P,SW1,B,B*%
%TO.N,Net-(R6-Pad2)*%
X116205000Y-76595000D03*
%TO.P,SW1,C,C*%
%TO.N,GND*%
X116205000Y-81595000D03*
D12*
%TO.P,SW1,S1,S1*%
%TO.N,3V3*%
X116205000Y-61595000D03*
D11*
%TO.P,SW1,S2,S2*%
%TO.N,/Encoder1SW*%
X116205000Y-66595000D03*
%TD*%
D20*
%TO.P,SW5,1,1*%
%TO.N,3V3*%
X137235000Y-125440000D03*
X130735000Y-125440000D03*
%TO.P,SW5,2,2*%
%TO.N,/B3*%
X137235000Y-120940000D03*
X130735000Y-120940000D03*
%TD*%
D10*
%TO.P,C5,1*%
%TO.N,/Encoder1B*%
X123705000Y-80095000D03*
%TO.P,C5,2*%
%TO.N,GND*%
X123705000Y-85095000D03*
%TD*%
%TO.P,C1,1*%
%TO.N,Net-(C1-Pad1)*%
X141685000Y-111125000D03*
%TO.P,C1,2*%
%TO.N,Net-(C1-Pad2)*%
X146685000Y-111125000D03*
%TD*%
D14*
%TO.P,,*%
%TO.N,/antenna*%
X167005000Y-110490000D03*
%TD*%
D10*
%TO.P,R9,1*%
%TO.N,Net-(R8-Pad2)*%
X111260000Y-92895000D03*
%TO.P,R9,2*%
%TO.N,/Encoder2A*%
X118880000Y-92895000D03*
%TD*%
%TO.P,R1,1*%
%TO.N,3V3*%
X152400000Y-73025000D03*
%TO.P,R1,2*%
%TO.N,/Radio sdio*%
X152400000Y-80645000D03*
%TD*%
%TO.P,R5,1*%
%TO.N,Net-(R4-Pad2)*%
X111705000Y-52095000D03*
%TO.P,R5,2*%
%TO.N,/Encoder1A*%
X119325000Y-52095000D03*
%TD*%
%TO.P,C4,1*%
%TO.N,/Encoder1A*%
X119205000Y-48595000D03*
%TO.P,C4,2*%
%TO.N,GND*%
X114205000Y-48595000D03*
%TD*%
D21*
%TO.N,GND*%
X108585000Y-127635000D03*
X166370000Y-46990000D03*
X108585000Y-46990000D03*
X179705000Y-127635000D03*
%TD*%
D22*
%TO.N,/Encoder1B*%
X131000000Y-47960000D02*
X122555000Y-56405000D01*
X122555000Y-56405000D02*
X122555000Y-76445000D01*
X122555000Y-76445000D02*
X123705000Y-77595000D01*
%TO.N,/Encoder2B*%
X132715000Y-82695000D02*
X132715000Y-97155000D01*
X128905000Y-109855000D02*
X123070000Y-115690000D01*
X123070000Y-115690000D02*
X123070000Y-117705000D01*
X128905000Y-99060000D02*
X128905000Y-109855000D01*
X132080000Y-97790000D02*
X130175000Y-97790000D01*
X130175000Y-97790000D02*
X128905000Y-99060000D01*
X132715000Y-97155000D02*
X132080000Y-97790000D01*
X131000000Y-80980000D02*
X132715000Y-82695000D01*
%TO.N,/Encoder1SW*%
X131747000Y-46355000D02*
X132176000Y-46784000D01*
X116205000Y-66595000D02*
X122104000Y-60696000D01*
X122104000Y-60696000D02*
X122104000Y-56218190D01*
X122104000Y-56218190D02*
X129824000Y-48498190D01*
X129824000Y-46706000D02*
X130175000Y-46355000D01*
X132176000Y-49324000D02*
X131000000Y-50500000D01*
X129824000Y-48498190D02*
X129824000Y-46706000D01*
X132176000Y-46784000D02*
X132176000Y-49324000D01*
X130175000Y-46355000D02*
X131747000Y-46355000D01*
%TO.N,/Encoder2SW*%
X121285000Y-101680000D02*
X115570000Y-107395000D01*
X131000000Y-83520000D02*
X121285000Y-93235000D01*
X121285000Y-93235000D02*
X121285000Y-101680000D01*
%TO.N,/Display sck*%
X142424000Y-125279000D02*
X147133190Y-125279000D01*
X154038000Y-105786430D02*
X154038000Y-118931810D01*
X147133190Y-125279000D02*
X148590000Y-123822190D01*
X150495000Y-121920000D02*
X153035000Y-124460000D01*
X153035000Y-124460000D02*
X156210000Y-124460000D01*
X140970000Y-123825000D02*
X142424000Y-125279000D01*
X148590000Y-123822190D02*
X148590000Y-122555000D01*
X156210000Y-124460000D02*
X157480000Y-123190000D01*
X137611000Y-74754430D02*
X137611000Y-89359430D01*
X140970000Y-122555000D02*
X140970000Y-123825000D01*
X148590000Y-122555000D02*
X149225000Y-121920000D01*
X131000000Y-68280000D02*
X131136570Y-68280000D01*
X143064620Y-120460380D02*
X140970000Y-122555000D01*
X149225000Y-121920000D02*
X150495000Y-121920000D01*
X131136570Y-68280000D02*
X137611000Y-74754430D01*
X137611000Y-89359430D02*
X154038000Y-105786430D01*
X152509430Y-120460380D02*
X143064620Y-120460380D01*
X154038000Y-118931810D02*
X152509430Y-120460380D01*
%TO.N,/Display sda*%
X138964000Y-88799000D02*
X138964000Y-74194000D01*
X138964000Y-74194000D02*
X133078000Y-68308000D01*
X133078000Y-60198000D02*
X131000000Y-58120000D01*
X155391000Y-105226000D02*
X138964000Y-88799000D01*
X153670000Y-121216050D02*
X155391000Y-119495050D01*
X153670000Y-123190000D02*
X153670000Y-121216050D01*
X133078000Y-68308000D02*
X133078000Y-60198000D01*
X155391000Y-119495050D02*
X155391000Y-105226000D01*
%TO.N,/Display DC*%
X154940000Y-119308240D02*
X154940000Y-105412810D01*
X154940000Y-105412810D02*
X138513000Y-88985810D01*
X138513000Y-88985810D02*
X138513000Y-74380808D01*
X138513000Y-74380808D02*
X132627000Y-68494808D01*
X153598240Y-120650000D02*
X154940000Y-119308240D01*
X147877620Y-121362380D02*
X152883050Y-121362380D01*
X132627000Y-68494808D02*
X132627000Y-62287000D01*
X146050000Y-123190000D02*
X147877620Y-121362380D01*
X132627000Y-62287000D02*
X131000000Y-60660000D01*
X153595430Y-120650000D02*
X153598240Y-120650000D01*
X152883050Y-121362380D02*
X153595430Y-120650000D01*
%TO.N,/Display res*%
X142237190Y-125730000D02*
X140519000Y-124011810D01*
X142877810Y-120009380D02*
X152322620Y-120009380D01*
X147320000Y-125730000D02*
X142237190Y-125730000D01*
X149860000Y-123190000D02*
X147320000Y-125730000D01*
X140519000Y-122368190D02*
X142877810Y-120009380D01*
X137160000Y-89546240D02*
X137160000Y-74941238D01*
X153587000Y-105973240D02*
X137160000Y-89546240D01*
X152322620Y-120009380D02*
X153587000Y-118745000D01*
X137160000Y-74941238D02*
X133038762Y-70820000D01*
X153587000Y-118745000D02*
X153587000Y-105973240D01*
X133038762Y-70820000D02*
X131000000Y-70820000D01*
X140519000Y-124011810D02*
X140519000Y-122368190D01*
%TO.N,/Display CS*%
X142240000Y-123190000D02*
X142240000Y-121922810D01*
X138062000Y-74567620D02*
X132176000Y-68681620D01*
X138062000Y-89172620D02*
X138062000Y-74567620D01*
X132176000Y-68681620D02*
X132176000Y-64376000D01*
X154489000Y-119118620D02*
X154489000Y-105599620D01*
X154489000Y-105599620D02*
X138062000Y-89172620D01*
X142240000Y-121922810D02*
X143251430Y-120911380D01*
X143251430Y-120911380D02*
X152696240Y-120911380D01*
X132176000Y-64376000D02*
X131000000Y-63200000D01*
X152696240Y-120911380D02*
X154489000Y-119118620D01*
%TD*%
%TA.AperFunction,Conductor*%
%TO.N,GND*%
G36*
X167735470Y-44470185D02*
G01*
X167756112Y-44486819D01*
X168873181Y-45603888D01*
X168906666Y-45665211D01*
X168909500Y-45691569D01*
X168909500Y-87153543D01*
X168909500Y-87153957D01*
X171926043Y-90170500D01*
X179653431Y-90170500D01*
X179720470Y-90190185D01*
X179741112Y-90206819D01*
X182208181Y-92673888D01*
X182241666Y-92735211D01*
X182244500Y-92761569D01*
X182244500Y-128933431D01*
X182224815Y-129000470D01*
X182208181Y-129021112D01*
X181091112Y-130138181D01*
X181029789Y-130171666D01*
X181003431Y-130174500D01*
X107286569Y-130174500D01*
X107219530Y-130154815D01*
X107198888Y-130138181D01*
X106081819Y-129021112D01*
X106048334Y-128959789D01*
X106045500Y-128933431D01*
X106045500Y-125321902D01*
X129234500Y-125321902D01*
X129234500Y-125558097D01*
X129271446Y-125791368D01*
X129344433Y-126015996D01*
X129401876Y-126128733D01*
X129451657Y-126226433D01*
X129590483Y-126417510D01*
X129757490Y-126584517D01*
X129948567Y-126723343D01*
X130047991Y-126774002D01*
X130159003Y-126830566D01*
X130159005Y-126830566D01*
X130159008Y-126830568D01*
X130279412Y-126869689D01*
X130383631Y-126903553D01*
X130616903Y-126940500D01*
X130616908Y-126940500D01*
X130853097Y-126940500D01*
X131086368Y-126903553D01*
X131310992Y-126830568D01*
X131521433Y-126723343D01*
X131712510Y-126584517D01*
X131879517Y-126417510D01*
X132018343Y-126226433D01*
X132125568Y-126015992D01*
X132198553Y-125791368D01*
X132235500Y-125558097D01*
X132235500Y-125321902D01*
X135734500Y-125321902D01*
X135734500Y-125558097D01*
X135771446Y-125791368D01*
X135844433Y-126015996D01*
X135901876Y-126128733D01*
X135951657Y-126226433D01*
X136090483Y-126417510D01*
X136257490Y-126584517D01*
X136448567Y-126723343D01*
X136547991Y-126774002D01*
X136659003Y-126830566D01*
X136659005Y-126830566D01*
X136659008Y-126830568D01*
X136779412Y-126869689D01*
X136883631Y-126903553D01*
X137116903Y-126940500D01*
X137116908Y-126940500D01*
X137353097Y-126940500D01*
X137586368Y-126903553D01*
X137810992Y-126830568D01*
X138021433Y-126723343D01*
X138212510Y-126584517D01*
X138379517Y-126417510D01*
X138518343Y-126226433D01*
X138625568Y-126015992D01*
X138698553Y-125791368D01*
X138735500Y-125558097D01*
X138735500Y-125321902D01*
X138698553Y-125088631D01*
X138663284Y-124980085D01*
X138625568Y-124864008D01*
X138625566Y-124864005D01*
X138625566Y-124864003D01*
X138518342Y-124653566D01*
X138516235Y-124650666D01*
X138379517Y-124462490D01*
X138212510Y-124295483D01*
X138021433Y-124156657D01*
X137964013Y-124127400D01*
X137810996Y-124049433D01*
X137586368Y-123976446D01*
X137353097Y-123939500D01*
X137353092Y-123939500D01*
X137116908Y-123939500D01*
X137116903Y-123939500D01*
X136883631Y-123976446D01*
X136659003Y-124049433D01*
X136448566Y-124156657D01*
X136360111Y-124220924D01*
X136257490Y-124295483D01*
X136257488Y-124295485D01*
X136257487Y-124295485D01*
X136090485Y-124462487D01*
X136090485Y-124462488D01*
X136090483Y-124462490D01*
X136071914Y-124488048D01*
X135951657Y-124653566D01*
X135844433Y-124864003D01*
X135771446Y-125088631D01*
X135734500Y-125321902D01*
X132235500Y-125321902D01*
X132198553Y-125088631D01*
X132163284Y-124980085D01*
X132125568Y-124864008D01*
X132125566Y-124864005D01*
X132125566Y-124864003D01*
X132018342Y-124653566D01*
X132016235Y-124650666D01*
X131879517Y-124462490D01*
X131712510Y-124295483D01*
X131521433Y-124156657D01*
X131464013Y-124127400D01*
X131310996Y-124049433D01*
X131086368Y-123976446D01*
X130853097Y-123939500D01*
X130853092Y-123939500D01*
X130616908Y-123939500D01*
X130616903Y-123939500D01*
X130383631Y-123976446D01*
X130159003Y-124049433D01*
X129948566Y-124156657D01*
X129860111Y-124220924D01*
X129757490Y-124295483D01*
X129757488Y-124295485D01*
X129757487Y-124295485D01*
X129590485Y-124462487D01*
X129590485Y-124462488D01*
X129590483Y-124462490D01*
X129571914Y-124488048D01*
X129451657Y-124653566D01*
X129344433Y-124864003D01*
X129271446Y-125088631D01*
X129234500Y-125321902D01*
X106045500Y-125321902D01*
X106045500Y-117278870D01*
X114094500Y-117278870D01*
X114094500Y-117511129D01*
X114130831Y-117740514D01*
X114202601Y-117961400D01*
X114276032Y-118105514D01*
X114308039Y-118168331D01*
X114444551Y-118356224D01*
X114608776Y-118520449D01*
X114796669Y-118656961D01*
X114875183Y-118696966D01*
X115003599Y-118762398D01*
X115003601Y-118762398D01*
X115003604Y-118762400D01*
X115224486Y-118834169D01*
X115342668Y-118852886D01*
X115453871Y-118870500D01*
X115453876Y-118870500D01*
X115686129Y-118870500D01*
X115787502Y-118854443D01*
X115915514Y-118834169D01*
X116136396Y-118762400D01*
X116343331Y-118656961D01*
X116531224Y-118520449D01*
X116695449Y-118356224D01*
X116831961Y-118168331D01*
X116937400Y-117961396D01*
X117009169Y-117740514D01*
X117031004Y-117602648D01*
X117045500Y-117511129D01*
X117045500Y-117278870D01*
X117026232Y-117157222D01*
X117009169Y-117049486D01*
X116937400Y-116828604D01*
X116937398Y-116828601D01*
X116937398Y-116828599D01*
X116878511Y-116713028D01*
X116831961Y-116621669D01*
X116695449Y-116433776D01*
X116531224Y-116269551D01*
X116343331Y-116133039D01*
X116293705Y-116107753D01*
X116136400Y-116027601D01*
X115915514Y-115955831D01*
X115686129Y-115919500D01*
X115686124Y-115919500D01*
X115453876Y-115919500D01*
X115453871Y-115919500D01*
X115224485Y-115955831D01*
X115003599Y-116027601D01*
X114796668Y-116133039D01*
X114608773Y-116269553D01*
X114444553Y-116433773D01*
X114308039Y-116621668D01*
X114202601Y-116828599D01*
X114130831Y-117049485D01*
X114094500Y-117278870D01*
X106045500Y-117278870D01*
X106045500Y-112278870D01*
X114094500Y-112278870D01*
X114094500Y-112511129D01*
X114130831Y-112740514D01*
X114202601Y-112961400D01*
X114289706Y-113132351D01*
X114308039Y-113168331D01*
X114444551Y-113356224D01*
X114608776Y-113520449D01*
X114796669Y-113656961D01*
X114894436Y-113706776D01*
X115003599Y-113762398D01*
X115003601Y-113762398D01*
X115003604Y-113762400D01*
X115224486Y-113834169D01*
X115342668Y-113852886D01*
X115453871Y-113870500D01*
X115453876Y-113870500D01*
X115686129Y-113870500D01*
X115787502Y-113854443D01*
X115915514Y-113834169D01*
X116136396Y-113762400D01*
X116343331Y-113656961D01*
X116531224Y-113520449D01*
X116695449Y-113356224D01*
X116831961Y-113168331D01*
X116937400Y-112961396D01*
X117009169Y-112740514D01*
X117029443Y-112612502D01*
X117045500Y-112511129D01*
X117045500Y-112278870D01*
X117022180Y-112131635D01*
X117009169Y-112049486D01*
X116937400Y-111828604D01*
X116937398Y-111828601D01*
X116937398Y-111828599D01*
X116869436Y-111695218D01*
X116831961Y-111621669D01*
X116695449Y-111433776D01*
X116531224Y-111269551D01*
X116343331Y-111133039D01*
X116136400Y-111027601D01*
X115915514Y-110955831D01*
X115686129Y-110919500D01*
X115686124Y-110919500D01*
X115453876Y-110919500D01*
X115453871Y-110919500D01*
X115224485Y-110955831D01*
X115003599Y-111027601D01*
X114796668Y-111133039D01*
X114608773Y-111269553D01*
X114444553Y-111433773D01*
X114308039Y-111621668D01*
X114202601Y-111828599D01*
X114130831Y-112049485D01*
X114094500Y-112278870D01*
X106045500Y-112278870D01*
X106045500Y-107278870D01*
X114094500Y-107278870D01*
X114094500Y-107511129D01*
X114130831Y-107740514D01*
X114202601Y-107961400D01*
X114308039Y-108168331D01*
X114444551Y-108356224D01*
X114608776Y-108520449D01*
X114796669Y-108656961D01*
X114852264Y-108685288D01*
X115003599Y-108762398D01*
X115003601Y-108762398D01*
X115003604Y-108762400D01*
X115224486Y-108834169D01*
X115342668Y-108852886D01*
X115453871Y-108870500D01*
X115453876Y-108870500D01*
X115686129Y-108870500D01*
X115787502Y-108854443D01*
X115915514Y-108834169D01*
X116136396Y-108762400D01*
X116343331Y-108656961D01*
X116531224Y-108520449D01*
X116695449Y-108356224D01*
X116831961Y-108168331D01*
X116937400Y-107961396D01*
X117009169Y-107740514D01*
X117041983Y-107533331D01*
X117045500Y-107511129D01*
X117045500Y-107292648D01*
X121769500Y-107292648D01*
X121769500Y-107497351D01*
X121801522Y-107699534D01*
X121864781Y-107894223D01*
X121899008Y-107961396D01*
X121945352Y-108052351D01*
X121957715Y-108076613D01*
X122078028Y-108242213D01*
X122222786Y-108386971D01*
X122377749Y-108499556D01*
X122388390Y-108507287D01*
X122504607Y-108566503D01*
X122570776Y-108600218D01*
X122570778Y-108600218D01*
X122570781Y-108600220D01*
X122638026Y-108622069D01*
X122695701Y-108661507D01*
X122722899Y-108725866D01*
X122710984Y-108794712D01*
X122663740Y-108846188D01*
X122638027Y-108857930D01*
X122620038Y-108863775D01*
X122570776Y-108879781D01*
X122388386Y-108972715D01*
X122222786Y-109093028D01*
X122078028Y-109237786D01*
X121957715Y-109403386D01*
X121864781Y-109585776D01*
X121801522Y-109780465D01*
X121769500Y-109982648D01*
X121769500Y-110187351D01*
X121801522Y-110389534D01*
X121864781Y-110584223D01*
X121957715Y-110766613D01*
X122078028Y-110932213D01*
X122222786Y-111076971D01*
X122353048Y-111171610D01*
X122388390Y-111197287D01*
X122504607Y-111256503D01*
X122570776Y-111290218D01*
X122570778Y-111290218D01*
X122570781Y-111290220D01*
X122658089Y-111318588D01*
X122765465Y-111353477D01*
X122866557Y-111369488D01*
X122967648Y-111385500D01*
X122967649Y-111385500D01*
X123172351Y-111385500D01*
X123172352Y-111385500D01*
X123374534Y-111353477D01*
X123569219Y-111290220D01*
X123751610Y-111197287D01*
X123844590Y-111129732D01*
X123917213Y-111076971D01*
X123917215Y-111076968D01*
X123917219Y-111076966D01*
X124061966Y-110932219D01*
X124061968Y-110932215D01*
X124061971Y-110932213D01*
X124114732Y-110859590D01*
X124182287Y-110766610D01*
X124275220Y-110584219D01*
X124338477Y-110389534D01*
X124370500Y-110187352D01*
X124370500Y-109982648D01*
X124360040Y-109916607D01*
X124338477Y-109780465D01*
X124293740Y-109642781D01*
X124275220Y-109585781D01*
X124275218Y-109585778D01*
X124275218Y-109585776D01*
X124241503Y-109519607D01*
X124182287Y-109403390D01*
X124132564Y-109334951D01*
X124061971Y-109237786D01*
X123917213Y-109093028D01*
X123751613Y-108972715D01*
X123751612Y-108972714D01*
X123751610Y-108972713D01*
X123569219Y-108879780D01*
X123501973Y-108857930D01*
X123444298Y-108818493D01*
X123417100Y-108754135D01*
X123429015Y-108685288D01*
X123476259Y-108633813D01*
X123501972Y-108622069D01*
X123569219Y-108600220D01*
X123751610Y-108507287D01*
X123844590Y-108439732D01*
X123917213Y-108386971D01*
X123917215Y-108386968D01*
X123917219Y-108386966D01*
X124061966Y-108242219D01*
X124061968Y-108242215D01*
X124061971Y-108242213D01*
X124115648Y-108168331D01*
X124182287Y-108076610D01*
X124275220Y-107894219D01*
X124338477Y-107699534D01*
X124370500Y-107497352D01*
X124370500Y-107292648D01*
X124346584Y-107141650D01*
X124338477Y-107090465D01*
X124275218Y-106895776D01*
X124231664Y-106810298D01*
X124182287Y-106713390D01*
X124174556Y-106702749D01*
X124061971Y-106547786D01*
X123917213Y-106403028D01*
X123751613Y-106282715D01*
X123751612Y-106282714D01*
X123751610Y-106282713D01*
X123686426Y-106249500D01*
X123569223Y-106189781D01*
X123374534Y-106126522D01*
X123199995Y-106098878D01*
X123172352Y-106094500D01*
X122967648Y-106094500D01*
X122943329Y-106098351D01*
X122765465Y-106126522D01*
X122570776Y-106189781D01*
X122388386Y-106282715D01*
X122222786Y-106403028D01*
X122078028Y-106547786D01*
X121957715Y-106713386D01*
X121864781Y-106895776D01*
X121801522Y-107090465D01*
X121769500Y-107292648D01*
X117045500Y-107292648D01*
X117045500Y-107278870D01*
X117009169Y-107049485D01*
X116981379Y-106963959D01*
X116979384Y-106894118D01*
X117011627Y-106837961D01*
X121770858Y-102078733D01*
X121839312Y-101976285D01*
X121886463Y-101862451D01*
X121910501Y-101741606D01*
X121910501Y-101618393D01*
X121910501Y-101613283D01*
X121910500Y-101613257D01*
X121910500Y-100754047D01*
X121930185Y-100687008D01*
X121982989Y-100641253D01*
X122052147Y-100631309D01*
X122115703Y-100660334D01*
X122122181Y-100666366D01*
X122222786Y-100766971D01*
X122377749Y-100879556D01*
X122388390Y-100887287D01*
X122464190Y-100925909D01*
X122570776Y-100980218D01*
X122570778Y-100980218D01*
X122570781Y-100980220D01*
X122675137Y-101014127D01*
X122765465Y-101043477D01*
X122866557Y-101059488D01*
X122967648Y-101075500D01*
X122967649Y-101075500D01*
X123172351Y-101075500D01*
X123172352Y-101075500D01*
X123374534Y-101043477D01*
X123569219Y-100980220D01*
X123751610Y-100887287D01*
X123844590Y-100819732D01*
X123917213Y-100766971D01*
X123917215Y-100766968D01*
X123917219Y-100766966D01*
X124061966Y-100622219D01*
X124061968Y-100622215D01*
X124061971Y-100622213D01*
X124114732Y-100549590D01*
X124182287Y-100456610D01*
X124275220Y-100274219D01*
X124338477Y-100079534D01*
X124370500Y-99877352D01*
X124370500Y-99672648D01*
X124338477Y-99470466D01*
X124275220Y-99275781D01*
X124275218Y-99275778D01*
X124275218Y-99275776D01*
X124231664Y-99190298D01*
X124182287Y-99093390D01*
X124174101Y-99082123D01*
X124061971Y-98927786D01*
X123917213Y-98783028D01*
X123751613Y-98662715D01*
X123751612Y-98662714D01*
X123751610Y-98662713D01*
X123655635Y-98613811D01*
X123569223Y-98569781D01*
X123374534Y-98506522D01*
X123199995Y-98478878D01*
X123172352Y-98474500D01*
X122967648Y-98474500D01*
X122943329Y-98478351D01*
X122765465Y-98506522D01*
X122570776Y-98569781D01*
X122388386Y-98662715D01*
X122222786Y-98783028D01*
X122222782Y-98783032D01*
X122122181Y-98883634D01*
X122060858Y-98917119D01*
X121991166Y-98912135D01*
X121935233Y-98870263D01*
X121910816Y-98804799D01*
X121910500Y-98795953D01*
X121910500Y-93545451D01*
X121930185Y-93478412D01*
X121946814Y-93457775D01*
X129437819Y-85966769D01*
X129499142Y-85933285D01*
X129568834Y-85938269D01*
X129624767Y-85980141D01*
X129649184Y-86045605D01*
X129649500Y-86054451D01*
X129649500Y-86166286D01*
X129682753Y-86376239D01*
X129748444Y-86578414D01*
X129844951Y-86767820D01*
X129969890Y-86939786D01*
X130120213Y-87090109D01*
X130292182Y-87215050D01*
X130300946Y-87219516D01*
X130351742Y-87267491D01*
X130368536Y-87335312D01*
X130345998Y-87401447D01*
X130300946Y-87440484D01*
X130292182Y-87444949D01*
X130120213Y-87569890D01*
X129969890Y-87720213D01*
X129844951Y-87892179D01*
X129748444Y-88081585D01*
X129682753Y-88283760D01*
X129663863Y-88403028D01*
X129649500Y-88493713D01*
X129649500Y-88706287D01*
X129682754Y-88916243D01*
X129739362Y-89090465D01*
X129748444Y-89118414D01*
X129844951Y-89307820D01*
X129969890Y-89479786D01*
X130120213Y-89630109D01*
X130292179Y-89755048D01*
X130292181Y-89755049D01*
X130292184Y-89755051D01*
X130481588Y-89851557D01*
X130683757Y-89917246D01*
X130893713Y-89950500D01*
X130893714Y-89950500D01*
X131106286Y-89950500D01*
X131106287Y-89950500D01*
X131316243Y-89917246D01*
X131518412Y-89851557D01*
X131707816Y-89755051D01*
X131858673Y-89645448D01*
X131879786Y-89630109D01*
X131883488Y-89626947D01*
X131884673Y-89628334D01*
X131939142Y-89598592D01*
X132008834Y-89603576D01*
X132064767Y-89645448D01*
X132089184Y-89710912D01*
X132089500Y-89719758D01*
X132089500Y-92560242D01*
X132069815Y-92627281D01*
X132017011Y-92673036D01*
X131947853Y-92682980D01*
X131884297Y-92653955D01*
X131881554Y-92651401D01*
X131879786Y-92649890D01*
X131707820Y-92524951D01*
X131518414Y-92428444D01*
X131518413Y-92428443D01*
X131518412Y-92428443D01*
X131316243Y-92362754D01*
X131316241Y-92362753D01*
X131316240Y-92362753D01*
X131154957Y-92337208D01*
X131106287Y-92329500D01*
X130893713Y-92329500D01*
X130845042Y-92337208D01*
X130683760Y-92362753D01*
X130481585Y-92428444D01*
X130292179Y-92524951D01*
X130120213Y-92649890D01*
X129969890Y-92800213D01*
X129844951Y-92972179D01*
X129748444Y-93161585D01*
X129682753Y-93363760D01*
X129664594Y-93478412D01*
X129649500Y-93573713D01*
X129649500Y-93786287D01*
X129682754Y-93996243D01*
X129737441Y-94164553D01*
X129748444Y-94198414D01*
X129844951Y-94387820D01*
X129969890Y-94559786D01*
X130120213Y-94710109D01*
X130292182Y-94835050D01*
X130300946Y-94839516D01*
X130351742Y-94887491D01*
X130368536Y-94955312D01*
X130345998Y-95021447D01*
X130300946Y-95060484D01*
X130292182Y-95064949D01*
X130120213Y-95189890D01*
X129969890Y-95340213D01*
X129844951Y-95512179D01*
X129748444Y-95701585D01*
X129682753Y-95903760D01*
X129657480Y-96063331D01*
X129649500Y-96113713D01*
X129649500Y-96326287D01*
X129682754Y-96536243D01*
X129745439Y-96729168D01*
X129748444Y-96738414D01*
X129844948Y-96927815D01*
X129932243Y-97047967D01*
X129955722Y-97113774D01*
X129939896Y-97181828D01*
X129889790Y-97230522D01*
X129879395Y-97235405D01*
X129878730Y-97235680D01*
X129878707Y-97235692D01*
X129776268Y-97304140D01*
X129742965Y-97337444D01*
X129689142Y-97391267D01*
X128419144Y-98661264D01*
X128419138Y-98661272D01*
X128350690Y-98763708D01*
X128350688Y-98763713D01*
X128319620Y-98838719D01*
X128303538Y-98877543D01*
X128303538Y-98877545D01*
X128303537Y-98877548D01*
X128279500Y-98998394D01*
X128279500Y-98998396D01*
X128279500Y-109544547D01*
X128259815Y-109611586D01*
X128243181Y-109632228D01*
X122584144Y-115291264D01*
X122584138Y-115291272D01*
X122549914Y-115342489D01*
X122549915Y-115342490D01*
X122515691Y-115393708D01*
X122515689Y-115393712D01*
X122515688Y-115393714D01*
X122498911Y-115434219D01*
X122468538Y-115507545D01*
X122468535Y-115507555D01*
X122444500Y-115628389D01*
X122444500Y-116488885D01*
X122424815Y-116555924D01*
X122391428Y-116588606D01*
X122392331Y-116589849D01*
X122222786Y-116713028D01*
X122078028Y-116857786D01*
X121957715Y-117023386D01*
X121864781Y-117205776D01*
X121801522Y-117400465D01*
X121769500Y-117602648D01*
X121769500Y-117807351D01*
X121801522Y-118009534D01*
X121864781Y-118204223D01*
X121957715Y-118386613D01*
X122078028Y-118552213D01*
X122222786Y-118696971D01*
X122353048Y-118791610D01*
X122388390Y-118817287D01*
X122492826Y-118870500D01*
X122570776Y-118910218D01*
X122570778Y-118910218D01*
X122570781Y-118910220D01*
X122638026Y-118932069D01*
X122695701Y-118971507D01*
X122722899Y-119035866D01*
X122710984Y-119104712D01*
X122663740Y-119156188D01*
X122638027Y-119167930D01*
X122620038Y-119173775D01*
X122570776Y-119189781D01*
X122388386Y-119282715D01*
X122222786Y-119403028D01*
X122078028Y-119547786D01*
X121957715Y-119713386D01*
X121864781Y-119895776D01*
X121801522Y-120090465D01*
X121769500Y-120292648D01*
X121769500Y-120497351D01*
X121801522Y-120699534D01*
X121864781Y-120894223D01*
X121957715Y-121076613D01*
X122078028Y-121242213D01*
X122222786Y-121386971D01*
X122322565Y-121459463D01*
X122388390Y-121507287D01*
X122504607Y-121566503D01*
X122570776Y-121600218D01*
X122570778Y-121600218D01*
X122570781Y-121600220D01*
X122675137Y-121634127D01*
X122765465Y-121663477D01*
X122860486Y-121678527D01*
X122967648Y-121695500D01*
X122967649Y-121695500D01*
X123172351Y-121695500D01*
X123172352Y-121695500D01*
X123374534Y-121663477D01*
X123569219Y-121600220D01*
X123751610Y-121507287D01*
X123845846Y-121438821D01*
X123917213Y-121386971D01*
X123917215Y-121386968D01*
X123917219Y-121386966D01*
X124061966Y-121242219D01*
X124061968Y-121242215D01*
X124061971Y-121242213D01*
X124114732Y-121169590D01*
X124182287Y-121076610D01*
X124275220Y-120894219D01*
X124298717Y-120821902D01*
X129234500Y-120821902D01*
X129234500Y-121058097D01*
X129271446Y-121291368D01*
X129344433Y-121515996D01*
X129435896Y-121695500D01*
X129451657Y-121726433D01*
X129590483Y-121917510D01*
X129757490Y-122084517D01*
X129948567Y-122223343D01*
X130017987Y-122258714D01*
X130159003Y-122330566D01*
X130159005Y-122330566D01*
X130159008Y-122330568D01*
X130269210Y-122366375D01*
X130383631Y-122403553D01*
X130616903Y-122440500D01*
X130616908Y-122440500D01*
X130853097Y-122440500D01*
X131086368Y-122403553D01*
X131310992Y-122330568D01*
X131521433Y-122223343D01*
X131712510Y-122084517D01*
X131879517Y-121917510D01*
X132018343Y-121726433D01*
X132125568Y-121515992D01*
X132198553Y-121291368D01*
X132199641Y-121284500D01*
X132235500Y-121058097D01*
X132235500Y-120821902D01*
X135734500Y-120821902D01*
X135734500Y-121058097D01*
X135771446Y-121291368D01*
X135844433Y-121515996D01*
X135935896Y-121695500D01*
X135951657Y-121726433D01*
X136090483Y-121917510D01*
X136257490Y-122084517D01*
X136448567Y-122223343D01*
X136517987Y-122258714D01*
X136659003Y-122330566D01*
X136659005Y-122330566D01*
X136659008Y-122330568D01*
X136769210Y-122366375D01*
X136883631Y-122403553D01*
X137116903Y-122440500D01*
X137116908Y-122440500D01*
X137353097Y-122440500D01*
X137586368Y-122403553D01*
X137810992Y-122330568D01*
X138021433Y-122223343D01*
X138212510Y-122084517D01*
X138379517Y-121917510D01*
X138518343Y-121726433D01*
X138625568Y-121515992D01*
X138698553Y-121291368D01*
X138699641Y-121284500D01*
X138735500Y-121058097D01*
X138735500Y-120821902D01*
X138698553Y-120588631D01*
X138625566Y-120364003D01*
X138518342Y-120153566D01*
X138472497Y-120090466D01*
X138379517Y-119962490D01*
X138212510Y-119795483D01*
X138021433Y-119656657D01*
X137810996Y-119549433D01*
X137586368Y-119476446D01*
X137353097Y-119439500D01*
X137353092Y-119439500D01*
X137116908Y-119439500D01*
X137116903Y-119439500D01*
X136883631Y-119476446D01*
X136659003Y-119549433D01*
X136448566Y-119656657D01*
X136419876Y-119677502D01*
X136257490Y-119795483D01*
X136257488Y-119795485D01*
X136257487Y-119795485D01*
X136090485Y-119962487D01*
X136090485Y-119962488D01*
X136090483Y-119962490D01*
X136030862Y-120044550D01*
X135951657Y-120153566D01*
X135844433Y-120364003D01*
X135771446Y-120588631D01*
X135734500Y-120821902D01*
X132235500Y-120821902D01*
X132198553Y-120588631D01*
X132125566Y-120364003D01*
X132018342Y-120153566D01*
X131972497Y-120090466D01*
X131879517Y-119962490D01*
X131712510Y-119795483D01*
X131521433Y-119656657D01*
X131310996Y-119549433D01*
X131086368Y-119476446D01*
X130853097Y-119439500D01*
X130853092Y-119439500D01*
X130616908Y-119439500D01*
X130616903Y-119439500D01*
X130383631Y-119476446D01*
X130159003Y-119549433D01*
X129948566Y-119656657D01*
X129919876Y-119677502D01*
X129757490Y-119795483D01*
X129757488Y-119795485D01*
X129757487Y-119795485D01*
X129590485Y-119962487D01*
X129590485Y-119962488D01*
X129590483Y-119962490D01*
X129530862Y-120044550D01*
X129451657Y-120153566D01*
X129344433Y-120364003D01*
X129271446Y-120588631D01*
X129234500Y-120821902D01*
X124298717Y-120821902D01*
X124338477Y-120699534D01*
X124370500Y-120497352D01*
X124370500Y-120292648D01*
X124338477Y-120090466D01*
X124275220Y-119895781D01*
X124275218Y-119895778D01*
X124275218Y-119895776D01*
X124241503Y-119829607D01*
X124182287Y-119713390D01*
X124156213Y-119677502D01*
X124061971Y-119547786D01*
X123917213Y-119403028D01*
X123751613Y-119282715D01*
X123751612Y-119282714D01*
X123751610Y-119282713D01*
X123569219Y-119189780D01*
X123501973Y-119167930D01*
X123444298Y-119128493D01*
X123417100Y-119064135D01*
X123429015Y-118995288D01*
X123476259Y-118943813D01*
X123501972Y-118932069D01*
X123569219Y-118910220D01*
X123751610Y-118817287D01*
X123883828Y-118721226D01*
X123917213Y-118696971D01*
X123917215Y-118696968D01*
X123917219Y-118696966D01*
X124061966Y-118552219D01*
X124061968Y-118552215D01*
X124061971Y-118552213D01*
X124161999Y-118414534D01*
X124182287Y-118386610D01*
X124275220Y-118204219D01*
X124338477Y-118009534D01*
X124370500Y-117807352D01*
X124370500Y-117602648D01*
X124340698Y-117414486D01*
X124338477Y-117400465D01*
X124275218Y-117205776D01*
X124241503Y-117139607D01*
X124182287Y-117023390D01*
X124155607Y-116986668D01*
X124061971Y-116857786D01*
X123917213Y-116713028D01*
X123747669Y-116589849D01*
X123748884Y-116588176D01*
X123707831Y-116542792D01*
X123695500Y-116488885D01*
X123695500Y-116000451D01*
X123715185Y-115933412D01*
X123731814Y-115912775D01*
X124811941Y-114832648D01*
X147289500Y-114832648D01*
X147289500Y-115037351D01*
X147321522Y-115239534D01*
X147384781Y-115434223D01*
X147477715Y-115616613D01*
X147598028Y-115782213D01*
X147742786Y-115926971D01*
X147843925Y-116000451D01*
X147908390Y-116047287D01*
X148024607Y-116106503D01*
X148090776Y-116140218D01*
X148090778Y-116140218D01*
X148090781Y-116140220D01*
X148195137Y-116174127D01*
X148285465Y-116203477D01*
X148386557Y-116219488D01*
X148487648Y-116235500D01*
X148487649Y-116235500D01*
X148692351Y-116235500D01*
X148692352Y-116235500D01*
X148894534Y-116203477D01*
X149089219Y-116140220D01*
X149271610Y-116047287D01*
X149364590Y-115979732D01*
X149437213Y-115926971D01*
X149437215Y-115926968D01*
X149437219Y-115926966D01*
X149581966Y-115782219D01*
X149581968Y-115782215D01*
X149581971Y-115782213D01*
X149693725Y-115628394D01*
X149702287Y-115616610D01*
X149795220Y-115434219D01*
X149858477Y-115239534D01*
X149890500Y-115037352D01*
X149890500Y-114832648D01*
X149858477Y-114630466D01*
X149795220Y-114435781D01*
X149795218Y-114435778D01*
X149795218Y-114435776D01*
X149761503Y-114369607D01*
X149702287Y-114253390D01*
X149621567Y-114142287D01*
X149581971Y-114087786D01*
X149437213Y-113943028D01*
X149271613Y-113822715D01*
X149271612Y-113822714D01*
X149271610Y-113822713D01*
X149214653Y-113793691D01*
X149089223Y-113729781D01*
X148894534Y-113666522D01*
X148719995Y-113638878D01*
X148692352Y-113634500D01*
X148487648Y-113634500D01*
X148463329Y-113638351D01*
X148285465Y-113666522D01*
X148090776Y-113729781D01*
X147908386Y-113822715D01*
X147742786Y-113943028D01*
X147598028Y-114087786D01*
X147477715Y-114253386D01*
X147384781Y-114435776D01*
X147321522Y-114630465D01*
X147289500Y-114832648D01*
X124811941Y-114832648D01*
X126716941Y-112927648D01*
X131954500Y-112927648D01*
X131954500Y-113132351D01*
X131986522Y-113334534D01*
X132049781Y-113529223D01*
X132092751Y-113613554D01*
X132126448Y-113679689D01*
X132142715Y-113711613D01*
X132263028Y-113877213D01*
X132407786Y-114021971D01*
X132562749Y-114134556D01*
X132573390Y-114142287D01*
X132689607Y-114201503D01*
X132755776Y-114235218D01*
X132755778Y-114235218D01*
X132755781Y-114235220D01*
X132811703Y-114253390D01*
X132950465Y-114298477D01*
X133051557Y-114314488D01*
X133152648Y-114330500D01*
X133152649Y-114330500D01*
X133357351Y-114330500D01*
X133357352Y-114330500D01*
X133559534Y-114298477D01*
X133754219Y-114235220D01*
X133936610Y-114142287D01*
X134029590Y-114074732D01*
X134102213Y-114021971D01*
X134102215Y-114021968D01*
X134102219Y-114021966D01*
X134167319Y-113956866D01*
X134228642Y-113923381D01*
X134298334Y-113928365D01*
X134342681Y-113956866D01*
X134407786Y-114021971D01*
X134562749Y-114134556D01*
X134573390Y-114142287D01*
X134689607Y-114201503D01*
X134755776Y-114235218D01*
X134755778Y-114235218D01*
X134755781Y-114235220D01*
X134811703Y-114253390D01*
X134950465Y-114298477D01*
X135051557Y-114314488D01*
X135152648Y-114330500D01*
X135152649Y-114330500D01*
X135357351Y-114330500D01*
X135357352Y-114330500D01*
X135559534Y-114298477D01*
X135754219Y-114235220D01*
X135936610Y-114142287D01*
X136029590Y-114074732D01*
X136102213Y-114021971D01*
X136102215Y-114021968D01*
X136102219Y-114021966D01*
X136246966Y-113877219D01*
X136246968Y-113877215D01*
X136246971Y-113877213D01*
X136330386Y-113762400D01*
X136367287Y-113711610D01*
X136460220Y-113529219D01*
X136523477Y-113334534D01*
X136555500Y-113132352D01*
X136555500Y-112927648D01*
X136540841Y-112835095D01*
X136523477Y-112725465D01*
X136462355Y-112537352D01*
X136460220Y-112530781D01*
X136460218Y-112530778D01*
X136460218Y-112530776D01*
X136426503Y-112464607D01*
X136367287Y-112348390D01*
X136354084Y-112330218D01*
X136246971Y-112182786D01*
X136102213Y-112038028D01*
X135936613Y-111917715D01*
X135936612Y-111917714D01*
X135936610Y-111917713D01*
X135854997Y-111876129D01*
X135754223Y-111824781D01*
X135559534Y-111761522D01*
X135384995Y-111733878D01*
X135357352Y-111729500D01*
X135152648Y-111729500D01*
X135128329Y-111733351D01*
X134950465Y-111761522D01*
X134755776Y-111824781D01*
X134573386Y-111917715D01*
X134407786Y-112038028D01*
X134407782Y-112038032D01*
X134342681Y-112103134D01*
X134281358Y-112136619D01*
X134211666Y-112131635D01*
X134167319Y-112103134D01*
X134102213Y-112038028D01*
X133936613Y-111917715D01*
X133936612Y-111917714D01*
X133936610Y-111917713D01*
X133854997Y-111876129D01*
X133754223Y-111824781D01*
X133559534Y-111761522D01*
X133384995Y-111733878D01*
X133357352Y-111729500D01*
X133152648Y-111729500D01*
X133128329Y-111733351D01*
X132950465Y-111761522D01*
X132755776Y-111824781D01*
X132573386Y-111917715D01*
X132407786Y-112038028D01*
X132263028Y-112182786D01*
X132142715Y-112348386D01*
X132049781Y-112530776D01*
X131986522Y-112725465D01*
X131954500Y-112927648D01*
X126716941Y-112927648D01*
X128621941Y-111022648D01*
X140384500Y-111022648D01*
X140384500Y-111227351D01*
X140416522Y-111429534D01*
X140479781Y-111624223D01*
X140533423Y-111729500D01*
X140549739Y-111761522D01*
X140572715Y-111806613D01*
X140693028Y-111972213D01*
X140837786Y-112116971D01*
X140992749Y-112229556D01*
X141003390Y-112237287D01*
X141085013Y-112278876D01*
X141185776Y-112330218D01*
X141185778Y-112330218D01*
X141185781Y-112330220D01*
X141241703Y-112348390D01*
X141380465Y-112393477D01*
X141481557Y-112409488D01*
X141582648Y-112425500D01*
X141582649Y-112425500D01*
X141787351Y-112425500D01*
X141787352Y-112425500D01*
X141989534Y-112393477D01*
X142184219Y-112330220D01*
X142366610Y-112237287D01*
X142513638Y-112130466D01*
X142532213Y-112116971D01*
X142532215Y-112116968D01*
X142532219Y-112116966D01*
X142676966Y-111972219D01*
X142676968Y-111972215D01*
X142676971Y-111972213D01*
X142746779Y-111876129D01*
X142797287Y-111806610D01*
X142890220Y-111624219D01*
X142953477Y-111429534D01*
X142985500Y-111227352D01*
X142985500Y-111022648D01*
X145384500Y-111022648D01*
X145384500Y-111227351D01*
X145416522Y-111429534D01*
X145479781Y-111624223D01*
X145533423Y-111729500D01*
X145549739Y-111761522D01*
X145572715Y-111806613D01*
X145693028Y-111972213D01*
X145837786Y-112116971D01*
X145992749Y-112229556D01*
X146003390Y-112237287D01*
X146085013Y-112278876D01*
X146185776Y-112330218D01*
X146185778Y-112330218D01*
X146185781Y-112330220D01*
X146241703Y-112348390D01*
X146380465Y-112393477D01*
X146481557Y-112409488D01*
X146582648Y-112425500D01*
X146582649Y-112425500D01*
X146787351Y-112425500D01*
X146787352Y-112425500D01*
X146989534Y-112393477D01*
X147184219Y-112330220D01*
X147366610Y-112237287D01*
X147513638Y-112130466D01*
X147532213Y-112116971D01*
X147532215Y-112116968D01*
X147532219Y-112116966D01*
X147676966Y-111972219D01*
X147676968Y-111972215D01*
X147676971Y-111972213D01*
X147746779Y-111876129D01*
X147797287Y-111806610D01*
X147890220Y-111624219D01*
X147953477Y-111429534D01*
X147985500Y-111227352D01*
X147985500Y-111022648D01*
X147953477Y-110820466D01*
X147948854Y-110806239D01*
X147893070Y-110634553D01*
X147890220Y-110625781D01*
X147890218Y-110625778D01*
X147890218Y-110625776D01*
X147825132Y-110498039D01*
X147797287Y-110443390D01*
X147760387Y-110392601D01*
X147676971Y-110277786D01*
X147532213Y-110133028D01*
X147366613Y-110012715D01*
X147366612Y-110012714D01*
X147366610Y-110012713D01*
X147285892Y-109971585D01*
X147184223Y-109919781D01*
X146989534Y-109856522D01*
X146814995Y-109828878D01*
X146787352Y-109824500D01*
X146582648Y-109824500D01*
X146558329Y-109828351D01*
X146380465Y-109856522D01*
X146185776Y-109919781D01*
X146003386Y-110012715D01*
X145837786Y-110133028D01*
X145693028Y-110277786D01*
X145572715Y-110443386D01*
X145479781Y-110625776D01*
X145416522Y-110820465D01*
X145384500Y-111022648D01*
X142985500Y-111022648D01*
X142953477Y-110820466D01*
X142948854Y-110806239D01*
X142893070Y-110634553D01*
X142890220Y-110625781D01*
X142890218Y-110625778D01*
X142890218Y-110625776D01*
X142825132Y-110498039D01*
X142797287Y-110443390D01*
X142760387Y-110392601D01*
X142676971Y-110277786D01*
X142532213Y-110133028D01*
X142366613Y-110012715D01*
X142366612Y-110012714D01*
X142366610Y-110012713D01*
X142285892Y-109971585D01*
X142184223Y-109919781D01*
X141989534Y-109856522D01*
X141814995Y-109828878D01*
X141787352Y-109824500D01*
X141582648Y-109824500D01*
X141558329Y-109828351D01*
X141380465Y-109856522D01*
X141185776Y-109919781D01*
X141003386Y-110012715D01*
X140837786Y-110133028D01*
X140693028Y-110277786D01*
X140572715Y-110443386D01*
X140479781Y-110625776D01*
X140416522Y-110820465D01*
X140384500Y-111022648D01*
X128621941Y-111022648D01*
X129303729Y-110340860D01*
X129303733Y-110340858D01*
X129390858Y-110253733D01*
X129427987Y-110198165D01*
X129459312Y-110151286D01*
X129506463Y-110037451D01*
X129530500Y-109916607D01*
X129530500Y-109793393D01*
X129530500Y-107419945D01*
X137364499Y-107419945D01*
X137405445Y-107625789D01*
X137405447Y-107625795D01*
X137485765Y-107819701D01*
X137602373Y-107994218D01*
X137750781Y-108142626D01*
X137925298Y-108259234D01*
X138022251Y-108299393D01*
X138119205Y-108339553D01*
X138119209Y-108339553D01*
X138119210Y-108339554D01*
X138325054Y-108380500D01*
X138325057Y-108380500D01*
X138534945Y-108380500D01*
X138673433Y-108352952D01*
X138740795Y-108339553D01*
X138934703Y-108259233D01*
X139109216Y-108142628D01*
X139257628Y-107994216D01*
X139374233Y-107819703D01*
X139454553Y-107625795D01*
X139467952Y-107558433D01*
X139495500Y-107419945D01*
X139495500Y-107210054D01*
X139454554Y-107004210D01*
X139454553Y-107004209D01*
X139454553Y-107004205D01*
X139385590Y-106837715D01*
X139374234Y-106810298D01*
X139257626Y-106635781D01*
X139109218Y-106487373D01*
X138934701Y-106370765D01*
X138740795Y-106290447D01*
X138740789Y-106290445D01*
X138534945Y-106249500D01*
X138534943Y-106249500D01*
X138325057Y-106249500D01*
X138325055Y-106249500D01*
X138119210Y-106290445D01*
X138119204Y-106290447D01*
X137925298Y-106370765D01*
X137750781Y-106487373D01*
X137602373Y-106635781D01*
X137485765Y-106810298D01*
X137405447Y-107004204D01*
X137405445Y-107004210D01*
X137364500Y-107210054D01*
X137364500Y-107210057D01*
X137364500Y-107419943D01*
X137364500Y-107419945D01*
X137364499Y-107419945D01*
X129530500Y-107419945D01*
X129530500Y-105621707D01*
X129550185Y-105554668D01*
X129602989Y-105508913D01*
X129672147Y-105498969D01*
X129735703Y-105527994D01*
X129742181Y-105534026D01*
X129810781Y-105602626D01*
X129985298Y-105719234D01*
X130082251Y-105759393D01*
X130179205Y-105799553D01*
X130179209Y-105799553D01*
X130179210Y-105799554D01*
X130385054Y-105840500D01*
X130385057Y-105840500D01*
X130594945Y-105840500D01*
X130733433Y-105812952D01*
X130800795Y-105799553D01*
X130994703Y-105719233D01*
X131169216Y-105602628D01*
X131317628Y-105454216D01*
X131434233Y-105279703D01*
X131514553Y-105085795D01*
X131527952Y-105018433D01*
X131555500Y-104879945D01*
X137364499Y-104879945D01*
X137405445Y-105085789D01*
X137405447Y-105085795D01*
X137485765Y-105279701D01*
X137602373Y-105454218D01*
X137750781Y-105602626D01*
X137925298Y-105719234D01*
X138022251Y-105759393D01*
X138119205Y-105799553D01*
X138119209Y-105799553D01*
X138119210Y-105799554D01*
X138325054Y-105840500D01*
X138325057Y-105840500D01*
X138534945Y-105840500D01*
X138673433Y-105812952D01*
X138740795Y-105799553D01*
X138934703Y-105719233D01*
X139109216Y-105602628D01*
X139257628Y-105454216D01*
X139374233Y-105279703D01*
X139454553Y-105085795D01*
X139467952Y-105018433D01*
X139495500Y-104879945D01*
X139495500Y-104670054D01*
X139454554Y-104464210D01*
X139454553Y-104464209D01*
X139454553Y-104464205D01*
X139414393Y-104367251D01*
X139374234Y-104270298D01*
X139257626Y-104095781D01*
X139109218Y-103947373D01*
X138934701Y-103830765D01*
X138740795Y-103750447D01*
X138740789Y-103750445D01*
X138534945Y-103709500D01*
X138534943Y-103709500D01*
X138325057Y-103709500D01*
X138325055Y-103709500D01*
X138119210Y-103750445D01*
X138119204Y-103750447D01*
X137925298Y-103830765D01*
X137750781Y-103947373D01*
X137602373Y-104095781D01*
X137485765Y-104270298D01*
X137405447Y-104464204D01*
X137405445Y-104464210D01*
X137364500Y-104670054D01*
X137364500Y-104670057D01*
X137364500Y-104879943D01*
X137364500Y-104879945D01*
X137364499Y-104879945D01*
X131555500Y-104879945D01*
X131555500Y-104670054D01*
X131514554Y-104464210D01*
X131514553Y-104464209D01*
X131514553Y-104464205D01*
X131474393Y-104367251D01*
X131434234Y-104270298D01*
X131317626Y-104095781D01*
X131169218Y-103947373D01*
X130994701Y-103830765D01*
X130800795Y-103750447D01*
X130800789Y-103750445D01*
X130594945Y-103709500D01*
X130594943Y-103709500D01*
X130385057Y-103709500D01*
X130385055Y-103709500D01*
X130179210Y-103750445D01*
X130179204Y-103750447D01*
X129985298Y-103830765D01*
X129810781Y-103947373D01*
X129810780Y-103947374D01*
X129742181Y-104015974D01*
X129680858Y-104049459D01*
X129611166Y-104044475D01*
X129555233Y-104002603D01*
X129530816Y-103937139D01*
X129530500Y-103928293D01*
X129530500Y-103402648D01*
X140979500Y-103402648D01*
X140979500Y-103607351D01*
X141011522Y-103809534D01*
X141074781Y-104004223D01*
X141167715Y-104186613D01*
X141288028Y-104352213D01*
X141432786Y-104496971D01*
X141587749Y-104609556D01*
X141598390Y-104617287D01*
X141701951Y-104670054D01*
X141780776Y-104710218D01*
X141780778Y-104710218D01*
X141780781Y-104710220D01*
X141885137Y-104744127D01*
X141975465Y-104773477D01*
X142076557Y-104789488D01*
X142177648Y-104805500D01*
X142177649Y-104805500D01*
X142382351Y-104805500D01*
X142382352Y-104805500D01*
X142584534Y-104773477D01*
X142779219Y-104710220D01*
X142961610Y-104617287D01*
X143054590Y-104549732D01*
X143127213Y-104496971D01*
X143127215Y-104496968D01*
X143127219Y-104496966D01*
X143271966Y-104352219D01*
X143271968Y-104352215D01*
X143271971Y-104352213D01*
X143331485Y-104270297D01*
X143392287Y-104186610D01*
X143419515Y-104133171D01*
X143467490Y-104082376D01*
X143535311Y-104065581D01*
X143601446Y-104088118D01*
X143640485Y-104133172D01*
X143667715Y-104186613D01*
X143788028Y-104352213D01*
X143932786Y-104496971D01*
X144087749Y-104609556D01*
X144098390Y-104617287D01*
X144201951Y-104670054D01*
X144280776Y-104710218D01*
X144280778Y-104710218D01*
X144280781Y-104710220D01*
X144385137Y-104744127D01*
X144475465Y-104773477D01*
X144576557Y-104789488D01*
X144677648Y-104805500D01*
X144677649Y-104805500D01*
X144882351Y-104805500D01*
X144882352Y-104805500D01*
X145084534Y-104773477D01*
X145279219Y-104710220D01*
X145461610Y-104617287D01*
X145554590Y-104549732D01*
X145627213Y-104496971D01*
X145627215Y-104496968D01*
X145627219Y-104496966D01*
X145771966Y-104352219D01*
X145771968Y-104352215D01*
X145771971Y-104352213D01*
X145831485Y-104270297D01*
X145892287Y-104186610D01*
X145985220Y-104004219D01*
X146048477Y-103809534D01*
X146080500Y-103607352D01*
X146080500Y-103402648D01*
X146057836Y-103259553D01*
X146048477Y-103200465D01*
X146003690Y-103062626D01*
X145985220Y-103005781D01*
X145985218Y-103005778D01*
X145985218Y-103005776D01*
X145919515Y-102876828D01*
X145892287Y-102823390D01*
X145884556Y-102812749D01*
X145771971Y-102657786D01*
X145627213Y-102513028D01*
X145461613Y-102392715D01*
X145461612Y-102392714D01*
X145461610Y-102392713D01*
X145404653Y-102363691D01*
X145279223Y-102299781D01*
X145084534Y-102236522D01*
X144909995Y-102208878D01*
X144882352Y-102204500D01*
X144677648Y-102204500D01*
X144653329Y-102208351D01*
X144475465Y-102236522D01*
X144280776Y-102299781D01*
X144098386Y-102392715D01*
X143932786Y-102513028D01*
X143788028Y-102657786D01*
X143667713Y-102823388D01*
X143640484Y-102876828D01*
X143592510Y-102927623D01*
X143524688Y-102944418D01*
X143458554Y-102921880D01*
X143419516Y-102876828D01*
X143392286Y-102823388D01*
X143271971Y-102657786D01*
X143127213Y-102513028D01*
X142961613Y-102392715D01*
X142961612Y-102392714D01*
X142961610Y-102392713D01*
X142904653Y-102363691D01*
X142779223Y-102299781D01*
X142584534Y-102236522D01*
X142409995Y-102208878D01*
X142382352Y-102204500D01*
X142177648Y-102204500D01*
X142153329Y-102208351D01*
X141975465Y-102236522D01*
X141780776Y-102299781D01*
X141598386Y-102392715D01*
X141432786Y-102513028D01*
X141288028Y-102657786D01*
X141167715Y-102823386D01*
X141074781Y-103005776D01*
X141011522Y-103200465D01*
X140979500Y-103402648D01*
X129530500Y-103402648D01*
X129530500Y-103081707D01*
X129550185Y-103014668D01*
X129602989Y-102968913D01*
X129672147Y-102958969D01*
X129735703Y-102987994D01*
X129742181Y-102994026D01*
X129810781Y-103062626D01*
X129985298Y-103179234D01*
X130082251Y-103219393D01*
X130179205Y-103259553D01*
X130179209Y-103259553D01*
X130179210Y-103259554D01*
X130385054Y-103300500D01*
X130385057Y-103300500D01*
X130594945Y-103300500D01*
X130733433Y-103272952D01*
X130800795Y-103259553D01*
X130994703Y-103179233D01*
X131169216Y-103062628D01*
X131317628Y-102914216D01*
X131434233Y-102739703D01*
X131514553Y-102545795D01*
X131545003Y-102392715D01*
X131555500Y-102339945D01*
X137364499Y-102339945D01*
X137405445Y-102545789D01*
X137405447Y-102545795D01*
X137485765Y-102739701D01*
X137602373Y-102914218D01*
X137750781Y-103062626D01*
X137925298Y-103179234D01*
X138022251Y-103219393D01*
X138119205Y-103259553D01*
X138119209Y-103259553D01*
X138119210Y-103259554D01*
X138325054Y-103300500D01*
X138325057Y-103300500D01*
X138534945Y-103300500D01*
X138657314Y-103276159D01*
X138713454Y-103264991D01*
X138740795Y-103259553D01*
X138934703Y-103179233D01*
X139109216Y-103062628D01*
X139257628Y-102914216D01*
X139374233Y-102739703D01*
X139454553Y-102545795D01*
X139485003Y-102392715D01*
X139495500Y-102339945D01*
X139495500Y-102130054D01*
X139454554Y-101924210D01*
X139454553Y-101924209D01*
X139454553Y-101924205D01*
X139389500Y-101767154D01*
X139374234Y-101730298D01*
X139257626Y-101555781D01*
X139109218Y-101407373D01*
X138934701Y-101290765D01*
X138740795Y-101210447D01*
X138740789Y-101210445D01*
X138534945Y-101169500D01*
X138534943Y-101169500D01*
X138325057Y-101169500D01*
X138325055Y-101169500D01*
X138119210Y-101210445D01*
X138119204Y-101210447D01*
X137925298Y-101290765D01*
X137750781Y-101407373D01*
X137602373Y-101555781D01*
X137485765Y-101730298D01*
X137405447Y-101924204D01*
X137405445Y-101924210D01*
X137364500Y-102130054D01*
X137364500Y-102130057D01*
X137364500Y-102339943D01*
X137364500Y-102339945D01*
X137364499Y-102339945D01*
X131555500Y-102339945D01*
X131555500Y-102130054D01*
X131514554Y-101924210D01*
X131514553Y-101924209D01*
X131514553Y-101924205D01*
X131449500Y-101767154D01*
X131434234Y-101730298D01*
X131317626Y-101555781D01*
X131169218Y-101407373D01*
X130994701Y-101290765D01*
X130800795Y-101210447D01*
X130800789Y-101210445D01*
X130594945Y-101169500D01*
X130594943Y-101169500D01*
X130385057Y-101169500D01*
X130385055Y-101169500D01*
X130179210Y-101210445D01*
X130179204Y-101210447D01*
X129985298Y-101290765D01*
X129810781Y-101407373D01*
X129810780Y-101407374D01*
X129742181Y-101475974D01*
X129680858Y-101509459D01*
X129611166Y-101504475D01*
X129555233Y-101462603D01*
X129530816Y-101397139D01*
X129530500Y-101388293D01*
X129530500Y-100825634D01*
X129550185Y-100758595D01*
X129602989Y-100712840D01*
X129672147Y-100702896D01*
X129697833Y-100709452D01*
X129817517Y-100754091D01*
X129817516Y-100754091D01*
X129824444Y-100754835D01*
X129877127Y-100760500D01*
X131102872Y-100760499D01*
X131162483Y-100754091D01*
X131297331Y-100703796D01*
X131412546Y-100617546D01*
X131498796Y-100502331D01*
X131549091Y-100367483D01*
X131555500Y-100307873D01*
X131555500Y-99799945D01*
X137364499Y-99799945D01*
X137405445Y-100005789D01*
X137405447Y-100005795D01*
X137485765Y-100199701D01*
X137602373Y-100374218D01*
X137750781Y-100522626D01*
X137925298Y-100639234D01*
X137990801Y-100666366D01*
X138119205Y-100719553D01*
X138119209Y-100719553D01*
X138119210Y-100719554D01*
X138325054Y-100760500D01*
X138325057Y-100760500D01*
X138534945Y-100760500D01*
X138673433Y-100732952D01*
X138740795Y-100719553D01*
X138906305Y-100650995D01*
X138934701Y-100639234D01*
X138934701Y-100639233D01*
X138934703Y-100639233D01*
X139109216Y-100522628D01*
X139257628Y-100374216D01*
X139374233Y-100199703D01*
X139454553Y-100005795D01*
X139480102Y-99877352D01*
X139495500Y-99799945D01*
X139495500Y-99590054D01*
X139454554Y-99384210D01*
X139454553Y-99384209D01*
X139454553Y-99384205D01*
X139409640Y-99275776D01*
X139374234Y-99190298D01*
X139257626Y-99015781D01*
X139109218Y-98867373D01*
X138934701Y-98750765D01*
X138740795Y-98670447D01*
X138740789Y-98670445D01*
X138534945Y-98629500D01*
X138534943Y-98629500D01*
X138325057Y-98629500D01*
X138325055Y-98629500D01*
X138119210Y-98670445D01*
X138119204Y-98670447D01*
X137925298Y-98750765D01*
X137750781Y-98867373D01*
X137602373Y-99015781D01*
X137485765Y-99190298D01*
X137405447Y-99384204D01*
X137405445Y-99384210D01*
X137364500Y-99590054D01*
X137364500Y-99590057D01*
X137364500Y-99799943D01*
X137364500Y-99799945D01*
X137364499Y-99799945D01*
X131555500Y-99799945D01*
X131555499Y-99082128D01*
X131549091Y-99022517D01*
X131540094Y-98998396D01*
X131498797Y-98887671D01*
X131498793Y-98887664D01*
X131412547Y-98772455D01*
X131412544Y-98772452D01*
X131297335Y-98686206D01*
X131297328Y-98686202D01*
X131215498Y-98655682D01*
X131159564Y-98613811D01*
X131135147Y-98548347D01*
X131149998Y-98480074D01*
X131199403Y-98430668D01*
X131258831Y-98415500D01*
X132141607Y-98415500D01*
X132202029Y-98403481D01*
X132262452Y-98391463D01*
X132295792Y-98377652D01*
X132376286Y-98344312D01*
X132427509Y-98310084D01*
X132478733Y-98275858D01*
X132565858Y-98188733D01*
X132565859Y-98188730D01*
X133200858Y-97553733D01*
X133269312Y-97451285D01*
X133316463Y-97337451D01*
X133333838Y-97250104D01*
X133340501Y-97216608D01*
X133340501Y-97088283D01*
X133340500Y-97088257D01*
X133340500Y-82633393D01*
X133340499Y-82633389D01*
X133336798Y-82614781D01*
X133316463Y-82512548D01*
X133269311Y-82398714D01*
X133269310Y-82398713D01*
X133269307Y-82398707D01*
X133200858Y-82296267D01*
X133200855Y-82296263D01*
X133110637Y-82206045D01*
X133110606Y-82206016D01*
X132342428Y-81437838D01*
X132308943Y-81376515D01*
X132312177Y-81311841D01*
X132317246Y-81296243D01*
X132350500Y-81086287D01*
X132350500Y-80873713D01*
X132317246Y-80663757D01*
X132251557Y-80461588D01*
X132155051Y-80272184D01*
X132155049Y-80272181D01*
X132155048Y-80272179D01*
X132030109Y-80100213D01*
X131879786Y-79949890D01*
X131707820Y-79824951D01*
X131518414Y-79728444D01*
X131518413Y-79728443D01*
X131518412Y-79728443D01*
X131316243Y-79662754D01*
X131316241Y-79662753D01*
X131316240Y-79662753D01*
X131154957Y-79637208D01*
X131106287Y-79629500D01*
X130893713Y-79629500D01*
X130845042Y-79637208D01*
X130683760Y-79662753D01*
X130481585Y-79728444D01*
X130292179Y-79824951D01*
X130120213Y-79949890D01*
X129969890Y-80100213D01*
X129844951Y-80272179D01*
X129748444Y-80461585D01*
X129682753Y-80663760D01*
X129664879Y-80776613D01*
X129649500Y-80873713D01*
X129649500Y-81086287D01*
X129682754Y-81296243D01*
X129728761Y-81437838D01*
X129748444Y-81498414D01*
X129844951Y-81687820D01*
X129969890Y-81859786D01*
X130120213Y-82010109D01*
X130292182Y-82135050D01*
X130300946Y-82139516D01*
X130351742Y-82187491D01*
X130368536Y-82255312D01*
X130345998Y-82321447D01*
X130300946Y-82360484D01*
X130292182Y-82364949D01*
X130120213Y-82489890D01*
X129969890Y-82640213D01*
X129844951Y-82812179D01*
X129748444Y-83001585D01*
X129682753Y-83203760D01*
X129649500Y-83413713D01*
X129649500Y-83626286D01*
X129682753Y-83836241D01*
X129687821Y-83851837D01*
X129689816Y-83921678D01*
X129657571Y-83977837D01*
X120886270Y-92749139D01*
X120799144Y-92836264D01*
X120799138Y-92836272D01*
X120730690Y-92938708D01*
X120730689Y-92938710D01*
X120706399Y-92997351D01*
X120706400Y-92997352D01*
X120683536Y-93052549D01*
X120683535Y-93052555D01*
X120659500Y-93173389D01*
X120659500Y-101369547D01*
X120639815Y-101436586D01*
X120623181Y-101457228D01*
X116127039Y-105953369D01*
X116065716Y-105986854D01*
X116001041Y-105983619D01*
X115915521Y-105955832D01*
X115915514Y-105955831D01*
X115686129Y-105919500D01*
X115686124Y-105919500D01*
X115453876Y-105919500D01*
X115453871Y-105919500D01*
X115224485Y-105955831D01*
X115003599Y-106027601D01*
X114796668Y-106133039D01*
X114608773Y-106269553D01*
X114444553Y-106433773D01*
X114308039Y-106621668D01*
X114202601Y-106828599D01*
X114130831Y-107049485D01*
X114094500Y-107278870D01*
X106045500Y-107278870D01*
X106045500Y-101372135D01*
X114094500Y-101372135D01*
X114094500Y-103417870D01*
X114094501Y-103417876D01*
X114100908Y-103477483D01*
X114151202Y-103612328D01*
X114151206Y-103612335D01*
X114237452Y-103727544D01*
X114237455Y-103727547D01*
X114352664Y-103813793D01*
X114352671Y-103813797D01*
X114487517Y-103864091D01*
X114487516Y-103864091D01*
X114494444Y-103864835D01*
X114547127Y-103870500D01*
X116592872Y-103870499D01*
X116652483Y-103864091D01*
X116787331Y-103813796D01*
X116902546Y-103727546D01*
X116988796Y-103612331D01*
X117039091Y-103477483D01*
X117045500Y-103417873D01*
X117045499Y-101372128D01*
X117039091Y-101312517D01*
X117001021Y-101210447D01*
X116988797Y-101177671D01*
X116988793Y-101177664D01*
X116902547Y-101062455D01*
X116902544Y-101062452D01*
X116787335Y-100976206D01*
X116787328Y-100976202D01*
X116652482Y-100925908D01*
X116652483Y-100925908D01*
X116592883Y-100919501D01*
X116592881Y-100919500D01*
X116592873Y-100919500D01*
X116592864Y-100919500D01*
X114547129Y-100919500D01*
X114547123Y-100919501D01*
X114487516Y-100925908D01*
X114352671Y-100976202D01*
X114352664Y-100976206D01*
X114237455Y-101062452D01*
X114237452Y-101062455D01*
X114151206Y-101177664D01*
X114151202Y-101177671D01*
X114100908Y-101312517D01*
X114094777Y-101369547D01*
X114094501Y-101372123D01*
X114094500Y-101372135D01*
X106045500Y-101372135D01*
X106045500Y-97292648D01*
X109959500Y-97292648D01*
X109959500Y-97497351D01*
X109991522Y-97699534D01*
X110054781Y-97894223D01*
X110147715Y-98076613D01*
X110268028Y-98242213D01*
X110412786Y-98386971D01*
X110533262Y-98474500D01*
X110578390Y-98507287D01*
X110658975Y-98548347D01*
X110760776Y-98600218D01*
X110760778Y-98600218D01*
X110760781Y-98600220D01*
X110802610Y-98613811D01*
X110955465Y-98663477D01*
X110999472Y-98670447D01*
X111157648Y-98695500D01*
X111157649Y-98695500D01*
X111362351Y-98695500D01*
X111362352Y-98695500D01*
X111564534Y-98663477D01*
X111759219Y-98600220D01*
X111941610Y-98507287D01*
X112084488Y-98403481D01*
X112107213Y-98386971D01*
X112107215Y-98386968D01*
X112107219Y-98386966D01*
X112251966Y-98242219D01*
X112251968Y-98242215D01*
X112251971Y-98242213D01*
X112304732Y-98169590D01*
X112372287Y-98076610D01*
X112465220Y-97894219D01*
X112528477Y-97699534D01*
X112560500Y-97497352D01*
X112560500Y-97292648D01*
X117579500Y-97292648D01*
X117579500Y-97497351D01*
X117611522Y-97699534D01*
X117674781Y-97894223D01*
X117767715Y-98076613D01*
X117888028Y-98242213D01*
X118032786Y-98386971D01*
X118153262Y-98474500D01*
X118198390Y-98507287D01*
X118278975Y-98548347D01*
X118380776Y-98600218D01*
X118380778Y-98600218D01*
X118380781Y-98600220D01*
X118422610Y-98613811D01*
X118575465Y-98663477D01*
X118619472Y-98670447D01*
X118777648Y-98695500D01*
X118777649Y-98695500D01*
X118982351Y-98695500D01*
X118982352Y-98695500D01*
X119184534Y-98663477D01*
X119379219Y-98600220D01*
X119561610Y-98507287D01*
X119704488Y-98403481D01*
X119727213Y-98386971D01*
X119727215Y-98386968D01*
X119727219Y-98386966D01*
X119871966Y-98242219D01*
X119871968Y-98242215D01*
X119871971Y-98242213D01*
X119924732Y-98169590D01*
X119992287Y-98076610D01*
X120085220Y-97894219D01*
X120148477Y-97699534D01*
X120180500Y-97497352D01*
X120180500Y-97292648D01*
X120148477Y-97090466D01*
X120147759Y-97088257D01*
X120085218Y-96895776D01*
X120005036Y-96738412D01*
X119992287Y-96713390D01*
X119984556Y-96702749D01*
X119871971Y-96547786D01*
X119727213Y-96403028D01*
X119561613Y-96282715D01*
X119561612Y-96282714D01*
X119561610Y-96282713D01*
X119499813Y-96251226D01*
X119379223Y-96189781D01*
X119184534Y-96126522D01*
X119009995Y-96098878D01*
X118982352Y-96094500D01*
X118777648Y-96094500D01*
X118753329Y-96098351D01*
X118575465Y-96126522D01*
X118380776Y-96189781D01*
X118198386Y-96282715D01*
X118032786Y-96403028D01*
X117888028Y-96547786D01*
X117767715Y-96713386D01*
X117674781Y-96895776D01*
X117611522Y-97090465D01*
X117579500Y-97292648D01*
X112560500Y-97292648D01*
X112528477Y-97090466D01*
X112527759Y-97088257D01*
X112465218Y-96895776D01*
X112385036Y-96738412D01*
X112372287Y-96713390D01*
X112364556Y-96702749D01*
X112251971Y-96547786D01*
X112107213Y-96403028D01*
X111941613Y-96282715D01*
X111941612Y-96282714D01*
X111941610Y-96282713D01*
X111879813Y-96251226D01*
X111759223Y-96189781D01*
X111564534Y-96126522D01*
X111389995Y-96098878D01*
X111362352Y-96094500D01*
X111157648Y-96094500D01*
X111133329Y-96098351D01*
X110955465Y-96126522D01*
X110760776Y-96189781D01*
X110578386Y-96282715D01*
X110412786Y-96403028D01*
X110268028Y-96547786D01*
X110147715Y-96713386D01*
X110054781Y-96895776D01*
X109991522Y-97090465D01*
X109959500Y-97292648D01*
X106045500Y-97292648D01*
X106045500Y-92792648D01*
X109959500Y-92792648D01*
X109959500Y-92997351D01*
X109991522Y-93199534D01*
X110054781Y-93394223D01*
X110147715Y-93576613D01*
X110268028Y-93742213D01*
X110412786Y-93886971D01*
X110563184Y-93996239D01*
X110578390Y-94007287D01*
X110694607Y-94066503D01*
X110760776Y-94100218D01*
X110760778Y-94100218D01*
X110760781Y-94100220D01*
X110865137Y-94134127D01*
X110955465Y-94163477D01*
X110962259Y-94164553D01*
X111157648Y-94195500D01*
X111157649Y-94195500D01*
X111362351Y-94195500D01*
X111362352Y-94195500D01*
X111564534Y-94163477D01*
X111759219Y-94100220D01*
X111941610Y-94007287D01*
X112034590Y-93939732D01*
X112107213Y-93886971D01*
X112107215Y-93886968D01*
X112107219Y-93886966D01*
X112251966Y-93742219D01*
X112251968Y-93742215D01*
X112251971Y-93742213D01*
X112304732Y-93669590D01*
X112372287Y-93576610D01*
X112465220Y-93394219D01*
X112528477Y-93199534D01*
X112560500Y-92997352D01*
X112560500Y-92792648D01*
X117579500Y-92792648D01*
X117579500Y-92997351D01*
X117611522Y-93199534D01*
X117674781Y-93394223D01*
X117767715Y-93576613D01*
X117888028Y-93742213D01*
X118032786Y-93886971D01*
X118183184Y-93996239D01*
X118198390Y-94007287D01*
X118314607Y-94066503D01*
X118380776Y-94100218D01*
X118380778Y-94100218D01*
X118380781Y-94100220D01*
X118485137Y-94134127D01*
X118575465Y-94163477D01*
X118582259Y-94164553D01*
X118777648Y-94195500D01*
X118777649Y-94195500D01*
X118982351Y-94195500D01*
X118982352Y-94195500D01*
X119184534Y-94163477D01*
X119379219Y-94100220D01*
X119561610Y-94007287D01*
X119654590Y-93939732D01*
X119727213Y-93886971D01*
X119727215Y-93886968D01*
X119727219Y-93886966D01*
X119871966Y-93742219D01*
X119871968Y-93742215D01*
X119871971Y-93742213D01*
X119924732Y-93669590D01*
X119992287Y-93576610D01*
X120085220Y-93394219D01*
X120148477Y-93199534D01*
X120180500Y-92997352D01*
X120180500Y-92792648D01*
X120179145Y-92784091D01*
X120148477Y-92590465D01*
X120095833Y-92428444D01*
X120085220Y-92395781D01*
X120085218Y-92395778D01*
X120085218Y-92395776D01*
X120046502Y-92319792D01*
X119992287Y-92213390D01*
X119944648Y-92147820D01*
X119871971Y-92047786D01*
X119727213Y-91903028D01*
X119561613Y-91782715D01*
X119561612Y-91782714D01*
X119561610Y-91782713D01*
X119486680Y-91744534D01*
X119379223Y-91689781D01*
X119184534Y-91626522D01*
X119009995Y-91598878D01*
X118982352Y-91594500D01*
X118777648Y-91594500D01*
X118753329Y-91598351D01*
X118575465Y-91626522D01*
X118380776Y-91689781D01*
X118198386Y-91782715D01*
X118032786Y-91903028D01*
X117888028Y-92047786D01*
X117767715Y-92213386D01*
X117674781Y-92395776D01*
X117611522Y-92590465D01*
X117579500Y-92792648D01*
X112560500Y-92792648D01*
X112559145Y-92784091D01*
X112528477Y-92590465D01*
X112475833Y-92428444D01*
X112465220Y-92395781D01*
X112465218Y-92395778D01*
X112465218Y-92395776D01*
X112426502Y-92319792D01*
X112372287Y-92213390D01*
X112324648Y-92147820D01*
X112251971Y-92047786D01*
X112107213Y-91903028D01*
X111941613Y-91782715D01*
X111941612Y-91782714D01*
X111941610Y-91782713D01*
X111866680Y-91744534D01*
X111759223Y-91689781D01*
X111564534Y-91626522D01*
X111389995Y-91598878D01*
X111362352Y-91594500D01*
X111157648Y-91594500D01*
X111133329Y-91598351D01*
X110955465Y-91626522D01*
X110760776Y-91689781D01*
X110578386Y-91782715D01*
X110412786Y-91903028D01*
X110268028Y-92047786D01*
X110147715Y-92213386D01*
X110054781Y-92395776D01*
X109991522Y-92590465D01*
X109959500Y-92792648D01*
X106045500Y-92792648D01*
X106045500Y-89292648D01*
X117769500Y-89292648D01*
X117769500Y-89497351D01*
X117801522Y-89699534D01*
X117864781Y-89894223D01*
X117957715Y-90076613D01*
X118078028Y-90242213D01*
X118222786Y-90386971D01*
X118377749Y-90499556D01*
X118388390Y-90507287D01*
X118490732Y-90559433D01*
X118570776Y-90600218D01*
X118570778Y-90600218D01*
X118570781Y-90600220D01*
X118675137Y-90634127D01*
X118765465Y-90663477D01*
X118866557Y-90679488D01*
X118967648Y-90695500D01*
X118967649Y-90695500D01*
X119172351Y-90695500D01*
X119172352Y-90695500D01*
X119374534Y-90663477D01*
X119569219Y-90600220D01*
X119751610Y-90507287D01*
X119844590Y-90439732D01*
X119917213Y-90386971D01*
X119917215Y-90386968D01*
X119917219Y-90386966D01*
X120061966Y-90242219D01*
X120061968Y-90242215D01*
X120061971Y-90242213D01*
X120136595Y-90139500D01*
X120182287Y-90076610D01*
X120275220Y-89894219D01*
X120338477Y-89699534D01*
X120370500Y-89497352D01*
X120370500Y-89292648D01*
X120338477Y-89090466D01*
X120275220Y-88895781D01*
X120275218Y-88895778D01*
X120275218Y-88895776D01*
X120241503Y-88829607D01*
X120182287Y-88713390D01*
X120174556Y-88702749D01*
X120061971Y-88547786D01*
X119917213Y-88403028D01*
X119751613Y-88282715D01*
X119751612Y-88282714D01*
X119751610Y-88282713D01*
X119694653Y-88253691D01*
X119569223Y-88189781D01*
X119374534Y-88126522D01*
X119199995Y-88098878D01*
X119172352Y-88094500D01*
X118967648Y-88094500D01*
X118943329Y-88098351D01*
X118765465Y-88126522D01*
X118570776Y-88189781D01*
X118388386Y-88282715D01*
X118222786Y-88403028D01*
X118078028Y-88547786D01*
X117957715Y-88713386D01*
X117864781Y-88895776D01*
X117801522Y-89090465D01*
X117769500Y-89292648D01*
X106045500Y-89292648D01*
X106045500Y-76478870D01*
X114729500Y-76478870D01*
X114729500Y-76711129D01*
X114765831Y-76940514D01*
X114837601Y-77161400D01*
X114943039Y-77368331D01*
X115079551Y-77556224D01*
X115243776Y-77720449D01*
X115431669Y-77856961D01*
X115515223Y-77899534D01*
X115638599Y-77962398D01*
X115638601Y-77962398D01*
X115638604Y-77962400D01*
X115859486Y-78034169D01*
X115977668Y-78052886D01*
X116088871Y-78070500D01*
X116088876Y-78070500D01*
X116321129Y-78070500D01*
X116422502Y-78054443D01*
X116550514Y-78034169D01*
X116771396Y-77962400D01*
X116978331Y-77856961D01*
X117166224Y-77720449D01*
X117330449Y-77556224D01*
X117466961Y-77368331D01*
X117572400Y-77161396D01*
X117644169Y-76940514D01*
X117664443Y-76812502D01*
X117680500Y-76711129D01*
X117680500Y-76478870D01*
X117656370Y-76326522D01*
X117644169Y-76249486D01*
X117572400Y-76028604D01*
X117572398Y-76028601D01*
X117572398Y-76028599D01*
X117466960Y-75821668D01*
X117330449Y-75633776D01*
X117166224Y-75469551D01*
X116978331Y-75333039D01*
X116771400Y-75227601D01*
X116550514Y-75155831D01*
X116321129Y-75119500D01*
X116321124Y-75119500D01*
X116088876Y-75119500D01*
X116088871Y-75119500D01*
X115859485Y-75155831D01*
X115638599Y-75227601D01*
X115431668Y-75333039D01*
X115243773Y-75469553D01*
X115079553Y-75633773D01*
X114943039Y-75821668D01*
X114837601Y-76028599D01*
X114765831Y-76249485D01*
X114729500Y-76478870D01*
X106045500Y-76478870D01*
X106045500Y-71478870D01*
X114729500Y-71478870D01*
X114729500Y-71711129D01*
X114765831Y-71940514D01*
X114837601Y-72161400D01*
X114857516Y-72200484D01*
X114943039Y-72368331D01*
X115079551Y-72556224D01*
X115243776Y-72720449D01*
X115431669Y-72856961D01*
X115529436Y-72906776D01*
X115638599Y-72962398D01*
X115638601Y-72962398D01*
X115638604Y-72962400D01*
X115859486Y-73034169D01*
X115977668Y-73052886D01*
X116088871Y-73070500D01*
X116088876Y-73070500D01*
X116321129Y-73070500D01*
X116422502Y-73054443D01*
X116550514Y-73034169D01*
X116771396Y-72962400D01*
X116978331Y-72856961D01*
X117166224Y-72720449D01*
X117330449Y-72556224D01*
X117466961Y-72368331D01*
X117572400Y-72161396D01*
X117644169Y-71940514D01*
X117673310Y-71756522D01*
X117680500Y-71711129D01*
X117680500Y-71478870D01*
X117658253Y-71338412D01*
X117644169Y-71249486D01*
X117572400Y-71028604D01*
X117572398Y-71028601D01*
X117572398Y-71028599D01*
X117466960Y-70821668D01*
X117330449Y-70633776D01*
X117166224Y-70469551D01*
X116978331Y-70333039D01*
X116771400Y-70227601D01*
X116550514Y-70155831D01*
X116321129Y-70119500D01*
X116321124Y-70119500D01*
X116088876Y-70119500D01*
X116088871Y-70119500D01*
X115859485Y-70155831D01*
X115638599Y-70227601D01*
X115431668Y-70333039D01*
X115243773Y-70469553D01*
X115079553Y-70633773D01*
X114943039Y-70821668D01*
X114837601Y-71028599D01*
X114765831Y-71249485D01*
X114729500Y-71478870D01*
X106045500Y-71478870D01*
X106045500Y-66478870D01*
X114729500Y-66478870D01*
X114729500Y-66711129D01*
X114765831Y-66940514D01*
X114837601Y-67161400D01*
X114943039Y-67368331D01*
X115079551Y-67556224D01*
X115243776Y-67720449D01*
X115431669Y-67856961D01*
X115524418Y-67904219D01*
X115638599Y-67962398D01*
X115638601Y-67962398D01*
X115638604Y-67962400D01*
X115859486Y-68034169D01*
X115977668Y-68052886D01*
X116088871Y-68070500D01*
X116088876Y-68070500D01*
X116321129Y-68070500D01*
X116422502Y-68054443D01*
X116550514Y-68034169D01*
X116771396Y-67962400D01*
X116978331Y-67856961D01*
X117166224Y-67720449D01*
X117330449Y-67556224D01*
X117466961Y-67368331D01*
X117572400Y-67161396D01*
X117644169Y-66940514D01*
X117664443Y-66812502D01*
X117680500Y-66711129D01*
X117680500Y-66478870D01*
X117644169Y-66249485D01*
X117616379Y-66163959D01*
X117614384Y-66094118D01*
X117646627Y-66037961D01*
X121717821Y-61966768D01*
X121779142Y-61933285D01*
X121848834Y-61938269D01*
X121904767Y-61980141D01*
X121929184Y-62045605D01*
X121929500Y-62054451D01*
X121929500Y-76506611D01*
X121953535Y-76627444D01*
X121953540Y-76627461D01*
X122000685Y-76741281D01*
X122000687Y-76741285D01*
X122000688Y-76741286D01*
X122026418Y-76779792D01*
X122069142Y-76843733D01*
X122156267Y-76930858D01*
X122156269Y-76930859D01*
X122166605Y-76941195D01*
X122402781Y-77177371D01*
X122436266Y-77238694D01*
X122435785Y-77285416D01*
X122437285Y-77285654D01*
X122404500Y-77492648D01*
X122404500Y-77697351D01*
X122436522Y-77899534D01*
X122499781Y-78094223D01*
X122592715Y-78276613D01*
X122713028Y-78442213D01*
X122857786Y-78586971D01*
X123023388Y-78707286D01*
X123076828Y-78734516D01*
X123127623Y-78782490D01*
X123144418Y-78850312D01*
X123121880Y-78916446D01*
X123076828Y-78955484D01*
X123023388Y-78982713D01*
X122857786Y-79103028D01*
X122713028Y-79247786D01*
X122592715Y-79413386D01*
X122499781Y-79595776D01*
X122436522Y-79790465D01*
X122404500Y-79992648D01*
X122404500Y-80197351D01*
X122436522Y-80399534D01*
X122499781Y-80594223D01*
X122535211Y-80663757D01*
X122577805Y-80747352D01*
X122592715Y-80776613D01*
X122713028Y-80942213D01*
X122857786Y-81086971D01*
X123012749Y-81199556D01*
X123023390Y-81207287D01*
X123139607Y-81266503D01*
X123205776Y-81300218D01*
X123205778Y-81300218D01*
X123205781Y-81300220D01*
X123310137Y-81334127D01*
X123400465Y-81363477D01*
X123482783Y-81376515D01*
X123602648Y-81395500D01*
X123602649Y-81395500D01*
X123807351Y-81395500D01*
X123807352Y-81395500D01*
X124009534Y-81363477D01*
X124204219Y-81300220D01*
X124386610Y-81207287D01*
X124479590Y-81139732D01*
X124552213Y-81086971D01*
X124552215Y-81086968D01*
X124552219Y-81086966D01*
X124696966Y-80942219D01*
X124696968Y-80942215D01*
X124696971Y-80942213D01*
X124749732Y-80869590D01*
X124817287Y-80776610D01*
X124910220Y-80594219D01*
X124973477Y-80399534D01*
X125005500Y-80197352D01*
X125005500Y-79992648D01*
X124978939Y-79824949D01*
X124973477Y-79790465D01*
X124931981Y-79662754D01*
X124910220Y-79595781D01*
X124910218Y-79595778D01*
X124910218Y-79595776D01*
X124876503Y-79529607D01*
X124817287Y-79413390D01*
X124767236Y-79344500D01*
X124696971Y-79247786D01*
X124552213Y-79103028D01*
X124386613Y-78982715D01*
X124386612Y-78982714D01*
X124386610Y-78982713D01*
X124333171Y-78955484D01*
X124282376Y-78907510D01*
X124265581Y-78839689D01*
X124288118Y-78773554D01*
X124333172Y-78734515D01*
X124386610Y-78707287D01*
X124479590Y-78639732D01*
X124552213Y-78586971D01*
X124552215Y-78586968D01*
X124552219Y-78586966D01*
X124696966Y-78442219D01*
X124696968Y-78442215D01*
X124696971Y-78442213D01*
X124749732Y-78369590D01*
X124817287Y-78276610D01*
X124910220Y-78094219D01*
X124973477Y-77899534D01*
X125005500Y-77697352D01*
X125005500Y-77492648D01*
X124973477Y-77290466D01*
X124971913Y-77285654D01*
X124931541Y-77161400D01*
X124910220Y-77095781D01*
X124910218Y-77095778D01*
X124910218Y-77095776D01*
X124831107Y-76940514D01*
X124817287Y-76913390D01*
X124766679Y-76843733D01*
X124696971Y-76747786D01*
X124552213Y-76603028D01*
X124386613Y-76482715D01*
X124386612Y-76482714D01*
X124386610Y-76482713D01*
X124329653Y-76453691D01*
X124204223Y-76389781D01*
X124009534Y-76326522D01*
X123834995Y-76298878D01*
X123807352Y-76294500D01*
X123602648Y-76294500D01*
X123499101Y-76310900D01*
X123395654Y-76327285D01*
X123395332Y-76325256D01*
X123393591Y-76325168D01*
X123383898Y-76328784D01*
X123359290Y-76323430D01*
X123334143Y-76322157D01*
X123323920Y-76315736D01*
X123315625Y-76313932D01*
X123287371Y-76292781D01*
X123216818Y-76222227D01*
X123183334Y-76160903D01*
X123180500Y-76134546D01*
X123180500Y-71342677D01*
X123200185Y-71275638D01*
X123252989Y-71229883D01*
X123322147Y-71219939D01*
X123342815Y-71224745D01*
X123358628Y-71229883D01*
X123400465Y-71243477D01*
X123501557Y-71259488D01*
X123602648Y-71275500D01*
X123602649Y-71275500D01*
X123807351Y-71275500D01*
X123807352Y-71275500D01*
X124009534Y-71243477D01*
X124204219Y-71180220D01*
X124386610Y-71087287D01*
X124479590Y-71019732D01*
X124552213Y-70966971D01*
X124552215Y-70966968D01*
X124552219Y-70966966D01*
X124696966Y-70822219D01*
X124696968Y-70822215D01*
X124696971Y-70822213D01*
X124749732Y-70749590D01*
X124817287Y-70656610D01*
X124910220Y-70474219D01*
X124973477Y-70279534D01*
X125005500Y-70077352D01*
X125005500Y-69872648D01*
X124973477Y-69670466D01*
X124971684Y-69664949D01*
X124934335Y-69550000D01*
X124910220Y-69475781D01*
X124910218Y-69475778D01*
X124910218Y-69475776D01*
X124876503Y-69409607D01*
X124817287Y-69293390D01*
X124809556Y-69282749D01*
X124696971Y-69127786D01*
X124552213Y-68983028D01*
X124386614Y-68862715D01*
X124376867Y-68857749D01*
X124264478Y-68800484D01*
X124213684Y-68752511D01*
X124196889Y-68684690D01*
X124219426Y-68618555D01*
X124264478Y-68579516D01*
X124386610Y-68517287D01*
X124407770Y-68501913D01*
X124552213Y-68396971D01*
X124552215Y-68396968D01*
X124552219Y-68396966D01*
X124696966Y-68252219D01*
X124696968Y-68252215D01*
X124696971Y-68252213D01*
X124754003Y-68173713D01*
X124817287Y-68086610D01*
X124910220Y-67904219D01*
X124973477Y-67709534D01*
X125005500Y-67507352D01*
X125005500Y-67302648D01*
X124973477Y-67100466D01*
X124955387Y-67044792D01*
X124934657Y-66980991D01*
X124910220Y-66905781D01*
X124910218Y-66905778D01*
X124910218Y-66905776D01*
X124876503Y-66839607D01*
X124817287Y-66723390D01*
X124808375Y-66711124D01*
X124696971Y-66557786D01*
X124552213Y-66413028D01*
X124386613Y-66292715D01*
X124386612Y-66292714D01*
X124386610Y-66292713D01*
X124329653Y-66263691D01*
X124204223Y-66199781D01*
X124009534Y-66136522D01*
X123834995Y-66108878D01*
X123807352Y-66104500D01*
X123602648Y-66104500D01*
X123535254Y-66115174D01*
X123400464Y-66136523D01*
X123400461Y-66136523D01*
X123342818Y-66155253D01*
X123272976Y-66157248D01*
X123213144Y-66121167D01*
X123182316Y-66058466D01*
X123180500Y-66037322D01*
X123180500Y-61152677D01*
X123200185Y-61085638D01*
X123252989Y-61039883D01*
X123322147Y-61029939D01*
X123342815Y-61034745D01*
X123358628Y-61039883D01*
X123400465Y-61053477D01*
X123501557Y-61069488D01*
X123602648Y-61085500D01*
X123602649Y-61085500D01*
X123807351Y-61085500D01*
X123807352Y-61085500D01*
X124009534Y-61053477D01*
X124204219Y-60990220D01*
X124386610Y-60897287D01*
X124479590Y-60829732D01*
X124552213Y-60776971D01*
X124552215Y-60776968D01*
X124552219Y-60776966D01*
X124696966Y-60632219D01*
X124696968Y-60632215D01*
X124696971Y-60632213D01*
X124754003Y-60553713D01*
X124817287Y-60466610D01*
X124910220Y-60284219D01*
X124973477Y-60089534D01*
X125005500Y-59887352D01*
X125005500Y-59682648D01*
X124973477Y-59480466D01*
X124967297Y-59461447D01*
X124910218Y-59285776D01*
X124876503Y-59219607D01*
X124817287Y-59103390D01*
X124809556Y-59092749D01*
X124696971Y-58937786D01*
X124552213Y-58793028D01*
X124386613Y-58672715D01*
X124386612Y-58672714D01*
X124386610Y-58672713D01*
X124319291Y-58638412D01*
X124204223Y-58579781D01*
X124009534Y-58516522D01*
X123834995Y-58488878D01*
X123807352Y-58484500D01*
X123602648Y-58484500D01*
X123535254Y-58495174D01*
X123400464Y-58516523D01*
X123400461Y-58516523D01*
X123342818Y-58535253D01*
X123272976Y-58537248D01*
X123213144Y-58501167D01*
X123182316Y-58438466D01*
X123180500Y-58417322D01*
X123180500Y-56715452D01*
X123200185Y-56648413D01*
X123216819Y-56627771D01*
X124370877Y-55473713D01*
X129649500Y-55473713D01*
X129649500Y-55686287D01*
X129682754Y-55896243D01*
X129717246Y-56002399D01*
X129748444Y-56098414D01*
X129844951Y-56287820D01*
X129969890Y-56459786D01*
X130120213Y-56610109D01*
X130292182Y-56735050D01*
X130300946Y-56739516D01*
X130351742Y-56787491D01*
X130368536Y-56855312D01*
X130345998Y-56921447D01*
X130300946Y-56960484D01*
X130292182Y-56964949D01*
X130120213Y-57089890D01*
X129969890Y-57240213D01*
X129844951Y-57412179D01*
X129748444Y-57601585D01*
X129682753Y-57803760D01*
X129672986Y-57865427D01*
X129649500Y-58013713D01*
X129649500Y-58226287D01*
X129682754Y-58436243D01*
X129729392Y-58579780D01*
X129748444Y-58638414D01*
X129844951Y-58827820D01*
X129969890Y-58999786D01*
X130120213Y-59150109D01*
X130292182Y-59275050D01*
X130300946Y-59279516D01*
X130351742Y-59327491D01*
X130368536Y-59395312D01*
X130345998Y-59461447D01*
X130300946Y-59500484D01*
X130292182Y-59504949D01*
X130120213Y-59629890D01*
X129969890Y-59780213D01*
X129844951Y-59952179D01*
X129748444Y-60141585D01*
X129682753Y-60343760D01*
X129656025Y-60512516D01*
X129649500Y-60553713D01*
X129649500Y-60766287D01*
X129651192Y-60776971D01*
X129670248Y-60897287D01*
X129682754Y-60976243D01*
X129687295Y-60990220D01*
X129748444Y-61178414D01*
X129844951Y-61367820D01*
X129969890Y-61539786D01*
X130120213Y-61690109D01*
X130292182Y-61815050D01*
X130300946Y-61819516D01*
X130351742Y-61867491D01*
X130368536Y-61935312D01*
X130345998Y-62001447D01*
X130300946Y-62040484D01*
X130292182Y-62044949D01*
X130120213Y-62169890D01*
X129969890Y-62320213D01*
X129844951Y-62492179D01*
X129748444Y-62681585D01*
X129682753Y-62883760D01*
X129649500Y-63093713D01*
X129649500Y-63306286D01*
X129682753Y-63516239D01*
X129748444Y-63718414D01*
X129844951Y-63907820D01*
X129969890Y-64079786D01*
X130120213Y-64230109D01*
X130292179Y-64355048D01*
X130292181Y-64355049D01*
X130292184Y-64355051D01*
X130481588Y-64451557D01*
X130683757Y-64517246D01*
X130893713Y-64550500D01*
X130893714Y-64550500D01*
X131106286Y-64550500D01*
X131106287Y-64550500D01*
X131316243Y-64517246D01*
X131331840Y-64512177D01*
X131347051Y-64511743D01*
X131361311Y-64506425D01*
X131381266Y-64510766D01*
X131401679Y-64510183D01*
X131415765Y-64518270D01*
X131429584Y-64521277D01*
X131457838Y-64542428D01*
X131514181Y-64598771D01*
X131547666Y-64660094D01*
X131550500Y-64686452D01*
X131550500Y-66868197D01*
X131530815Y-66935236D01*
X131478011Y-66980991D01*
X131408853Y-66990935D01*
X131388183Y-66986128D01*
X131316244Y-66962754D01*
X131316240Y-66962753D01*
X131142502Y-66935236D01*
X131106287Y-66929500D01*
X130893713Y-66929500D01*
X130857498Y-66935236D01*
X130683760Y-66962753D01*
X130481585Y-67028444D01*
X130292179Y-67124951D01*
X130120213Y-67249890D01*
X129969890Y-67400213D01*
X129844951Y-67572179D01*
X129748444Y-67761585D01*
X129682753Y-67963760D01*
X129663296Y-68086610D01*
X129649500Y-68173713D01*
X129649500Y-68386287D01*
X129651192Y-68396971D01*
X129680104Y-68579515D01*
X129682754Y-68596243D01*
X129743325Y-68782661D01*
X129748444Y-68798414D01*
X129844951Y-68987820D01*
X129969890Y-69159786D01*
X130120213Y-69310109D01*
X130292182Y-69435050D01*
X130300946Y-69439516D01*
X130351742Y-69487491D01*
X130368536Y-69555312D01*
X130345998Y-69621447D01*
X130300946Y-69660484D01*
X130292182Y-69664949D01*
X130120213Y-69789890D01*
X129969890Y-69940213D01*
X129844951Y-70112179D01*
X129748444Y-70301585D01*
X129682753Y-70503760D01*
X129649500Y-70713713D01*
X129649500Y-70926286D01*
X129674999Y-71087284D01*
X129682754Y-71136243D01*
X129728046Y-71275638D01*
X129748444Y-71338414D01*
X129844951Y-71527820D01*
X129969890Y-71699786D01*
X130120213Y-71850109D01*
X130292182Y-71975050D01*
X130300946Y-71979516D01*
X130351742Y-72027491D01*
X130368536Y-72095312D01*
X130345998Y-72161447D01*
X130300946Y-72200484D01*
X130292182Y-72204949D01*
X130120213Y-72329890D01*
X129969890Y-72480213D01*
X129844951Y-72652179D01*
X129748444Y-72841585D01*
X129682753Y-73043760D01*
X129649500Y-73253713D01*
X129649500Y-73466287D01*
X129682754Y-73676243D01*
X129721427Y-73795267D01*
X129748444Y-73878414D01*
X129844951Y-74067820D01*
X129969890Y-74239786D01*
X130120213Y-74390109D01*
X130292182Y-74515050D01*
X130300946Y-74519516D01*
X130351742Y-74567491D01*
X130368536Y-74635312D01*
X130345998Y-74701447D01*
X130300946Y-74740484D01*
X130292182Y-74744949D01*
X130120213Y-74869890D01*
X129969890Y-75020213D01*
X129844951Y-75192179D01*
X129748444Y-75381585D01*
X129682753Y-75583760D01*
X129649500Y-75793713D01*
X129649500Y-76006286D01*
X129677949Y-76185909D01*
X129682754Y-76216243D01*
X129739140Y-76389781D01*
X129748444Y-76418414D01*
X129844951Y-76607820D01*
X129969890Y-76779786D01*
X130120213Y-76930109D01*
X130292179Y-77055048D01*
X130292181Y-77055049D01*
X130292184Y-77055051D01*
X130481588Y-77151557D01*
X130683757Y-77217246D01*
X130893713Y-77250500D01*
X130893714Y-77250500D01*
X131106286Y-77250500D01*
X131106287Y-77250500D01*
X131316243Y-77217246D01*
X131518412Y-77151557D01*
X131707816Y-77055051D01*
X131729789Y-77039086D01*
X131879786Y-76930109D01*
X131879788Y-76930106D01*
X131879792Y-76930104D01*
X132030104Y-76779792D01*
X132030106Y-76779788D01*
X132030109Y-76779786D01*
X132155048Y-76607820D01*
X132155047Y-76607820D01*
X132155051Y-76607816D01*
X132251557Y-76418412D01*
X132317246Y-76216243D01*
X132350500Y-76006287D01*
X132350500Y-75793713D01*
X132317246Y-75583757D01*
X132251557Y-75381588D01*
X132155051Y-75192184D01*
X132155049Y-75192181D01*
X132155048Y-75192179D01*
X132030109Y-75020213D01*
X131879786Y-74869890D01*
X131707820Y-74744951D01*
X131707115Y-74744591D01*
X131699054Y-74740485D01*
X131648259Y-74692512D01*
X131631463Y-74624692D01*
X131653999Y-74558556D01*
X131699054Y-74519515D01*
X131707816Y-74515051D01*
X131729789Y-74499086D01*
X131879786Y-74390109D01*
X131879788Y-74390106D01*
X131879792Y-74390104D01*
X132030104Y-74239792D01*
X132030106Y-74239788D01*
X132030109Y-74239786D01*
X132155048Y-74067820D01*
X132155047Y-74067820D01*
X132155051Y-74067816D01*
X132251557Y-73878412D01*
X132317246Y-73676243D01*
X132350500Y-73466287D01*
X132350500Y-73253713D01*
X132317246Y-73043757D01*
X132251557Y-72841588D01*
X132155051Y-72652184D01*
X132155049Y-72652181D01*
X132155048Y-72652179D01*
X132030109Y-72480213D01*
X131879786Y-72329890D01*
X131707820Y-72204951D01*
X131707115Y-72204591D01*
X131699054Y-72200485D01*
X131648259Y-72152512D01*
X131631463Y-72084692D01*
X131653999Y-72018556D01*
X131699054Y-71979515D01*
X131707816Y-71975051D01*
X131729789Y-71959086D01*
X131879786Y-71850109D01*
X131879788Y-71850106D01*
X131879792Y-71850104D01*
X132030104Y-71699792D01*
X132030106Y-71699788D01*
X132030109Y-71699786D01*
X132155049Y-71527819D01*
X132162497Y-71513203D01*
X132210473Y-71462408D01*
X132272981Y-71445500D01*
X132728310Y-71445500D01*
X132795349Y-71465185D01*
X132815991Y-71481819D01*
X136498181Y-75164009D01*
X136531666Y-75225332D01*
X136534500Y-75251690D01*
X136534500Y-89607851D01*
X136558535Y-89728684D01*
X136558540Y-89728701D01*
X136605682Y-89842516D01*
X136605689Y-89842528D01*
X136611724Y-89851559D01*
X136611726Y-89851562D01*
X136674141Y-89944972D01*
X136674144Y-89944976D01*
X136765586Y-90036418D01*
X136765608Y-90036438D01*
X152925181Y-106196011D01*
X152958666Y-106257334D01*
X152961500Y-106283692D01*
X152961500Y-106594344D01*
X152941815Y-106661383D01*
X152889011Y-106707138D01*
X152819853Y-106717082D01*
X152799182Y-106712275D01*
X152704537Y-106681523D01*
X152552897Y-106657505D01*
X152502352Y-106649500D01*
X152297648Y-106649500D01*
X152273329Y-106653351D01*
X152095465Y-106681522D01*
X151900776Y-106744781D01*
X151718386Y-106837715D01*
X151552786Y-106958028D01*
X151408028Y-107102786D01*
X151287715Y-107268386D01*
X151194781Y-107450776D01*
X151131522Y-107645465D01*
X151099500Y-107847648D01*
X151099500Y-108052351D01*
X151131522Y-108254534D01*
X151194781Y-108449223D01*
X151287715Y-108631613D01*
X151408028Y-108797213D01*
X151552786Y-108941971D01*
X151707749Y-109054556D01*
X151718390Y-109062287D01*
X151834607Y-109121503D01*
X151900776Y-109155218D01*
X151900778Y-109155218D01*
X151900781Y-109155220D01*
X151994678Y-109185729D01*
X152095465Y-109218477D01*
X152196557Y-109234488D01*
X152297648Y-109250500D01*
X152297649Y-109250500D01*
X152502351Y-109250500D01*
X152502352Y-109250500D01*
X152704534Y-109218477D01*
X152799182Y-109187723D01*
X152869022Y-109185729D01*
X152928855Y-109221809D01*
X152959684Y-109284510D01*
X152961500Y-109305655D01*
X152961500Y-118434547D01*
X152941815Y-118501586D01*
X152925181Y-118522228D01*
X152099849Y-119347561D01*
X152038526Y-119381046D01*
X152012168Y-119383880D01*
X142816199Y-119383880D01*
X142755781Y-119395898D01*
X142718069Y-119403399D01*
X142695360Y-119407916D01*
X142695358Y-119407917D01*
X142662017Y-119421727D01*
X142581528Y-119455065D01*
X142581527Y-119455066D01*
X142541440Y-119481851D01*
X142541435Y-119481854D01*
X142535051Y-119486121D01*
X142479077Y-119523522D01*
X142391952Y-119610647D01*
X142391949Y-119610650D01*
X142388772Y-119613826D01*
X142388765Y-119613833D01*
X141223883Y-120778716D01*
X140120270Y-121882329D01*
X140120267Y-121882332D01*
X140085089Y-121917510D01*
X140033142Y-121969456D01*
X140009348Y-122005066D01*
X140009343Y-122005074D01*
X140005719Y-122010499D01*
X139964688Y-122071904D01*
X139931347Y-122152397D01*
X139929183Y-122157622D01*
X139917537Y-122185735D01*
X139917535Y-122185743D01*
X139893500Y-122306579D01*
X139893500Y-122306584D01*
X139893500Y-124073416D01*
X139917537Y-124194262D01*
X139928581Y-124220924D01*
X139964688Y-124308096D01*
X139975095Y-124323670D01*
X139980349Y-124331533D01*
X139980350Y-124331535D01*
X140033140Y-124410541D01*
X140033141Y-124410542D01*
X140033142Y-124410543D01*
X140120267Y-124497668D01*
X140120268Y-124497668D01*
X140127335Y-124504735D01*
X140127334Y-124504735D01*
X140127338Y-124504738D01*
X141838453Y-126215855D01*
X141838457Y-126215858D01*
X141940900Y-126284309D01*
X141940901Y-126284309D01*
X141940905Y-126284312D01*
X142007587Y-126311932D01*
X142054738Y-126331463D01*
X142074787Y-126335451D01*
X142139814Y-126348385D01*
X142175582Y-126355501D01*
X142175584Y-126355501D01*
X142304911Y-126355501D01*
X142304931Y-126355500D01*
X147381607Y-126355500D01*
X147442029Y-126343481D01*
X147502452Y-126331463D01*
X147535792Y-126317652D01*
X147616286Y-126284312D01*
X147667509Y-126250084D01*
X147718733Y-126215858D01*
X147805858Y-126128733D01*
X147805858Y-126128731D01*
X147816066Y-126118524D01*
X147816067Y-126118521D01*
X149422003Y-124512586D01*
X149483324Y-124479103D01*
X149544767Y-124482177D01*
X149544876Y-124481725D01*
X149547282Y-124482302D01*
X149548000Y-124482338D01*
X149549611Y-124482862D01*
X149549614Y-124482862D01*
X149549616Y-124482863D01*
X149755676Y-124515500D01*
X149755681Y-124515500D01*
X149964324Y-124515500D01*
X150170389Y-124482862D01*
X150181958Y-124479103D01*
X150368816Y-124418389D01*
X150554714Y-124323670D01*
X150723505Y-124201035D01*
X150871035Y-124053505D01*
X150993670Y-123884714D01*
X151088389Y-123698816D01*
X151099636Y-123664198D01*
X151139071Y-123606527D01*
X151203429Y-123579328D01*
X151272275Y-123591241D01*
X151305247Y-123614838D01*
X152549141Y-124858732D01*
X152549142Y-124858733D01*
X152636266Y-124945857D01*
X152636268Y-124945859D01*
X152738707Y-125014307D01*
X152738711Y-125014309D01*
X152738714Y-125014311D01*
X152852548Y-125061463D01*
X152973388Y-125085499D01*
X152973392Y-125085500D01*
X152973393Y-125085500D01*
X156271607Y-125085500D01*
X156332029Y-125073481D01*
X156392452Y-125061463D01*
X156425792Y-125047652D01*
X156506286Y-125014312D01*
X156557509Y-124980084D01*
X156608733Y-124945858D01*
X156695858Y-124858733D01*
X156695859Y-124858731D01*
X156702925Y-124851665D01*
X156702928Y-124851661D01*
X157042002Y-124512586D01*
X157103323Y-124479103D01*
X157164767Y-124482175D01*
X157164876Y-124481725D01*
X157167274Y-124482300D01*
X157167994Y-124482336D01*
X157169611Y-124482862D01*
X157261197Y-124497367D01*
X157375676Y-124515500D01*
X157375681Y-124515500D01*
X157584324Y-124515500D01*
X157790389Y-124482862D01*
X157801958Y-124479103D01*
X157988816Y-124418389D01*
X158174714Y-124323670D01*
X158343505Y-124201035D01*
X158491035Y-124053505D01*
X158613670Y-123884714D01*
X158708389Y-123698816D01*
X158772862Y-123500389D01*
X158778049Y-123467639D01*
X158805500Y-123294324D01*
X158805500Y-123085675D01*
X159964500Y-123085675D01*
X159964500Y-123294324D01*
X159997137Y-123500389D01*
X160061612Y-123698820D01*
X160120715Y-123814815D01*
X160156330Y-123884714D01*
X160278965Y-124053505D01*
X160426495Y-124201035D01*
X160595286Y-124323670D01*
X160683116Y-124368421D01*
X160781179Y-124418387D01*
X160781181Y-124418387D01*
X160781184Y-124418389D01*
X160873231Y-124448297D01*
X160979610Y-124482862D01*
X161185676Y-124515500D01*
X161185681Y-124515500D01*
X161394324Y-124515500D01*
X161600389Y-124482862D01*
X161611958Y-124479103D01*
X161798816Y-124418389D01*
X161984714Y-124323670D01*
X162153505Y-124201035D01*
X162301035Y-124053505D01*
X162423670Y-123884714D01*
X162518389Y-123698816D01*
X162582862Y-123500389D01*
X162588049Y-123467639D01*
X162615500Y-123294324D01*
X162615500Y-123085675D01*
X162582862Y-122879610D01*
X162545675Y-122765161D01*
X162518389Y-122681184D01*
X162499377Y-122643870D01*
X174419500Y-122643870D01*
X174419500Y-122876129D01*
X174455831Y-123105514D01*
X174527601Y-123326400D01*
X174617410Y-123502658D01*
X174633039Y-123533331D01*
X174769551Y-123721224D01*
X174933776Y-123885449D01*
X175121669Y-124021961D01*
X175219436Y-124071776D01*
X175328599Y-124127398D01*
X175328601Y-124127398D01*
X175328604Y-124127400D01*
X175549486Y-124199169D01*
X175667668Y-124217886D01*
X175778871Y-124235500D01*
X175778876Y-124235500D01*
X176011129Y-124235500D01*
X176118997Y-124218415D01*
X176240514Y-124199169D01*
X176461396Y-124127400D01*
X176668331Y-124021961D01*
X176856224Y-123885449D01*
X177020449Y-123721224D01*
X177156961Y-123533331D01*
X177262400Y-123326396D01*
X177334169Y-123105514D01*
X177364761Y-122912360D01*
X177370500Y-122876129D01*
X177370500Y-122643870D01*
X177346966Y-122495285D01*
X177334169Y-122414486D01*
X177262400Y-122193604D01*
X177262398Y-122193601D01*
X177262398Y-122193599D01*
X177204539Y-122080045D01*
X177156961Y-121986669D01*
X177020449Y-121798776D01*
X176856224Y-121634551D01*
X176668331Y-121498039D01*
X176461400Y-121392601D01*
X176240514Y-121320831D01*
X176011129Y-121284500D01*
X176011124Y-121284500D01*
X175778876Y-121284500D01*
X175778871Y-121284500D01*
X175549485Y-121320831D01*
X175328599Y-121392601D01*
X175121668Y-121498039D01*
X174933773Y-121634553D01*
X174769553Y-121798773D01*
X174633039Y-121986668D01*
X174527601Y-122193599D01*
X174455831Y-122414485D01*
X174419500Y-122643870D01*
X162499377Y-122643870D01*
X162423670Y-122495286D01*
X162301035Y-122326495D01*
X162153505Y-122178965D01*
X161984714Y-122056330D01*
X161982318Y-122055109D01*
X161798820Y-121961612D01*
X161600389Y-121897137D01*
X161394324Y-121864500D01*
X161394319Y-121864500D01*
X161185681Y-121864500D01*
X161185676Y-121864500D01*
X160979610Y-121897137D01*
X160781179Y-121961612D01*
X160595285Y-122056330D01*
X160426493Y-122178966D01*
X160278966Y-122326493D01*
X160156330Y-122495285D01*
X160061612Y-122681179D01*
X159997137Y-122879610D01*
X159964500Y-123085675D01*
X158805500Y-123085675D01*
X158772862Y-122879610D01*
X158735675Y-122765161D01*
X158708389Y-122681184D01*
X158708387Y-122681180D01*
X158708387Y-122681179D01*
X158613669Y-122495285D01*
X158612295Y-122493394D01*
X158491035Y-122326495D01*
X158343505Y-122178965D01*
X158174714Y-122056330D01*
X158172318Y-122055109D01*
X157988820Y-121961612D01*
X157790389Y-121897137D01*
X157584324Y-121864500D01*
X157584319Y-121864500D01*
X157375681Y-121864500D01*
X157375676Y-121864500D01*
X157169610Y-121897137D01*
X156971179Y-121961612D01*
X156785285Y-122056330D01*
X156616493Y-122178966D01*
X156468966Y-122326493D01*
X156346330Y-122495285D01*
X156251612Y-122681179D01*
X156187137Y-122879610D01*
X156154500Y-123085675D01*
X156154500Y-123294324D01*
X156187138Y-123500392D01*
X156187140Y-123500401D01*
X156187664Y-123502013D01*
X156187682Y-123502658D01*
X156188276Y-123505132D01*
X156187756Y-123505256D01*
X156188096Y-123517216D01*
X156193413Y-123531470D01*
X156189070Y-123551432D01*
X156189652Y-123571854D01*
X156181565Y-123585935D01*
X156178562Y-123599743D01*
X156157410Y-123627998D01*
X155987227Y-123798182D01*
X155925907Y-123831666D01*
X155899548Y-123834500D01*
X155024974Y-123834500D01*
X154957935Y-123814815D01*
X154912180Y-123762011D01*
X154902236Y-123692853D01*
X154907043Y-123672181D01*
X154928376Y-123606527D01*
X154962862Y-123500389D01*
X154968049Y-123467639D01*
X154995500Y-123294324D01*
X154995500Y-123085675D01*
X154962862Y-122879610D01*
X154925675Y-122765161D01*
X154898389Y-122681184D01*
X154898387Y-122681180D01*
X154898387Y-122681179D01*
X154803669Y-122495285D01*
X154802295Y-122493394D01*
X154681035Y-122326495D01*
X154533505Y-122178965D01*
X154364714Y-122056330D01*
X154364709Y-122056327D01*
X154364703Y-122056323D01*
X154363194Y-122055554D01*
X154362723Y-122055109D01*
X154360548Y-122053776D01*
X154360828Y-122053319D01*
X154312403Y-122007574D01*
X154295500Y-121945075D01*
X154295500Y-121526502D01*
X154315185Y-121459463D01*
X154331819Y-121438821D01*
X155876855Y-119893786D01*
X155876855Y-119893785D01*
X155876858Y-119893783D01*
X155945312Y-119791335D01*
X155974825Y-119720083D01*
X155992463Y-119677502D01*
X156005761Y-119610647D01*
X156016501Y-119556656D01*
X156016501Y-119433443D01*
X156016501Y-119428333D01*
X156016500Y-119428307D01*
X156016500Y-118007648D01*
X160624500Y-118007648D01*
X160624500Y-118212351D01*
X160656522Y-118414534D01*
X160719781Y-118609223D01*
X160812715Y-118791613D01*
X160933028Y-118957213D01*
X161077786Y-119101971D01*
X161232749Y-119214556D01*
X161243390Y-119222287D01*
X161359607Y-119281503D01*
X161425776Y-119315218D01*
X161425778Y-119315218D01*
X161425781Y-119315220D01*
X161525316Y-119347561D01*
X161620465Y-119378477D01*
X161721557Y-119394488D01*
X161822648Y-119410500D01*
X161822649Y-119410500D01*
X162027351Y-119410500D01*
X162027352Y-119410500D01*
X162229534Y-119378477D01*
X162424219Y-119315220D01*
X162606610Y-119222287D01*
X162699590Y-119154732D01*
X162772213Y-119101971D01*
X162772215Y-119101968D01*
X162772219Y-119101966D01*
X162916966Y-118957219D01*
X162916968Y-118957215D01*
X162916971Y-118957213D01*
X162969732Y-118884590D01*
X163037287Y-118791610D01*
X163130220Y-118609219D01*
X163193477Y-118414534D01*
X163225500Y-118212352D01*
X163225500Y-118007648D01*
X163193477Y-117805466D01*
X163193476Y-117805462D01*
X163193476Y-117805461D01*
X163151841Y-117677322D01*
X163140971Y-117643870D01*
X174419500Y-117643870D01*
X174419500Y-117876129D01*
X174455831Y-118105514D01*
X174527601Y-118326400D01*
X174608876Y-118485909D01*
X174633039Y-118533331D01*
X174769551Y-118721224D01*
X174933776Y-118885449D01*
X175121669Y-119021961D01*
X175204440Y-119064135D01*
X175328599Y-119127398D01*
X175328601Y-119127398D01*
X175328604Y-119127400D01*
X175549486Y-119199169D01*
X175667668Y-119217886D01*
X175778871Y-119235500D01*
X175778876Y-119235500D01*
X176011129Y-119235500D01*
X176112502Y-119219443D01*
X176240514Y-119199169D01*
X176461396Y-119127400D01*
X176668331Y-119021961D01*
X176856224Y-118885449D01*
X177020449Y-118721224D01*
X177156961Y-118533331D01*
X177262400Y-118326396D01*
X177334169Y-118105514D01*
X177356995Y-117961396D01*
X177370500Y-117876129D01*
X177370500Y-117643870D01*
X177349475Y-117511124D01*
X177334169Y-117414486D01*
X177262400Y-117193604D01*
X177262398Y-117193601D01*
X177262398Y-117193599D01*
X177156960Y-116986668D01*
X177020449Y-116798776D01*
X176856224Y-116634551D01*
X176668331Y-116498039D01*
X176461400Y-116392601D01*
X176240514Y-116320831D01*
X176011129Y-116284500D01*
X176011124Y-116284500D01*
X175778876Y-116284500D01*
X175778871Y-116284500D01*
X175549485Y-116320831D01*
X175328599Y-116392601D01*
X175121668Y-116498039D01*
X174933773Y-116634553D01*
X174769553Y-116798773D01*
X174633039Y-116986668D01*
X174527601Y-117193599D01*
X174455831Y-117414485D01*
X174419500Y-117643870D01*
X163140971Y-117643870D01*
X163130220Y-117610781D01*
X163037287Y-117428390D01*
X163016999Y-117400466D01*
X162916971Y-117262786D01*
X162772213Y-117118028D01*
X162606613Y-116997715D01*
X162606612Y-116997714D01*
X162606610Y-116997713D01*
X162549653Y-116968691D01*
X162424223Y-116904781D01*
X162229534Y-116841522D01*
X162054995Y-116813878D01*
X162027352Y-116809500D01*
X161822648Y-116809500D01*
X161798329Y-116813351D01*
X161620465Y-116841522D01*
X161425776Y-116904781D01*
X161243386Y-116997715D01*
X161077786Y-117118028D01*
X160933028Y-117262786D01*
X160812715Y-117428386D01*
X160719781Y-117610776D01*
X160656522Y-117805465D01*
X160624500Y-118007648D01*
X156016500Y-118007648D01*
X156016500Y-116174792D01*
X156036185Y-116107753D01*
X156088989Y-116061998D01*
X156158147Y-116052054D01*
X156196791Y-116064305D01*
X156281615Y-116107525D01*
X156345776Y-116140218D01*
X156345778Y-116140218D01*
X156345781Y-116140220D01*
X156450137Y-116174127D01*
X156540465Y-116203477D01*
X156641557Y-116219488D01*
X156742648Y-116235500D01*
X156742649Y-116235500D01*
X156947351Y-116235500D01*
X156947352Y-116235500D01*
X157149534Y-116203477D01*
X157344219Y-116140220D01*
X157526610Y-116047287D01*
X157619590Y-115979732D01*
X157692213Y-115926971D01*
X157692215Y-115926968D01*
X157692219Y-115926966D01*
X157836966Y-115782219D01*
X157836968Y-115782215D01*
X157836971Y-115782213D01*
X157948725Y-115628394D01*
X157957287Y-115616610D01*
X158050220Y-115434219D01*
X158113477Y-115239534D01*
X158145500Y-115037352D01*
X158145500Y-114832648D01*
X158113477Y-114630466D01*
X158050220Y-114435781D01*
X158050218Y-114435778D01*
X158050218Y-114435776D01*
X158016503Y-114369607D01*
X157957287Y-114253390D01*
X157876567Y-114142287D01*
X157836971Y-114087786D01*
X157692213Y-113943028D01*
X157526613Y-113822715D01*
X157526612Y-113822714D01*
X157526610Y-113822713D01*
X157473171Y-113795484D01*
X157422376Y-113747510D01*
X157405581Y-113679689D01*
X157428118Y-113613554D01*
X157473172Y-113574515D01*
X157526610Y-113547287D01*
X157619590Y-113479732D01*
X157692213Y-113426971D01*
X157692215Y-113426968D01*
X157692219Y-113426966D01*
X157836966Y-113282219D01*
X157836968Y-113282215D01*
X157836971Y-113282213D01*
X157897305Y-113199169D01*
X157957287Y-113116610D01*
X158050220Y-112934219D01*
X158113477Y-112739534D01*
X158145500Y-112537352D01*
X158145500Y-112332648D01*
X158113477Y-112130466D01*
X158104596Y-112103134D01*
X158050218Y-111935776D01*
X158001672Y-111840500D01*
X157957287Y-111753390D01*
X157939930Y-111729500D01*
X157836971Y-111587786D01*
X157692213Y-111443028D01*
X157526613Y-111322715D01*
X157526612Y-111322714D01*
X157526610Y-111322713D01*
X157462835Y-111290218D01*
X157344223Y-111229781D01*
X157149534Y-111166522D01*
X156974995Y-111138878D01*
X156947352Y-111134500D01*
X156742648Y-111134500D01*
X156718329Y-111138351D01*
X156540465Y-111166522D01*
X156345776Y-111229781D01*
X156196795Y-111305692D01*
X156128126Y-111318588D01*
X156063385Y-111292312D01*
X156023128Y-111235205D01*
X156016500Y-111195207D01*
X156016500Y-110387648D01*
X160624500Y-110387648D01*
X160624500Y-110592351D01*
X160656522Y-110794534D01*
X160719781Y-110989223D01*
X160764489Y-111076966D01*
X160793804Y-111134500D01*
X160812715Y-111171613D01*
X160933028Y-111337213D01*
X161077786Y-111481971D01*
X161223424Y-111587781D01*
X161243390Y-111602287D01*
X161327319Y-111645051D01*
X161425776Y-111695218D01*
X161425778Y-111695218D01*
X161425781Y-111695220D01*
X161530137Y-111729127D01*
X161620465Y-111758477D01*
X161639697Y-111761523D01*
X161822648Y-111790500D01*
X161822649Y-111790500D01*
X162027351Y-111790500D01*
X162027352Y-111790500D01*
X162229534Y-111758477D01*
X162424219Y-111695220D01*
X162606610Y-111602287D01*
X162719726Y-111520104D01*
X162772213Y-111481971D01*
X162772215Y-111481968D01*
X162772219Y-111481966D01*
X162916966Y-111337219D01*
X162916968Y-111337215D01*
X162916971Y-111337213D01*
X162991083Y-111235205D01*
X163037287Y-111171610D01*
X163130220Y-110989219D01*
X163193477Y-110794534D01*
X163225500Y-110592352D01*
X163225500Y-110387648D01*
X163224877Y-110383713D01*
X165654500Y-110383713D01*
X165654500Y-110596287D01*
X165660561Y-110634553D01*
X165681476Y-110766610D01*
X165687754Y-110806243D01*
X165746378Y-110986669D01*
X165753444Y-111008414D01*
X165849951Y-111197820D01*
X165974890Y-111369786D01*
X166125213Y-111520109D01*
X166297179Y-111645048D01*
X166297181Y-111645049D01*
X166297184Y-111645051D01*
X166486588Y-111741557D01*
X166688757Y-111807246D01*
X166898713Y-111840500D01*
X166898714Y-111840500D01*
X167111286Y-111840500D01*
X167111287Y-111840500D01*
X167321243Y-111807246D01*
X167523412Y-111741557D01*
X167712816Y-111645051D01*
X167714442Y-111643870D01*
X174419500Y-111643870D01*
X174419500Y-111876129D01*
X174455831Y-112105514D01*
X174527601Y-112326400D01*
X174578096Y-112425500D01*
X174633039Y-112533331D01*
X174769551Y-112721224D01*
X174933776Y-112885449D01*
X175121669Y-113021961D01*
X175219436Y-113071776D01*
X175328599Y-113127398D01*
X175328601Y-113127398D01*
X175328604Y-113127400D01*
X175549486Y-113199169D01*
X175667668Y-113217886D01*
X175778871Y-113235500D01*
X175778876Y-113235500D01*
X176011129Y-113235500D01*
X176112502Y-113219443D01*
X176240514Y-113199169D01*
X176461396Y-113127400D01*
X176668331Y-113021961D01*
X176856224Y-112885449D01*
X177020449Y-112721224D01*
X177156961Y-112533331D01*
X177262400Y-112326396D01*
X177334169Y-112105514D01*
X177355281Y-111972213D01*
X177370500Y-111876129D01*
X177370500Y-111643870D01*
X177344857Y-111481971D01*
X177334169Y-111414486D01*
X177262400Y-111193604D01*
X177262398Y-111193601D01*
X177262398Y-111193599D01*
X177175293Y-111022648D01*
X177156961Y-110986669D01*
X177020449Y-110798776D01*
X176856224Y-110634551D01*
X176668331Y-110498039D01*
X176461400Y-110392601D01*
X176240514Y-110320831D01*
X176011129Y-110284500D01*
X176011124Y-110284500D01*
X175778876Y-110284500D01*
X175778871Y-110284500D01*
X175549485Y-110320831D01*
X175328599Y-110392601D01*
X175121668Y-110498039D01*
X174933773Y-110634553D01*
X174769553Y-110798773D01*
X174633039Y-110986668D01*
X174527601Y-111193599D01*
X174455831Y-111414485D01*
X174419500Y-111643870D01*
X167714442Y-111643870D01*
X167884792Y-111520104D01*
X168035104Y-111369792D01*
X168035106Y-111369788D01*
X168035109Y-111369786D01*
X168160048Y-111197820D01*
X168160047Y-111197820D01*
X168160051Y-111197816D01*
X168256557Y-111008412D01*
X168322246Y-110806243D01*
X168355500Y-110596287D01*
X168355500Y-110383713D01*
X168322246Y-110173757D01*
X168256557Y-109971588D01*
X168160051Y-109782184D01*
X168160049Y-109782181D01*
X168160048Y-109782179D01*
X168035109Y-109610213D01*
X167884786Y-109459890D01*
X167712820Y-109334951D01*
X167523414Y-109238444D01*
X167523413Y-109238443D01*
X167523412Y-109238443D01*
X167321243Y-109172754D01*
X167321241Y-109172753D01*
X167321240Y-109172753D01*
X167159957Y-109147208D01*
X167111287Y-109139500D01*
X166898713Y-109139500D01*
X166850042Y-109147208D01*
X166688760Y-109172753D01*
X166486585Y-109238444D01*
X166297179Y-109334951D01*
X166125213Y-109459890D01*
X165974890Y-109610213D01*
X165849951Y-109782179D01*
X165753444Y-109971585D01*
X165687753Y-110173760D01*
X165661288Y-110340858D01*
X165654500Y-110383713D01*
X163224877Y-110383713D01*
X163208099Y-110277786D01*
X163193477Y-110185465D01*
X163145382Y-110037444D01*
X163130220Y-109990781D01*
X163130218Y-109990778D01*
X163130218Y-109990776D01*
X163092426Y-109916607D01*
X163037287Y-109808390D01*
X163026391Y-109793393D01*
X162916971Y-109642786D01*
X162772213Y-109498028D01*
X162606613Y-109377715D01*
X162606612Y-109377714D01*
X162606610Y-109377713D01*
X162522681Y-109334949D01*
X162424223Y-109284781D01*
X162229534Y-109221522D01*
X162054995Y-109193878D01*
X162027352Y-109189500D01*
X161822648Y-109189500D01*
X161798329Y-109193351D01*
X161620465Y-109221522D01*
X161425776Y-109284781D01*
X161243386Y-109377715D01*
X161077786Y-109498028D01*
X160933028Y-109642786D01*
X160812715Y-109808386D01*
X160719781Y-109990776D01*
X160656522Y-110185465D01*
X160624500Y-110387648D01*
X156016500Y-110387648D01*
X156016500Y-106573713D01*
X158034500Y-106573713D01*
X158034500Y-106786286D01*
X158062640Y-106963959D01*
X158067754Y-106996243D01*
X158103258Y-107105514D01*
X158133444Y-107198414D01*
X158229951Y-107387820D01*
X158354890Y-107559786D01*
X158505213Y-107710109D01*
X158677179Y-107835048D01*
X158677181Y-107835049D01*
X158677184Y-107835051D01*
X158866588Y-107931557D01*
X159068757Y-107997246D01*
X159278713Y-108030500D01*
X159278714Y-108030500D01*
X159491286Y-108030500D01*
X159491287Y-108030500D01*
X159701243Y-107997246D01*
X159903412Y-107931557D01*
X160092816Y-107835051D01*
X160114789Y-107819086D01*
X160264786Y-107710109D01*
X160264788Y-107710106D01*
X160264792Y-107710104D01*
X160415104Y-107559792D01*
X160415106Y-107559788D01*
X160415109Y-107559786D01*
X160540048Y-107387820D01*
X160540047Y-107387820D01*
X160540051Y-107387816D01*
X160544514Y-107379054D01*
X160592488Y-107328259D01*
X160660308Y-107311463D01*
X160726444Y-107333999D01*
X160765486Y-107379056D01*
X160769951Y-107387820D01*
X160894890Y-107559786D01*
X161045213Y-107710109D01*
X161217179Y-107835048D01*
X161217181Y-107835049D01*
X161217184Y-107835051D01*
X161406588Y-107931557D01*
X161608757Y-107997246D01*
X161818713Y-108030500D01*
X161818714Y-108030500D01*
X162031286Y-108030500D01*
X162031287Y-108030500D01*
X162241243Y-107997246D01*
X162443412Y-107931557D01*
X162632816Y-107835051D01*
X162654789Y-107819086D01*
X162804786Y-107710109D01*
X162804788Y-107710106D01*
X162804792Y-107710104D01*
X162955104Y-107559792D01*
X162955106Y-107559788D01*
X162955109Y-107559786D01*
X163080048Y-107387820D01*
X163080047Y-107387820D01*
X163080051Y-107387816D01*
X163084514Y-107379054D01*
X163132488Y-107328259D01*
X163200308Y-107311463D01*
X163266444Y-107333999D01*
X163305486Y-107379056D01*
X163309951Y-107387820D01*
X163434890Y-107559786D01*
X163585213Y-107710109D01*
X163757179Y-107835048D01*
X163757181Y-107835049D01*
X163757184Y-107835051D01*
X163946588Y-107931557D01*
X164148757Y-107997246D01*
X164358713Y-108030500D01*
X164358714Y-108030500D01*
X164571286Y-108030500D01*
X164571287Y-108030500D01*
X164781243Y-107997246D01*
X164983412Y-107931557D01*
X165172816Y-107835051D01*
X165194789Y-107819086D01*
X165344786Y-107710109D01*
X165344788Y-107710106D01*
X165344792Y-107710104D01*
X165495104Y-107559792D01*
X165495106Y-107559788D01*
X165495109Y-107559786D01*
X165620048Y-107387820D01*
X165620047Y-107387820D01*
X165620051Y-107387816D01*
X165624514Y-107379054D01*
X165672488Y-107328259D01*
X165740308Y-107311463D01*
X165806444Y-107333999D01*
X165845486Y-107379056D01*
X165849951Y-107387820D01*
X165974890Y-107559786D01*
X166125213Y-107710109D01*
X166297179Y-107835048D01*
X166297181Y-107835049D01*
X166297184Y-107835051D01*
X166486588Y-107931557D01*
X166688757Y-107997246D01*
X166898713Y-108030500D01*
X166898714Y-108030500D01*
X167111286Y-108030500D01*
X167111287Y-108030500D01*
X167321243Y-107997246D01*
X167523412Y-107931557D01*
X167712816Y-107835051D01*
X167734789Y-107819086D01*
X167884786Y-107710109D01*
X167884788Y-107710106D01*
X167884792Y-107710104D01*
X168035104Y-107559792D01*
X168035106Y-107559788D01*
X168035109Y-107559786D01*
X168160048Y-107387820D01*
X168160047Y-107387820D01*
X168160051Y-107387816D01*
X168256557Y-107198412D01*
X168322246Y-106996243D01*
X168355500Y-106786287D01*
X168355500Y-106643870D01*
X174419500Y-106643870D01*
X174419500Y-106876129D01*
X174455831Y-107105514D01*
X174527601Y-107326400D01*
X174614706Y-107497351D01*
X174633039Y-107533331D01*
X174769551Y-107721224D01*
X174933776Y-107885449D01*
X175121669Y-108021961D01*
X175219436Y-108071776D01*
X175328599Y-108127398D01*
X175328601Y-108127398D01*
X175328604Y-108127400D01*
X175549486Y-108199169D01*
X175667668Y-108217886D01*
X175778871Y-108235500D01*
X175778876Y-108235500D01*
X176011129Y-108235500D01*
X176112502Y-108219443D01*
X176240514Y-108199169D01*
X176461396Y-108127400D01*
X176668331Y-108021961D01*
X176856224Y-107885449D01*
X177020449Y-107721224D01*
X177156961Y-107533331D01*
X177262400Y-107326396D01*
X177334169Y-107105514D01*
X177367387Y-106895781D01*
X177370500Y-106876129D01*
X177370500Y-106643870D01*
X177345713Y-106487373D01*
X177334169Y-106414486D01*
X177262400Y-106193604D01*
X177262398Y-106193601D01*
X177262398Y-106193599D01*
X177177000Y-106025998D01*
X177156961Y-105986669D01*
X177020449Y-105798776D01*
X176856224Y-105634551D01*
X176668331Y-105498039D01*
X176461400Y-105392601D01*
X176240514Y-105320831D01*
X176011129Y-105284500D01*
X176011124Y-105284500D01*
X175778876Y-105284500D01*
X175778871Y-105284500D01*
X175549485Y-105320831D01*
X175328599Y-105392601D01*
X175121668Y-105498039D01*
X174933773Y-105634553D01*
X174769553Y-105798773D01*
X174633039Y-105986668D01*
X174527601Y-106193599D01*
X174455831Y-106414485D01*
X174419500Y-106643870D01*
X168355500Y-106643870D01*
X168355500Y-106573713D01*
X168322246Y-106363757D01*
X168256557Y-106161588D01*
X168160051Y-105972184D01*
X168160049Y-105972181D01*
X168160048Y-105972179D01*
X168035109Y-105800213D01*
X167884786Y-105649890D01*
X167712820Y-105524951D01*
X167523414Y-105428444D01*
X167523413Y-105428443D01*
X167523412Y-105428443D01*
X167321243Y-105362754D01*
X167321241Y-105362753D01*
X167321240Y-105362753D01*
X167159957Y-105337208D01*
X167111287Y-105329500D01*
X166898713Y-105329500D01*
X166850042Y-105337208D01*
X166688760Y-105362753D01*
X166486585Y-105428444D01*
X166297179Y-105524951D01*
X166125213Y-105649890D01*
X165974890Y-105800213D01*
X165849949Y-105972182D01*
X165845484Y-105980946D01*
X165797509Y-106031742D01*
X165729688Y-106048536D01*
X165663553Y-106025998D01*
X165624516Y-105980946D01*
X165620050Y-105972182D01*
X165495109Y-105800213D01*
X165344786Y-105649890D01*
X165172820Y-105524951D01*
X164983414Y-105428444D01*
X164983413Y-105428443D01*
X164983412Y-105428443D01*
X164781243Y-105362754D01*
X164781241Y-105362753D01*
X164781240Y-105362753D01*
X164619957Y-105337208D01*
X164571287Y-105329500D01*
X164358713Y-105329500D01*
X164310042Y-105337208D01*
X164148760Y-105362753D01*
X163946585Y-105428444D01*
X163757179Y-105524951D01*
X163585213Y-105649890D01*
X163434890Y-105800213D01*
X163309949Y-105972182D01*
X163305484Y-105980946D01*
X163257509Y-106031742D01*
X163189688Y-106048536D01*
X163123553Y-106025998D01*
X163084516Y-105980946D01*
X163080050Y-105972182D01*
X162955109Y-105800213D01*
X162804786Y-105649890D01*
X162632820Y-105524951D01*
X162443414Y-105428444D01*
X162443413Y-105428443D01*
X162443412Y-105428443D01*
X162241243Y-105362754D01*
X162241241Y-105362753D01*
X162241240Y-105362753D01*
X162079957Y-105337208D01*
X162031287Y-105329500D01*
X161818713Y-105329500D01*
X161770042Y-105337208D01*
X161608760Y-105362753D01*
X161406585Y-105428444D01*
X161217179Y-105524951D01*
X161045213Y-105649890D01*
X160894890Y-105800213D01*
X160769949Y-105972182D01*
X160765484Y-105980946D01*
X160717509Y-106031742D01*
X160649688Y-106048536D01*
X160583553Y-106025998D01*
X160544516Y-105980946D01*
X160540050Y-105972182D01*
X160415109Y-105800213D01*
X160264786Y-105649890D01*
X160092820Y-105524951D01*
X159903414Y-105428444D01*
X159903413Y-105428443D01*
X159903412Y-105428443D01*
X159701243Y-105362754D01*
X159701241Y-105362753D01*
X159701240Y-105362753D01*
X159539957Y-105337208D01*
X159491287Y-105329500D01*
X159278713Y-105329500D01*
X159230042Y-105337208D01*
X159068760Y-105362753D01*
X158866585Y-105428444D01*
X158677179Y-105524951D01*
X158505213Y-105649890D01*
X158354890Y-105800213D01*
X158229951Y-105972179D01*
X158133444Y-106161585D01*
X158133443Y-106161587D01*
X158133443Y-106161588D01*
X158123042Y-106193599D01*
X158067753Y-106363760D01*
X158034500Y-106573713D01*
X156016500Y-106573713D01*
X156016500Y-105164393D01*
X156016499Y-105164389D01*
X155992464Y-105043555D01*
X155992463Y-105043548D01*
X155945311Y-104929714D01*
X155945310Y-104929713D01*
X155945307Y-104929707D01*
X155876858Y-104827267D01*
X155876855Y-104827263D01*
X155786637Y-104737045D01*
X155786606Y-104737016D01*
X148828570Y-97778980D01*
X148795085Y-97717657D01*
X148800069Y-97647965D01*
X148841941Y-97592032D01*
X148896851Y-97568826D01*
X149096243Y-97537246D01*
X149298412Y-97471557D01*
X149487816Y-97375051D01*
X149585415Y-97304142D01*
X149659786Y-97250109D01*
X149659788Y-97250106D01*
X149659792Y-97250104D01*
X149810104Y-97099792D01*
X149810106Y-97099788D01*
X149810109Y-97099786D01*
X149935048Y-96927820D01*
X149935047Y-96927820D01*
X149935051Y-96927816D01*
X150031557Y-96738412D01*
X150097246Y-96536243D01*
X150130500Y-96326287D01*
X150130500Y-96113713D01*
X150097246Y-95903757D01*
X150031557Y-95701588D01*
X149935051Y-95512184D01*
X149935049Y-95512181D01*
X149935048Y-95512179D01*
X149810109Y-95340213D01*
X149659786Y-95189890D01*
X149637736Y-95173870D01*
X174419500Y-95173870D01*
X174419500Y-95406129D01*
X174455831Y-95635514D01*
X174527601Y-95856400D01*
X174633039Y-96063331D01*
X174769551Y-96251224D01*
X174933776Y-96415449D01*
X175121669Y-96551961D01*
X175219436Y-96601776D01*
X175328599Y-96657398D01*
X175328601Y-96657398D01*
X175328604Y-96657400D01*
X175549486Y-96729169D01*
X175667668Y-96747886D01*
X175778871Y-96765500D01*
X175778876Y-96765500D01*
X176011129Y-96765500D01*
X176112502Y-96749443D01*
X176240514Y-96729169D01*
X176461396Y-96657400D01*
X176668331Y-96551961D01*
X176856224Y-96415449D01*
X177020449Y-96251224D01*
X177156961Y-96063331D01*
X177262400Y-95856396D01*
X177334169Y-95635514D01*
X177354443Y-95507502D01*
X177370500Y-95406129D01*
X177370500Y-95173870D01*
X177337963Y-94968443D01*
X177334169Y-94944486D01*
X177262400Y-94723604D01*
X177262398Y-94723601D01*
X177262398Y-94723599D01*
X177156960Y-94516668D01*
X177020449Y-94328776D01*
X176856224Y-94164551D01*
X176668331Y-94028039D01*
X176627603Y-94007287D01*
X176461400Y-93922601D01*
X176240514Y-93850831D01*
X176011129Y-93814500D01*
X176011124Y-93814500D01*
X175778876Y-93814500D01*
X175778871Y-93814500D01*
X175549485Y-93850831D01*
X175328599Y-93922601D01*
X175121668Y-94028039D01*
X174933773Y-94164553D01*
X174769553Y-94328773D01*
X174633039Y-94516668D01*
X174527601Y-94723599D01*
X174455831Y-94944485D01*
X174419500Y-95173870D01*
X149637736Y-95173870D01*
X149487820Y-95064951D01*
X149487115Y-95064591D01*
X149479054Y-95060485D01*
X149428259Y-95012512D01*
X149411463Y-94944692D01*
X149433999Y-94878556D01*
X149479054Y-94839515D01*
X149487816Y-94835051D01*
X149641218Y-94723599D01*
X149659786Y-94710109D01*
X149659788Y-94710106D01*
X149659792Y-94710104D01*
X149810104Y-94559792D01*
X149810106Y-94559788D01*
X149810109Y-94559786D01*
X149935048Y-94387820D01*
X149935047Y-94387820D01*
X149935051Y-94387816D01*
X150031557Y-94198412D01*
X150097246Y-93996243D01*
X150130500Y-93786287D01*
X150130500Y-93573713D01*
X150097246Y-93363757D01*
X150031557Y-93161588D01*
X149935051Y-92972184D01*
X149935049Y-92972181D01*
X149935048Y-92972179D01*
X149810109Y-92800213D01*
X149659786Y-92649890D01*
X149487820Y-92524951D01*
X149298414Y-92428444D01*
X149298413Y-92428443D01*
X149298412Y-92428443D01*
X149096243Y-92362754D01*
X149096241Y-92362753D01*
X149096240Y-92362753D01*
X148934957Y-92337208D01*
X148886287Y-92329500D01*
X148673713Y-92329500D01*
X148625042Y-92337208D01*
X148463760Y-92362753D01*
X148261585Y-92428444D01*
X148072179Y-92524951D01*
X147900213Y-92649890D01*
X147749890Y-92800213D01*
X147624951Y-92972179D01*
X147528444Y-93161585D01*
X147462753Y-93363760D01*
X147444594Y-93478412D01*
X147429500Y-93573713D01*
X147429500Y-93786287D01*
X147462754Y-93996243D01*
X147517441Y-94164553D01*
X147528444Y-94198414D01*
X147624951Y-94387820D01*
X147749890Y-94559786D01*
X147900213Y-94710109D01*
X148072182Y-94835050D01*
X148080946Y-94839516D01*
X148131742Y-94887491D01*
X148148536Y-94955312D01*
X148125998Y-95021447D01*
X148080946Y-95060484D01*
X148072182Y-95064949D01*
X147900213Y-95189890D01*
X147749890Y-95340213D01*
X147624951Y-95512179D01*
X147528444Y-95701585D01*
X147462753Y-95903760D01*
X147431173Y-96103146D01*
X147401244Y-96166281D01*
X147341932Y-96203212D01*
X147272069Y-96202214D01*
X147221019Y-96171429D01*
X142387238Y-91337648D01*
X151099500Y-91337648D01*
X151099500Y-91542351D01*
X151131522Y-91744534D01*
X151194781Y-91939223D01*
X151250095Y-92047781D01*
X151273644Y-92093999D01*
X151287715Y-92121613D01*
X151408028Y-92287213D01*
X151552786Y-92431971D01*
X151690928Y-92532335D01*
X151718390Y-92552287D01*
X151802319Y-92595051D01*
X151900776Y-92645218D01*
X151900778Y-92645218D01*
X151900781Y-92645220D01*
X151927665Y-92653955D01*
X152095465Y-92708477D01*
X152196557Y-92724488D01*
X152297648Y-92740500D01*
X152297649Y-92740500D01*
X152502351Y-92740500D01*
X152502352Y-92740500D01*
X152704534Y-92708477D01*
X152899219Y-92645220D01*
X153081610Y-92552287D01*
X153194726Y-92470104D01*
X153247213Y-92431971D01*
X153247215Y-92431968D01*
X153247219Y-92431966D01*
X153391966Y-92287219D01*
X153391968Y-92287215D01*
X153391971Y-92287213D01*
X153493247Y-92147816D01*
X153512287Y-92121610D01*
X153605220Y-91939219D01*
X153668477Y-91744534D01*
X153700500Y-91542352D01*
X153700500Y-91337648D01*
X153699877Y-91333713D01*
X155494500Y-91333713D01*
X155494500Y-91546287D01*
X155527754Y-91756243D01*
X155536355Y-91782715D01*
X155593444Y-91958414D01*
X155689951Y-92147820D01*
X155814890Y-92319786D01*
X155965213Y-92470109D01*
X156137179Y-92595048D01*
X156137181Y-92595049D01*
X156137184Y-92595051D01*
X156326588Y-92691557D01*
X156528757Y-92757246D01*
X156738713Y-92790500D01*
X156738714Y-92790500D01*
X156951286Y-92790500D01*
X156951287Y-92790500D01*
X157161243Y-92757246D01*
X157363412Y-92691557D01*
X157552816Y-92595051D01*
X157639138Y-92532335D01*
X157724786Y-92470109D01*
X157724788Y-92470106D01*
X157724792Y-92470104D01*
X157875104Y-92319792D01*
X157875106Y-92319788D01*
X157875109Y-92319786D01*
X158000048Y-92147820D01*
X158000047Y-92147820D01*
X158000051Y-92147816D01*
X158004514Y-92139054D01*
X158052488Y-92088259D01*
X158120308Y-92071463D01*
X158186444Y-92093999D01*
X158225486Y-92139056D01*
X158229951Y-92147820D01*
X158354890Y-92319786D01*
X158505213Y-92470109D01*
X158677179Y-92595048D01*
X158677181Y-92595049D01*
X158677184Y-92595051D01*
X158866588Y-92691557D01*
X159068757Y-92757246D01*
X159278713Y-92790500D01*
X159278714Y-92790500D01*
X159491286Y-92790500D01*
X159491287Y-92790500D01*
X159701243Y-92757246D01*
X159903412Y-92691557D01*
X160092816Y-92595051D01*
X160179138Y-92532335D01*
X160264786Y-92470109D01*
X160264788Y-92470106D01*
X160264792Y-92470104D01*
X160415104Y-92319792D01*
X160415106Y-92319788D01*
X160415109Y-92319786D01*
X160540048Y-92147820D01*
X160540047Y-92147820D01*
X160540051Y-92147816D01*
X160544514Y-92139054D01*
X160592488Y-92088259D01*
X160660308Y-92071463D01*
X160726444Y-92093999D01*
X160765486Y-92139056D01*
X160769951Y-92147820D01*
X160894890Y-92319786D01*
X161045213Y-92470109D01*
X161217179Y-92595048D01*
X161217181Y-92595049D01*
X161217184Y-92595051D01*
X161406588Y-92691557D01*
X161608757Y-92757246D01*
X161818713Y-92790500D01*
X161818714Y-92790500D01*
X162031286Y-92790500D01*
X162031287Y-92790500D01*
X162241243Y-92757246D01*
X162443412Y-92691557D01*
X162632816Y-92595051D01*
X162719138Y-92532335D01*
X162804786Y-92470109D01*
X162804788Y-92470106D01*
X162804792Y-92470104D01*
X162955104Y-92319792D01*
X162955106Y-92319788D01*
X162955109Y-92319786D01*
X163080048Y-92147820D01*
X163080047Y-92147820D01*
X163080051Y-92147816D01*
X163084514Y-92139054D01*
X163132488Y-92088259D01*
X163200308Y-92071463D01*
X163266444Y-92093999D01*
X163305486Y-92139056D01*
X163309951Y-92147820D01*
X163434890Y-92319786D01*
X163585213Y-92470109D01*
X163757179Y-92595048D01*
X163757181Y-92595049D01*
X163757184Y-92595051D01*
X163946588Y-92691557D01*
X164148757Y-92757246D01*
X164358713Y-92790500D01*
X164358714Y-92790500D01*
X164571286Y-92790500D01*
X164571287Y-92790500D01*
X164781243Y-92757246D01*
X164983412Y-92691557D01*
X165172816Y-92595051D01*
X165344792Y-92470104D01*
X165458329Y-92356566D01*
X165519648Y-92323084D01*
X165589340Y-92328068D01*
X165645274Y-92369939D01*
X165662189Y-92400917D01*
X165711202Y-92532328D01*
X165711206Y-92532335D01*
X165797452Y-92647544D01*
X165797455Y-92647547D01*
X165912664Y-92733793D01*
X165912671Y-92733797D01*
X166047517Y-92784091D01*
X166047516Y-92784091D01*
X166054444Y-92784835D01*
X166107127Y-92790500D01*
X167902872Y-92790499D01*
X167962483Y-92784091D01*
X168097331Y-92733796D01*
X168212546Y-92647546D01*
X168298796Y-92532331D01*
X168349091Y-92397483D01*
X168355500Y-92337873D01*
X168355499Y-90542128D01*
X168349091Y-90482517D01*
X168347810Y-90479083D01*
X168298797Y-90347671D01*
X168298793Y-90347664D01*
X168212547Y-90232455D01*
X168212544Y-90232452D01*
X168097335Y-90146206D01*
X168097328Y-90146202D01*
X167962482Y-90095908D01*
X167962483Y-90095908D01*
X167902883Y-90089501D01*
X167902881Y-90089500D01*
X167902873Y-90089500D01*
X167902864Y-90089500D01*
X166107129Y-90089500D01*
X166107123Y-90089501D01*
X166047516Y-90095908D01*
X165912671Y-90146202D01*
X165912664Y-90146206D01*
X165797455Y-90232452D01*
X165797452Y-90232455D01*
X165711206Y-90347664D01*
X165711203Y-90347669D01*
X165662189Y-90479083D01*
X165620317Y-90535016D01*
X165554853Y-90559433D01*
X165486580Y-90544581D01*
X165458326Y-90523430D01*
X165344786Y-90409890D01*
X165172820Y-90284951D01*
X164983414Y-90188444D01*
X164983413Y-90188443D01*
X164983412Y-90188443D01*
X164781243Y-90122754D01*
X164781241Y-90122753D01*
X164781240Y-90122753D01*
X164619957Y-90097208D01*
X164571287Y-90089500D01*
X164358713Y-90089500D01*
X164310042Y-90097208D01*
X164148760Y-90122753D01*
X163946585Y-90188444D01*
X163757179Y-90284951D01*
X163585213Y-90409890D01*
X163434890Y-90560213D01*
X163309949Y-90732182D01*
X163305484Y-90740946D01*
X163257509Y-90791742D01*
X163189688Y-90808536D01*
X163123553Y-90785998D01*
X163084516Y-90740946D01*
X163080050Y-90732182D01*
X162955109Y-90560213D01*
X162804786Y-90409890D01*
X162632820Y-90284951D01*
X162443414Y-90188444D01*
X162443413Y-90188443D01*
X162443412Y-90188443D01*
X162241243Y-90122754D01*
X162241241Y-90122753D01*
X162241240Y-90122753D01*
X162079957Y-90097208D01*
X162031287Y-90089500D01*
X161818713Y-90089500D01*
X161770042Y-90097208D01*
X161608760Y-90122753D01*
X161406585Y-90188444D01*
X161217179Y-90284951D01*
X161045213Y-90409890D01*
X160894890Y-90560213D01*
X160769949Y-90732182D01*
X160765484Y-90740946D01*
X160717509Y-90791742D01*
X160649688Y-90808536D01*
X160583553Y-90785998D01*
X160544516Y-90740946D01*
X160540050Y-90732182D01*
X160415109Y-90560213D01*
X160264786Y-90409890D01*
X160092820Y-90284951D01*
X159903414Y-90188444D01*
X159903413Y-90188443D01*
X159903412Y-90188443D01*
X159701243Y-90122754D01*
X159701241Y-90122753D01*
X159701240Y-90122753D01*
X159539957Y-90097208D01*
X159491287Y-90089500D01*
X159278713Y-90089500D01*
X159230042Y-90097208D01*
X159068760Y-90122753D01*
X158866585Y-90188444D01*
X158677179Y-90284951D01*
X158505213Y-90409890D01*
X158354890Y-90560213D01*
X158229949Y-90732182D01*
X158225484Y-90740946D01*
X158177509Y-90791742D01*
X158109688Y-90808536D01*
X158043553Y-90785998D01*
X158004516Y-90740946D01*
X158000050Y-90732182D01*
X157875109Y-90560213D01*
X157724786Y-90409890D01*
X157552820Y-90284951D01*
X157363414Y-90188444D01*
X157363413Y-90188443D01*
X157363412Y-90188443D01*
X157161243Y-90122754D01*
X157161241Y-90122753D01*
X157161240Y-90122753D01*
X156999957Y-90097208D01*
X156951287Y-90089500D01*
X156738713Y-90089500D01*
X156690042Y-90097208D01*
X156528760Y-90122753D01*
X156326585Y-90188444D01*
X156137179Y-90284951D01*
X155965213Y-90409890D01*
X155814890Y-90560213D01*
X155689951Y-90732179D01*
X155593444Y-90921585D01*
X155527753Y-91123760D01*
X155525899Y-91135466D01*
X155494500Y-91333713D01*
X153699877Y-91333713D01*
X153668477Y-91135466D01*
X153664673Y-91123760D01*
X153639127Y-91045137D01*
X153605220Y-90940781D01*
X153605218Y-90940778D01*
X153605218Y-90940776D01*
X153571503Y-90874607D01*
X153512287Y-90758390D01*
X153499613Y-90740946D01*
X153391971Y-90592786D01*
X153247213Y-90448028D01*
X153081613Y-90327715D01*
X153081612Y-90327714D01*
X153081610Y-90327713D01*
X152997681Y-90284949D01*
X152899223Y-90234781D01*
X152704534Y-90171522D01*
X152529995Y-90143878D01*
X152502352Y-90139500D01*
X152297648Y-90139500D01*
X152273329Y-90143351D01*
X152095465Y-90171522D01*
X151900776Y-90234781D01*
X151718386Y-90327715D01*
X151552786Y-90448028D01*
X151408028Y-90592786D01*
X151287715Y-90758386D01*
X151194781Y-90940776D01*
X151131522Y-91135465D01*
X151099500Y-91337648D01*
X142387238Y-91337648D01*
X139625819Y-88576229D01*
X139592334Y-88514906D01*
X139589500Y-88488548D01*
X139589500Y-80873713D01*
X147429500Y-80873713D01*
X147429500Y-81086287D01*
X147462754Y-81296243D01*
X147508761Y-81437838D01*
X147528444Y-81498414D01*
X147624951Y-81687820D01*
X147749890Y-81859786D01*
X147900213Y-82010109D01*
X148072182Y-82135050D01*
X148080946Y-82139516D01*
X148131742Y-82187491D01*
X148148536Y-82255312D01*
X148125998Y-82321447D01*
X148080946Y-82360484D01*
X148072182Y-82364949D01*
X147900213Y-82489890D01*
X147749890Y-82640213D01*
X147624951Y-82812179D01*
X147528444Y-83001585D01*
X147462753Y-83203760D01*
X147444220Y-83320776D01*
X147429500Y-83413713D01*
X147429500Y-83626287D01*
X147462754Y-83836243D01*
X147490732Y-83922351D01*
X147528444Y-84038414D01*
X147624951Y-84227820D01*
X147749890Y-84399786D01*
X147900213Y-84550109D01*
X148072182Y-84675050D01*
X148080946Y-84679516D01*
X148131742Y-84727491D01*
X148148536Y-84795312D01*
X148125998Y-84861447D01*
X148080946Y-84900484D01*
X148072182Y-84904949D01*
X147900213Y-85029890D01*
X147749890Y-85180213D01*
X147624951Y-85352179D01*
X147528444Y-85541585D01*
X147462753Y-85743760D01*
X147429500Y-85953713D01*
X147429500Y-86166286D01*
X147462753Y-86376239D01*
X147528444Y-86578414D01*
X147624951Y-86767820D01*
X147749890Y-86939786D01*
X147900213Y-87090109D01*
X148072182Y-87215050D01*
X148080946Y-87219516D01*
X148131742Y-87267491D01*
X148148536Y-87335312D01*
X148125998Y-87401447D01*
X148080946Y-87440484D01*
X148072182Y-87444949D01*
X147900213Y-87569890D01*
X147749890Y-87720213D01*
X147624951Y-87892179D01*
X147528444Y-88081585D01*
X147462753Y-88283760D01*
X147443863Y-88403028D01*
X147429500Y-88493713D01*
X147429500Y-88706287D01*
X147462754Y-88916243D01*
X147519362Y-89090465D01*
X147528444Y-89118414D01*
X147624951Y-89307820D01*
X147749890Y-89479786D01*
X147900213Y-89630109D01*
X148072179Y-89755048D01*
X148072181Y-89755049D01*
X148072184Y-89755051D01*
X148261588Y-89851557D01*
X148463757Y-89917246D01*
X148673713Y-89950500D01*
X148673714Y-89950500D01*
X148886286Y-89950500D01*
X148886287Y-89950500D01*
X149096243Y-89917246D01*
X149298412Y-89851557D01*
X149487816Y-89755051D01*
X149638673Y-89645448D01*
X149659786Y-89630109D01*
X149659788Y-89630106D01*
X149659792Y-89630104D01*
X149810104Y-89479792D01*
X149810106Y-89479788D01*
X149810109Y-89479786D01*
X149935048Y-89307820D01*
X149935047Y-89307820D01*
X149935051Y-89307816D01*
X150031557Y-89118412D01*
X150097246Y-88916243D01*
X150130500Y-88706287D01*
X150130500Y-88493713D01*
X150097246Y-88283757D01*
X150031557Y-88081588D01*
X149935051Y-87892184D01*
X149935049Y-87892181D01*
X149935048Y-87892179D01*
X149810109Y-87720213D01*
X149659786Y-87569890D01*
X149487820Y-87444951D01*
X149487115Y-87444591D01*
X149479054Y-87440485D01*
X149428259Y-87392512D01*
X149411463Y-87324692D01*
X149433999Y-87258556D01*
X149479054Y-87219515D01*
X149487816Y-87215051D01*
X149548569Y-87170912D01*
X149659786Y-87090109D01*
X149659788Y-87090106D01*
X149659792Y-87090104D01*
X149810104Y-86939792D01*
X149810106Y-86939788D01*
X149810109Y-86939786D01*
X149935048Y-86767820D01*
X149935047Y-86767820D01*
X149935051Y-86767816D01*
X150031557Y-86578412D01*
X150097246Y-86376243D01*
X150130500Y-86166287D01*
X150130500Y-85953713D01*
X150097246Y-85743757D01*
X150031557Y-85541588D01*
X149935051Y-85352184D01*
X149935049Y-85352181D01*
X149935048Y-85352179D01*
X149810109Y-85180213D01*
X149659786Y-85029890D01*
X149487820Y-84904951D01*
X149487115Y-84904591D01*
X149479054Y-84900485D01*
X149428259Y-84852512D01*
X149411463Y-84784692D01*
X149433999Y-84718556D01*
X149479054Y-84679515D01*
X149487816Y-84675051D01*
X149638673Y-84565448D01*
X149659786Y-84550109D01*
X149659788Y-84550106D01*
X149659792Y-84550104D01*
X149810104Y-84399792D01*
X149810106Y-84399788D01*
X149810109Y-84399786D01*
X149935048Y-84227820D01*
X149935047Y-84227820D01*
X149935051Y-84227816D01*
X150031557Y-84038412D01*
X150097246Y-83836243D01*
X150116030Y-83717648D01*
X151099500Y-83717648D01*
X151099500Y-83922351D01*
X151131522Y-84124534D01*
X151194781Y-84319223D01*
X151287715Y-84501613D01*
X151408028Y-84667213D01*
X151552786Y-84811971D01*
X151674619Y-84900486D01*
X151718390Y-84932287D01*
X151834607Y-84991503D01*
X151900776Y-85025218D01*
X151900778Y-85025218D01*
X151900781Y-85025220D01*
X151927665Y-85033955D01*
X152095465Y-85088477D01*
X152196557Y-85104488D01*
X152297648Y-85120500D01*
X152297649Y-85120500D01*
X152502351Y-85120500D01*
X152502352Y-85120500D01*
X152704534Y-85088477D01*
X152899219Y-85025220D01*
X153081610Y-84932287D01*
X153191412Y-84852512D01*
X153247213Y-84811971D01*
X153247215Y-84811968D01*
X153247219Y-84811966D01*
X153391966Y-84667219D01*
X153391968Y-84667215D01*
X153391971Y-84667213D01*
X153465906Y-84565448D01*
X153512287Y-84501610D01*
X153605220Y-84319219D01*
X153668477Y-84124534D01*
X153700500Y-83922352D01*
X153700500Y-83717648D01*
X153686030Y-83626287D01*
X153668477Y-83515465D01*
X153605218Y-83320776D01*
X153571503Y-83254607D01*
X153512287Y-83138390D01*
X153504556Y-83127749D01*
X153391971Y-82972786D01*
X153247213Y-82828028D01*
X153081613Y-82707715D01*
X153081612Y-82707714D01*
X153081610Y-82707713D01*
X153024653Y-82678691D01*
X152899223Y-82614781D01*
X152704534Y-82551522D01*
X152529995Y-82523878D01*
X152502352Y-82519500D01*
X152297648Y-82519500D01*
X152273329Y-82523351D01*
X152095465Y-82551522D01*
X151900776Y-82614781D01*
X151718386Y-82707715D01*
X151552786Y-82828028D01*
X151408028Y-82972786D01*
X151287715Y-83138386D01*
X151194781Y-83320776D01*
X151131522Y-83515465D01*
X151099500Y-83717648D01*
X150116030Y-83717648D01*
X150130500Y-83626287D01*
X150130500Y-83413713D01*
X150097246Y-83203757D01*
X150031557Y-83001588D01*
X149935051Y-82812184D01*
X149935049Y-82812181D01*
X149935048Y-82812179D01*
X149810109Y-82640213D01*
X149659786Y-82489890D01*
X149487820Y-82364951D01*
X149487115Y-82364591D01*
X149479054Y-82360485D01*
X149428259Y-82312512D01*
X149411463Y-82244692D01*
X149433999Y-82178556D01*
X149479054Y-82139515D01*
X149487816Y-82135051D01*
X149509789Y-82119086D01*
X149659786Y-82010109D01*
X149659788Y-82010106D01*
X149659792Y-82010104D01*
X149810104Y-81859792D01*
X149810106Y-81859788D01*
X149810109Y-81859786D01*
X149935048Y-81687820D01*
X149935047Y-81687820D01*
X149935051Y-81687816D01*
X150031557Y-81498412D01*
X150097246Y-81296243D01*
X150130500Y-81086287D01*
X150130500Y-80873713D01*
X150097246Y-80663757D01*
X150057895Y-80542648D01*
X151099500Y-80542648D01*
X151099500Y-80747351D01*
X151131522Y-80949534D01*
X151194781Y-81144223D01*
X151258691Y-81269653D01*
X151280186Y-81311838D01*
X151287715Y-81326613D01*
X151408028Y-81492213D01*
X151552786Y-81636971D01*
X151707749Y-81749556D01*
X151718390Y-81757287D01*
X151834607Y-81816503D01*
X151900776Y-81850218D01*
X151900778Y-81850218D01*
X151900781Y-81850220D01*
X151930241Y-81859792D01*
X152095465Y-81913477D01*
X152196557Y-81929488D01*
X152297648Y-81945500D01*
X152297649Y-81945500D01*
X152502351Y-81945500D01*
X152502352Y-81945500D01*
X152704534Y-81913477D01*
X152899219Y-81850220D01*
X153081610Y-81757287D01*
X153177229Y-81687816D01*
X153247213Y-81636971D01*
X153247215Y-81636968D01*
X153247219Y-81636966D01*
X153391966Y-81492219D01*
X153391968Y-81492215D01*
X153391971Y-81492213D01*
X153476029Y-81376515D01*
X153512287Y-81326610D01*
X153605220Y-81144219D01*
X153668477Y-80949534D01*
X153700500Y-80747352D01*
X153700500Y-80542648D01*
X153668477Y-80340466D01*
X153605220Y-80145781D01*
X153605218Y-80145778D01*
X153605218Y-80145776D01*
X153571503Y-80079607D01*
X153512287Y-79963390D01*
X153502479Y-79949890D01*
X153391971Y-79797786D01*
X153247213Y-79653028D01*
X153081613Y-79532715D01*
X153081612Y-79532714D01*
X153081610Y-79532713D01*
X153024653Y-79503691D01*
X152899223Y-79439781D01*
X152704534Y-79376522D01*
X152529995Y-79348878D01*
X152502352Y-79344500D01*
X152297648Y-79344500D01*
X152273329Y-79348351D01*
X152095465Y-79376522D01*
X151900776Y-79439781D01*
X151718386Y-79532715D01*
X151552786Y-79653028D01*
X151408028Y-79797786D01*
X151287715Y-79963386D01*
X151194781Y-80145776D01*
X151131522Y-80340465D01*
X151099500Y-80542648D01*
X150057895Y-80542648D01*
X150031557Y-80461588D01*
X149935051Y-80272184D01*
X149935049Y-80272181D01*
X149935048Y-80272179D01*
X149810109Y-80100213D01*
X149659786Y-79949890D01*
X149487820Y-79824951D01*
X149298414Y-79728444D01*
X149298413Y-79728443D01*
X149298412Y-79728443D01*
X149096243Y-79662754D01*
X149096241Y-79662753D01*
X149096240Y-79662753D01*
X148934957Y-79637208D01*
X148886287Y-79629500D01*
X148673713Y-79629500D01*
X148625042Y-79637208D01*
X148463760Y-79662753D01*
X148261585Y-79728444D01*
X148072179Y-79824951D01*
X147900213Y-79949890D01*
X147749890Y-80100213D01*
X147624951Y-80272179D01*
X147528444Y-80461585D01*
X147462753Y-80663760D01*
X147444879Y-80776613D01*
X147429500Y-80873713D01*
X139589500Y-80873713D01*
X139589500Y-74132393D01*
X139589499Y-74132389D01*
X139576655Y-74067816D01*
X139565463Y-74011548D01*
X139536705Y-73942120D01*
X139518312Y-73897714D01*
X139468397Y-73823013D01*
X139449858Y-73795267D01*
X139449855Y-73795264D01*
X139449853Y-73795261D01*
X139359637Y-73705045D01*
X139359606Y-73705016D01*
X133828303Y-68173713D01*
X147429500Y-68173713D01*
X147429500Y-68386287D01*
X147431192Y-68396971D01*
X147460104Y-68579515D01*
X147462754Y-68596243D01*
X147523325Y-68782661D01*
X147528444Y-68798414D01*
X147624951Y-68987820D01*
X147749890Y-69159786D01*
X147900213Y-69310109D01*
X148072182Y-69435050D01*
X148080946Y-69439516D01*
X148131742Y-69487491D01*
X148148536Y-69555312D01*
X148125998Y-69621447D01*
X148080946Y-69660484D01*
X148072182Y-69664949D01*
X147900213Y-69789890D01*
X147749890Y-69940213D01*
X147624951Y-70112179D01*
X147528444Y-70301585D01*
X147462753Y-70503760D01*
X147429500Y-70713713D01*
X147429500Y-70926286D01*
X147454999Y-71087284D01*
X147462754Y-71136243D01*
X147508046Y-71275638D01*
X147528444Y-71338414D01*
X147624951Y-71527820D01*
X147749890Y-71699786D01*
X147900213Y-71850109D01*
X148072182Y-71975050D01*
X148080946Y-71979516D01*
X148131742Y-72027491D01*
X148148536Y-72095312D01*
X148125998Y-72161447D01*
X148080946Y-72200484D01*
X148072182Y-72204949D01*
X147900213Y-72329890D01*
X147749890Y-72480213D01*
X147624951Y-72652179D01*
X147528444Y-72841585D01*
X147462753Y-73043760D01*
X147429500Y-73253713D01*
X147429500Y-73466287D01*
X147462754Y-73676243D01*
X147501427Y-73795267D01*
X147528444Y-73878414D01*
X147624951Y-74067820D01*
X147749890Y-74239786D01*
X147900213Y-74390109D01*
X148072182Y-74515050D01*
X148080946Y-74519516D01*
X148131742Y-74567491D01*
X148148536Y-74635312D01*
X148125998Y-74701447D01*
X148080946Y-74740484D01*
X148072182Y-74744949D01*
X147900213Y-74869890D01*
X147749890Y-75020213D01*
X147624951Y-75192179D01*
X147528444Y-75381585D01*
X147462753Y-75583760D01*
X147429500Y-75793713D01*
X147429500Y-76006286D01*
X147457949Y-76185909D01*
X147462754Y-76216243D01*
X147519140Y-76389781D01*
X147528444Y-76418414D01*
X147624951Y-76607820D01*
X147749890Y-76779786D01*
X147900213Y-76930109D01*
X148072179Y-77055048D01*
X148072181Y-77055049D01*
X148072184Y-77055051D01*
X148261588Y-77151557D01*
X148463757Y-77217246D01*
X148673713Y-77250500D01*
X148673714Y-77250500D01*
X148886286Y-77250500D01*
X148886287Y-77250500D01*
X149096243Y-77217246D01*
X149298412Y-77151557D01*
X149487816Y-77055051D01*
X149509789Y-77039086D01*
X149659786Y-76930109D01*
X149659788Y-76930106D01*
X149659792Y-76930104D01*
X149810104Y-76779792D01*
X149810106Y-76779788D01*
X149810109Y-76779786D01*
X149935048Y-76607820D01*
X149935047Y-76607820D01*
X149935051Y-76607816D01*
X150031557Y-76418412D01*
X150097246Y-76216243D01*
X150130500Y-76006287D01*
X150130500Y-75793713D01*
X150097246Y-75583757D01*
X150031557Y-75381588D01*
X149935051Y-75192184D01*
X149935049Y-75192181D01*
X149935048Y-75192179D01*
X149810109Y-75020213D01*
X149659786Y-74869890D01*
X149487820Y-74744951D01*
X149487115Y-74744591D01*
X149479054Y-74740485D01*
X149428259Y-74692512D01*
X149411463Y-74624692D01*
X149433999Y-74558556D01*
X149479054Y-74519515D01*
X149487816Y-74515051D01*
X149509789Y-74499086D01*
X149659786Y-74390109D01*
X149659788Y-74390106D01*
X149659792Y-74390104D01*
X149810104Y-74239792D01*
X149810106Y-74239788D01*
X149810109Y-74239786D01*
X149935048Y-74067820D01*
X149935047Y-74067820D01*
X149935051Y-74067816D01*
X150031557Y-73878412D01*
X150097246Y-73676243D01*
X150130500Y-73466287D01*
X150130500Y-73253713D01*
X150097246Y-73043757D01*
X150057895Y-72922648D01*
X151099500Y-72922648D01*
X151099500Y-73127351D01*
X151131522Y-73329534D01*
X151194781Y-73524223D01*
X151287715Y-73706613D01*
X151408028Y-73872213D01*
X151552786Y-74016971D01*
X151707749Y-74129556D01*
X151718390Y-74137287D01*
X151834607Y-74196503D01*
X151900776Y-74230218D01*
X151900778Y-74230218D01*
X151900781Y-74230220D01*
X151930241Y-74239792D01*
X152095465Y-74293477D01*
X152196557Y-74309488D01*
X152297648Y-74325500D01*
X152297649Y-74325500D01*
X152502351Y-74325500D01*
X152502352Y-74325500D01*
X152704534Y-74293477D01*
X152899219Y-74230220D01*
X153081610Y-74137287D01*
X153177229Y-74067816D01*
X153247213Y-74016971D01*
X153247215Y-74016968D01*
X153247219Y-74016966D01*
X153391966Y-73872219D01*
X153391968Y-73872215D01*
X153391971Y-73872213D01*
X153447879Y-73795261D01*
X153512287Y-73706610D01*
X153605220Y-73524219D01*
X153668477Y-73329534D01*
X153700500Y-73127352D01*
X153700500Y-72922648D01*
X153668477Y-72720466D01*
X153668471Y-72720449D01*
X153615112Y-72556226D01*
X153605220Y-72525781D01*
X153605218Y-72525778D01*
X153605218Y-72525776D01*
X153571503Y-72459607D01*
X153512287Y-72343390D01*
X153502479Y-72329890D01*
X153391971Y-72177786D01*
X153247213Y-72033028D01*
X153081613Y-71912715D01*
X153081612Y-71912714D01*
X153081610Y-71912713D01*
X153024653Y-71883691D01*
X152899223Y-71819781D01*
X152704534Y-71756522D01*
X152529995Y-71728878D01*
X152502352Y-71724500D01*
X152297648Y-71724500D01*
X152273329Y-71728351D01*
X152095465Y-71756522D01*
X151900776Y-71819781D01*
X151718386Y-71912715D01*
X151552786Y-72033028D01*
X151408028Y-72177786D01*
X151287715Y-72343386D01*
X151194781Y-72525776D01*
X151131522Y-72720465D01*
X151099500Y-72922648D01*
X150057895Y-72922648D01*
X150031557Y-72841588D01*
X149935051Y-72652184D01*
X149935049Y-72652181D01*
X149935048Y-72652179D01*
X149810109Y-72480213D01*
X149659786Y-72329890D01*
X149487820Y-72204951D01*
X149487115Y-72204591D01*
X149479054Y-72200485D01*
X149428259Y-72152512D01*
X149411463Y-72084692D01*
X149433999Y-72018556D01*
X149479054Y-71979515D01*
X149487816Y-71975051D01*
X149509789Y-71959086D01*
X149659786Y-71850109D01*
X149659788Y-71850106D01*
X149659792Y-71850104D01*
X149810104Y-71699792D01*
X149810106Y-71699788D01*
X149810109Y-71699786D01*
X149935048Y-71527820D01*
X149935049Y-71527819D01*
X149935051Y-71527816D01*
X150031557Y-71338412D01*
X150097246Y-71136243D01*
X150130500Y-70926287D01*
X150130500Y-70713713D01*
X150097246Y-70503757D01*
X150031557Y-70301588D01*
X149935051Y-70112184D01*
X149935049Y-70112181D01*
X149935048Y-70112179D01*
X149810109Y-69940213D01*
X149659786Y-69789890D01*
X149487820Y-69664951D01*
X149487115Y-69664591D01*
X149479054Y-69660485D01*
X149428259Y-69612512D01*
X149411463Y-69544692D01*
X149433999Y-69478556D01*
X149479054Y-69439515D01*
X149487816Y-69435051D01*
X149509789Y-69419086D01*
X149659786Y-69310109D01*
X149659788Y-69310106D01*
X149659792Y-69310104D01*
X149810104Y-69159792D01*
X149810106Y-69159788D01*
X149810109Y-69159786D01*
X149935048Y-68987820D01*
X149935047Y-68987820D01*
X149935051Y-68987816D01*
X150031557Y-68798412D01*
X150097246Y-68596243D01*
X150130500Y-68386287D01*
X150130500Y-68173713D01*
X150097246Y-67963757D01*
X150031557Y-67761588D01*
X149935051Y-67572184D01*
X149935049Y-67572181D01*
X149935048Y-67572179D01*
X149810109Y-67400213D01*
X149659786Y-67249890D01*
X149487820Y-67124951D01*
X149298414Y-67028444D01*
X149298413Y-67028443D01*
X149298412Y-67028443D01*
X149096243Y-66962754D01*
X149096241Y-66962753D01*
X149096240Y-66962753D01*
X148922502Y-66935236D01*
X148886287Y-66929500D01*
X148673713Y-66929500D01*
X148637498Y-66935236D01*
X148463760Y-66962753D01*
X148261585Y-67028444D01*
X148072179Y-67124951D01*
X147900213Y-67249890D01*
X147749890Y-67400213D01*
X147624951Y-67572179D01*
X147528444Y-67761585D01*
X147462753Y-67963760D01*
X147443296Y-68086610D01*
X147429500Y-68173713D01*
X133828303Y-68173713D01*
X133739819Y-68085229D01*
X133706334Y-68023906D01*
X133703500Y-67997548D01*
X133703500Y-60136396D01*
X133703500Y-60136394D01*
X133701415Y-60125914D01*
X133701415Y-60125910D01*
X133688785Y-60062416D01*
X133679463Y-60015549D01*
X133632312Y-59901715D01*
X133632311Y-59901713D01*
X133632310Y-59901711D01*
X133596420Y-59847999D01*
X133596420Y-59848000D01*
X133563858Y-59799267D01*
X133563855Y-59799264D01*
X133563853Y-59799261D01*
X133473637Y-59709045D01*
X133473606Y-59709016D01*
X132342428Y-58577838D01*
X132308943Y-58516515D01*
X132312177Y-58451841D01*
X132317246Y-58436243D01*
X132350500Y-58226287D01*
X132350500Y-58013713D01*
X132317246Y-57803757D01*
X132251557Y-57601588D01*
X132155051Y-57412184D01*
X132155049Y-57412181D01*
X132155048Y-57412179D01*
X132030109Y-57240213D01*
X131879786Y-57089890D01*
X131707820Y-56964951D01*
X131707115Y-56964591D01*
X131699054Y-56960485D01*
X131648259Y-56912512D01*
X131631463Y-56844692D01*
X131653999Y-56778556D01*
X131699054Y-56739515D01*
X131707816Y-56735051D01*
X131746034Y-56707284D01*
X131879786Y-56610109D01*
X131879788Y-56610106D01*
X131879792Y-56610104D01*
X132030104Y-56459792D01*
X132030106Y-56459788D01*
X132030109Y-56459786D01*
X132155048Y-56287820D01*
X132155047Y-56287820D01*
X132155051Y-56287816D01*
X132251557Y-56098412D01*
X132317246Y-55896243D01*
X132350500Y-55686287D01*
X132350500Y-55473713D01*
X147429500Y-55473713D01*
X147429500Y-55686287D01*
X147462754Y-55896243D01*
X147497246Y-56002399D01*
X147528444Y-56098414D01*
X147624951Y-56287820D01*
X147749890Y-56459786D01*
X147900213Y-56610109D01*
X148072182Y-56735050D01*
X148080946Y-56739516D01*
X148131742Y-56787491D01*
X148148536Y-56855312D01*
X148125998Y-56921447D01*
X148080946Y-56960484D01*
X148072182Y-56964949D01*
X147900213Y-57089890D01*
X147749890Y-57240213D01*
X147624951Y-57412179D01*
X147528444Y-57601585D01*
X147462753Y-57803760D01*
X147452986Y-57865427D01*
X147429500Y-58013713D01*
X147429500Y-58226287D01*
X147462754Y-58436243D01*
X147509392Y-58579780D01*
X147528444Y-58638414D01*
X147624951Y-58827820D01*
X147749890Y-58999786D01*
X147900213Y-59150109D01*
X148072182Y-59275050D01*
X148080946Y-59279516D01*
X148131742Y-59327491D01*
X148148536Y-59395312D01*
X148125998Y-59461447D01*
X148080946Y-59500484D01*
X148072182Y-59504949D01*
X147900213Y-59629890D01*
X147749890Y-59780213D01*
X147624951Y-59952179D01*
X147528444Y-60141585D01*
X147462753Y-60343760D01*
X147436025Y-60512516D01*
X147429500Y-60553713D01*
X147429500Y-60766287D01*
X147431192Y-60776971D01*
X147450248Y-60897287D01*
X147462754Y-60976243D01*
X147467295Y-60990220D01*
X147528444Y-61178414D01*
X147624951Y-61367820D01*
X147749890Y-61539786D01*
X147900213Y-61690109D01*
X148072182Y-61815050D01*
X148080946Y-61819516D01*
X148131742Y-61867491D01*
X148148536Y-61935312D01*
X148125998Y-62001447D01*
X148080946Y-62040484D01*
X148072182Y-62044949D01*
X147900213Y-62169890D01*
X147749890Y-62320213D01*
X147624951Y-62492179D01*
X147528444Y-62681585D01*
X147462753Y-62883760D01*
X147429500Y-63093713D01*
X147429500Y-63306286D01*
X147462753Y-63516239D01*
X147528444Y-63718414D01*
X147624951Y-63907820D01*
X147749890Y-64079786D01*
X147900213Y-64230109D01*
X148072179Y-64355048D01*
X148072181Y-64355049D01*
X148072184Y-64355051D01*
X148261588Y-64451557D01*
X148463757Y-64517246D01*
X148673713Y-64550500D01*
X148673714Y-64550500D01*
X148886286Y-64550500D01*
X148886287Y-64550500D01*
X149096243Y-64517246D01*
X149298412Y-64451557D01*
X149487816Y-64355051D01*
X149509789Y-64339086D01*
X149659786Y-64230109D01*
X149659788Y-64230106D01*
X149659792Y-64230104D01*
X149810104Y-64079792D01*
X149810106Y-64079788D01*
X149810109Y-64079786D01*
X149935048Y-63907820D01*
X149935047Y-63907820D01*
X149935051Y-63907816D01*
X150031557Y-63718412D01*
X150097246Y-63516243D01*
X150130500Y-63306287D01*
X150130500Y-63093713D01*
X150097246Y-62883757D01*
X150031557Y-62681588D01*
X149935051Y-62492184D01*
X149935049Y-62492181D01*
X149935048Y-62492179D01*
X149810109Y-62320213D01*
X149659786Y-62169890D01*
X149487820Y-62044951D01*
X149487115Y-62044591D01*
X149479054Y-62040485D01*
X149428259Y-61992512D01*
X149411463Y-61924692D01*
X149433999Y-61858556D01*
X149479054Y-61819515D01*
X149487816Y-61815051D01*
X149570346Y-61755090D01*
X149659786Y-61690109D01*
X149659788Y-61690106D01*
X149659792Y-61690104D01*
X149810104Y-61539792D01*
X149810106Y-61539788D01*
X149810109Y-61539786D01*
X149935048Y-61367820D01*
X149935047Y-61367820D01*
X149935051Y-61367816D01*
X150031557Y-61178412D01*
X150097246Y-60976243D01*
X150130500Y-60766287D01*
X150130500Y-60553713D01*
X150097246Y-60343757D01*
X150031557Y-60141588D01*
X149935051Y-59952184D01*
X149935049Y-59952181D01*
X149935048Y-59952179D01*
X149810109Y-59780213D01*
X149659786Y-59629890D01*
X149487820Y-59504951D01*
X149487115Y-59504591D01*
X149479054Y-59500485D01*
X149428259Y-59452512D01*
X149411463Y-59384692D01*
X149433999Y-59318556D01*
X149479054Y-59279515D01*
X149487816Y-59275051D01*
X149509789Y-59259086D01*
X149659786Y-59150109D01*
X149659788Y-59150106D01*
X149659792Y-59150104D01*
X149810104Y-58999792D01*
X149810106Y-58999788D01*
X149810109Y-58999786D01*
X149935048Y-58827820D01*
X149935047Y-58827820D01*
X149935051Y-58827816D01*
X150031557Y-58638412D01*
X150059305Y-58553013D01*
X154690750Y-58553013D01*
X154690750Y-58741986D01*
X154720309Y-58928618D01*
X154778704Y-59108336D01*
X154799989Y-59150109D01*
X154864490Y-59276699D01*
X154975560Y-59429573D01*
X155109177Y-59563190D01*
X155262051Y-59674260D01*
X155330264Y-59709016D01*
X155430413Y-59760045D01*
X155430415Y-59760045D01*
X155430418Y-59760047D01*
X155526747Y-59791346D01*
X155610131Y-59818440D01*
X155796764Y-59848000D01*
X155796769Y-59848000D01*
X155985736Y-59848000D01*
X156172368Y-59818440D01*
X156352082Y-59760047D01*
X156520449Y-59674260D01*
X156673323Y-59563190D01*
X156806940Y-59429573D01*
X156918010Y-59276699D01*
X157003797Y-59108332D01*
X157062190Y-58928618D01*
X157078155Y-58827820D01*
X157091750Y-58741986D01*
X157091750Y-58553013D01*
X157062190Y-58366381D01*
X157003795Y-58186663D01*
X156918009Y-58018300D01*
X156806940Y-57865427D01*
X156673323Y-57731810D01*
X156520449Y-57620740D01*
X156482861Y-57601588D01*
X156352086Y-57534954D01*
X156172368Y-57476559D01*
X155985736Y-57447000D01*
X155985731Y-57447000D01*
X155796769Y-57447000D01*
X155796764Y-57447000D01*
X155610131Y-57476559D01*
X155430413Y-57534954D01*
X155262050Y-57620740D01*
X155174829Y-57684110D01*
X155109177Y-57731810D01*
X155109175Y-57731812D01*
X155109174Y-57731812D01*
X154975562Y-57865424D01*
X154975562Y-57865425D01*
X154975560Y-57865427D01*
X154927860Y-57931079D01*
X154864490Y-58018300D01*
X154778704Y-58186663D01*
X154720309Y-58366381D01*
X154690750Y-58553013D01*
X150059305Y-58553013D01*
X150097246Y-58436243D01*
X150130500Y-58226287D01*
X150130500Y-58013713D01*
X150097246Y-57803757D01*
X150031557Y-57601588D01*
X149935051Y-57412184D01*
X149935049Y-57412181D01*
X149935048Y-57412179D01*
X149810109Y-57240213D01*
X149659786Y-57089890D01*
X149487820Y-56964951D01*
X149487115Y-56964591D01*
X149479054Y-56960485D01*
X149428259Y-56912512D01*
X149411463Y-56844692D01*
X149433999Y-56778556D01*
X149479054Y-56739515D01*
X149487816Y-56735051D01*
X149526034Y-56707284D01*
X149659786Y-56610109D01*
X149659788Y-56610106D01*
X149659792Y-56610104D01*
X149810104Y-56459792D01*
X149810106Y-56459788D01*
X149810109Y-56459786D01*
X149935048Y-56287820D01*
X149935047Y-56287820D01*
X149935051Y-56287816D01*
X150031557Y-56098412D01*
X150097246Y-55896243D01*
X150130500Y-55686287D01*
X150130500Y-55473713D01*
X150097246Y-55263757D01*
X150031557Y-55061588D01*
X149935051Y-54872184D01*
X149935049Y-54872181D01*
X149935048Y-54872179D01*
X149810109Y-54700213D01*
X149659786Y-54549890D01*
X149487820Y-54424951D01*
X149298414Y-54328444D01*
X149298413Y-54328443D01*
X149298412Y-54328443D01*
X149096243Y-54262754D01*
X149096241Y-54262753D01*
X149096240Y-54262753D01*
X148934957Y-54237208D01*
X148886287Y-54229500D01*
X148673713Y-54229500D01*
X148625042Y-54237208D01*
X148463760Y-54262753D01*
X148261585Y-54328444D01*
X148072179Y-54424951D01*
X147900213Y-54549890D01*
X147749890Y-54700213D01*
X147624951Y-54872179D01*
X147528444Y-55061585D01*
X147462753Y-55263760D01*
X147429500Y-55473713D01*
X132350500Y-55473713D01*
X132317246Y-55263757D01*
X132251557Y-55061588D01*
X132155051Y-54872184D01*
X132155049Y-54872181D01*
X132155048Y-54872179D01*
X132030109Y-54700213D01*
X131879786Y-54549890D01*
X131707820Y-54424951D01*
X131518414Y-54328444D01*
X131518413Y-54328443D01*
X131518412Y-54328443D01*
X131316243Y-54262754D01*
X131316241Y-54262753D01*
X131316240Y-54262753D01*
X131154957Y-54237208D01*
X131106287Y-54229500D01*
X130893713Y-54229500D01*
X130845042Y-54237208D01*
X130683760Y-54262753D01*
X130481585Y-54328444D01*
X130292179Y-54424951D01*
X130120213Y-54549890D01*
X129969890Y-54700213D01*
X129844951Y-54872179D01*
X129748444Y-55061585D01*
X129682753Y-55263760D01*
X129649500Y-55473713D01*
X124370877Y-55473713D01*
X129437819Y-50406771D01*
X129499142Y-50373286D01*
X129568834Y-50378270D01*
X129624767Y-50420142D01*
X129649184Y-50485606D01*
X129649500Y-50494452D01*
X129649500Y-50606287D01*
X129682754Y-50816243D01*
X129736844Y-50982715D01*
X129748444Y-51018414D01*
X129844951Y-51207820D01*
X129969890Y-51379786D01*
X130120213Y-51530109D01*
X130292179Y-51655048D01*
X130292181Y-51655049D01*
X130292184Y-51655051D01*
X130481588Y-51751557D01*
X130683757Y-51817246D01*
X130893713Y-51850500D01*
X130893714Y-51850500D01*
X131106286Y-51850500D01*
X131106287Y-51850500D01*
X131316243Y-51817246D01*
X131518412Y-51751557D01*
X131707816Y-51655051D01*
X131789402Y-51595776D01*
X131879786Y-51530109D01*
X131879788Y-51530106D01*
X131879792Y-51530104D01*
X132030104Y-51379792D01*
X132030106Y-51379788D01*
X132030109Y-51379786D01*
X132155048Y-51207820D01*
X132155047Y-51207820D01*
X132155051Y-51207816D01*
X132251557Y-51018412D01*
X132317246Y-50816243D01*
X132350500Y-50606287D01*
X132350500Y-50393713D01*
X132317246Y-50183757D01*
X132312179Y-50168162D01*
X132310182Y-50098321D01*
X132342426Y-50042162D01*
X132574729Y-49809860D01*
X132574733Y-49809858D01*
X132661858Y-49722733D01*
X132696084Y-49671509D01*
X132730312Y-49620286D01*
X132777463Y-49506451D01*
X132801500Y-49385607D01*
X132801500Y-49262393D01*
X132801500Y-47853713D01*
X147429500Y-47853713D01*
X147429500Y-48066287D01*
X147462754Y-48276243D01*
X147467375Y-48290466D01*
X147528444Y-48478414D01*
X147624951Y-48667820D01*
X147749890Y-48839786D01*
X147900213Y-48990109D01*
X148072182Y-49115050D01*
X148080946Y-49119516D01*
X148131742Y-49167491D01*
X148148536Y-49235312D01*
X148125998Y-49301447D01*
X148080946Y-49340484D01*
X148072182Y-49344949D01*
X147900213Y-49469890D01*
X147749890Y-49620213D01*
X147624951Y-49792179D01*
X147528444Y-49981585D01*
X147462753Y-50183760D01*
X147432735Y-50373286D01*
X147429500Y-50393713D01*
X147429500Y-50606287D01*
X147462754Y-50816243D01*
X147516844Y-50982715D01*
X147528444Y-51018414D01*
X147624951Y-51207820D01*
X147749890Y-51379786D01*
X147900213Y-51530109D01*
X148072179Y-51655048D01*
X148072181Y-51655049D01*
X148072184Y-51655051D01*
X148261588Y-51751557D01*
X148463757Y-51817246D01*
X148673713Y-51850500D01*
X148673714Y-51850500D01*
X148886286Y-51850500D01*
X148886287Y-51850500D01*
X149096243Y-51817246D01*
X149298412Y-51751557D01*
X149487816Y-51655051D01*
X149569402Y-51595776D01*
X149659786Y-51530109D01*
X149659788Y-51530106D01*
X149659792Y-51530104D01*
X149810104Y-51379792D01*
X149810106Y-51379788D01*
X149810109Y-51379786D01*
X149935048Y-51207820D01*
X149935047Y-51207820D01*
X149935051Y-51207816D01*
X150031557Y-51018412D01*
X150097246Y-50816243D01*
X150130500Y-50606287D01*
X150130500Y-50393713D01*
X150097246Y-50183757D01*
X150031557Y-49981588D01*
X149935051Y-49792184D01*
X149935049Y-49792181D01*
X149935048Y-49792179D01*
X149810109Y-49620213D01*
X149659786Y-49469890D01*
X149487820Y-49344951D01*
X149487115Y-49344591D01*
X149479054Y-49340485D01*
X149428259Y-49292512D01*
X149411463Y-49224692D01*
X149433999Y-49158556D01*
X149479054Y-49119515D01*
X149487816Y-49115051D01*
X149509789Y-49099086D01*
X149659786Y-48990109D01*
X149659788Y-48990106D01*
X149659792Y-48990104D01*
X149810104Y-48839792D01*
X149810106Y-48839788D01*
X149810109Y-48839786D01*
X149935048Y-48667820D01*
X149935047Y-48667820D01*
X149935051Y-48667816D01*
X150031557Y-48478412D01*
X150097246Y-48276243D01*
X150130500Y-48066287D01*
X150130500Y-47853713D01*
X150097246Y-47643757D01*
X150031557Y-47441588D01*
X149935051Y-47252184D01*
X149935049Y-47252181D01*
X149935048Y-47252179D01*
X149810109Y-47080213D01*
X149659786Y-46929890D01*
X149487820Y-46804951D01*
X149298414Y-46708444D01*
X149298413Y-46708443D01*
X149298412Y-46708443D01*
X149096243Y-46642754D01*
X149096241Y-46642753D01*
X149096240Y-46642753D01*
X148934957Y-46617208D01*
X148886287Y-46609500D01*
X148673713Y-46609500D01*
X148625042Y-46617208D01*
X148463760Y-46642753D01*
X148261585Y-46708444D01*
X148072179Y-46804951D01*
X147900213Y-46929890D01*
X147749890Y-47080213D01*
X147624951Y-47252179D01*
X147528444Y-47441585D01*
X147462753Y-47643760D01*
X147446278Y-47747781D01*
X147429500Y-47853713D01*
X132801500Y-47853713D01*
X132801500Y-46851741D01*
X132801501Y-46851720D01*
X132801501Y-46722391D01*
X132783349Y-46631142D01*
X132777463Y-46601549D01*
X132730312Y-46487715D01*
X132661858Y-46385267D01*
X132661855Y-46385263D01*
X132242822Y-45966232D01*
X132232859Y-45956269D01*
X132232858Y-45956267D01*
X132145733Y-45869142D01*
X132094509Y-45834915D01*
X132043286Y-45800688D01*
X132043283Y-45800686D01*
X132043280Y-45800685D01*
X131969603Y-45770168D01*
X131969601Y-45770167D01*
X131962792Y-45767347D01*
X131929452Y-45753537D01*
X131869029Y-45741518D01*
X131864306Y-45740578D01*
X131864304Y-45740578D01*
X131808610Y-45729500D01*
X131808607Y-45729500D01*
X131808606Y-45729500D01*
X130236607Y-45729500D01*
X130113393Y-45729500D01*
X130113389Y-45729500D01*
X130062535Y-45739615D01*
X130062530Y-45739616D01*
X130052971Y-45741518D01*
X129992548Y-45753537D01*
X129945397Y-45773067D01*
X129878715Y-45800688D01*
X129878714Y-45800689D01*
X129856347Y-45815633D01*
X129856344Y-45815635D01*
X129776268Y-45869140D01*
X129732705Y-45912703D01*
X129689142Y-45956267D01*
X129338144Y-46307264D01*
X129338138Y-46307272D01*
X129269690Y-46409708D01*
X129269688Y-46409713D01*
X129237380Y-46487713D01*
X129222539Y-46523541D01*
X129222535Y-46523555D01*
X129198500Y-46644389D01*
X129198500Y-48187737D01*
X129178815Y-48254776D01*
X129162181Y-48275418D01*
X121707857Y-55729741D01*
X121707849Y-55729749D01*
X121705269Y-55732330D01*
X121705267Y-55732332D01*
X121618142Y-55819457D01*
X121592612Y-55857666D01*
X121587870Y-55864761D01*
X121587865Y-55864768D01*
X121549690Y-55921899D01*
X121549685Y-55921908D01*
X121516347Y-56002397D01*
X121510823Y-56015733D01*
X121502537Y-56035735D01*
X121502535Y-56035743D01*
X121478500Y-56156579D01*
X121478500Y-60385547D01*
X121458815Y-60452586D01*
X121442181Y-60473228D01*
X116762039Y-65153369D01*
X116700716Y-65186854D01*
X116636041Y-65183619D01*
X116550521Y-65155832D01*
X116550514Y-65155831D01*
X116321129Y-65119500D01*
X116321124Y-65119500D01*
X116088876Y-65119500D01*
X116088871Y-65119500D01*
X115859485Y-65155831D01*
X115638599Y-65227601D01*
X115431668Y-65333039D01*
X115243773Y-65469553D01*
X115079553Y-65633773D01*
X114943039Y-65821668D01*
X114837601Y-66028599D01*
X114765831Y-66249485D01*
X114729500Y-66478870D01*
X106045500Y-66478870D01*
X106045500Y-60572135D01*
X114729500Y-60572135D01*
X114729500Y-62617870D01*
X114729501Y-62617876D01*
X114735908Y-62677483D01*
X114786202Y-62812328D01*
X114786206Y-62812335D01*
X114872452Y-62927544D01*
X114872455Y-62927547D01*
X114987664Y-63013793D01*
X114987671Y-63013797D01*
X115122517Y-63064091D01*
X115122516Y-63064091D01*
X115129444Y-63064835D01*
X115182127Y-63070500D01*
X117227872Y-63070499D01*
X117287483Y-63064091D01*
X117422331Y-63013796D01*
X117537546Y-62927546D01*
X117623796Y-62812331D01*
X117674091Y-62677483D01*
X117680500Y-62617873D01*
X117680499Y-60572128D01*
X117674091Y-60512517D01*
X117659437Y-60473228D01*
X117623797Y-60377671D01*
X117623793Y-60377664D01*
X117537547Y-60262455D01*
X117537544Y-60262452D01*
X117422335Y-60176206D01*
X117422328Y-60176202D01*
X117287482Y-60125908D01*
X117287483Y-60125908D01*
X117227883Y-60119501D01*
X117227881Y-60119500D01*
X117227873Y-60119500D01*
X117227864Y-60119500D01*
X115182129Y-60119500D01*
X115182123Y-60119501D01*
X115122516Y-60125908D01*
X114987671Y-60176202D01*
X114987664Y-60176206D01*
X114872455Y-60262452D01*
X114872452Y-60262455D01*
X114786206Y-60377664D01*
X114786202Y-60377671D01*
X114735908Y-60512517D01*
X114729501Y-60572116D01*
X114729501Y-60572123D01*
X114729500Y-60572135D01*
X106045500Y-60572135D01*
X106045500Y-55492648D01*
X110594500Y-55492648D01*
X110594500Y-55697351D01*
X110626522Y-55899534D01*
X110689781Y-56094223D01*
X110782715Y-56276613D01*
X110903028Y-56442213D01*
X111047786Y-56586971D01*
X111202749Y-56699556D01*
X111213390Y-56707287D01*
X111329607Y-56766503D01*
X111395776Y-56800218D01*
X111395778Y-56800218D01*
X111395781Y-56800220D01*
X111492226Y-56831557D01*
X111590465Y-56863477D01*
X111691557Y-56879488D01*
X111792648Y-56895500D01*
X111792649Y-56895500D01*
X111997351Y-56895500D01*
X111997352Y-56895500D01*
X112199534Y-56863477D01*
X112394219Y-56800220D01*
X112576610Y-56707287D01*
X112686055Y-56627771D01*
X112742213Y-56586971D01*
X112742215Y-56586968D01*
X112742219Y-56586966D01*
X112886966Y-56442219D01*
X112886968Y-56442215D01*
X112886971Y-56442213D01*
X112939732Y-56369590D01*
X113007287Y-56276610D01*
X113100220Y-56094219D01*
X113163477Y-55899534D01*
X113195500Y-55697352D01*
X113195500Y-55492648D01*
X118214500Y-55492648D01*
X118214500Y-55697351D01*
X118246522Y-55899534D01*
X118309781Y-56094223D01*
X118402715Y-56276613D01*
X118523028Y-56442213D01*
X118667786Y-56586971D01*
X118822749Y-56699556D01*
X118833390Y-56707287D01*
X118949607Y-56766503D01*
X119015776Y-56800218D01*
X119015778Y-56800218D01*
X119015781Y-56800220D01*
X119112226Y-56831557D01*
X119210465Y-56863477D01*
X119311557Y-56879488D01*
X119412648Y-56895500D01*
X119412649Y-56895500D01*
X119617351Y-56895500D01*
X119617352Y-56895500D01*
X119819534Y-56863477D01*
X120014219Y-56800220D01*
X120196610Y-56707287D01*
X120306055Y-56627771D01*
X120362213Y-56586971D01*
X120362215Y-56586968D01*
X120362219Y-56586966D01*
X120506966Y-56442219D01*
X120506968Y-56442215D01*
X120506971Y-56442213D01*
X120559732Y-56369590D01*
X120627287Y-56276610D01*
X120720220Y-56094219D01*
X120783477Y-55899534D01*
X120815500Y-55697352D01*
X120815500Y-55492648D01*
X120783477Y-55290466D01*
X120720220Y-55095781D01*
X120720218Y-55095778D01*
X120720218Y-55095776D01*
X120686503Y-55029607D01*
X120627287Y-54913390D01*
X120619556Y-54902749D01*
X120506971Y-54747786D01*
X120362213Y-54603028D01*
X120196613Y-54482715D01*
X120196612Y-54482714D01*
X120196610Y-54482713D01*
X120139653Y-54453691D01*
X120014223Y-54389781D01*
X119819534Y-54326522D01*
X119644995Y-54298878D01*
X119617352Y-54294500D01*
X119412648Y-54294500D01*
X119388329Y-54298351D01*
X119210465Y-54326522D01*
X119015776Y-54389781D01*
X118833386Y-54482715D01*
X118667786Y-54603028D01*
X118523028Y-54747786D01*
X118402715Y-54913386D01*
X118309781Y-55095776D01*
X118246522Y-55290465D01*
X118214500Y-55492648D01*
X113195500Y-55492648D01*
X113163477Y-55290466D01*
X113100220Y-55095781D01*
X113100218Y-55095778D01*
X113100218Y-55095776D01*
X113066503Y-55029607D01*
X113007287Y-54913390D01*
X112999556Y-54902749D01*
X112886971Y-54747786D01*
X112742213Y-54603028D01*
X112576613Y-54482715D01*
X112576612Y-54482714D01*
X112576610Y-54482713D01*
X112519653Y-54453691D01*
X112394223Y-54389781D01*
X112199534Y-54326522D01*
X112024995Y-54298878D01*
X111997352Y-54294500D01*
X111792648Y-54294500D01*
X111768329Y-54298351D01*
X111590465Y-54326522D01*
X111395776Y-54389781D01*
X111213386Y-54482715D01*
X111047786Y-54603028D01*
X110903028Y-54747786D01*
X110782715Y-54913386D01*
X110689781Y-55095776D01*
X110626522Y-55290465D01*
X110594500Y-55492648D01*
X106045500Y-55492648D01*
X106045500Y-51992648D01*
X110404500Y-51992648D01*
X110404500Y-52197351D01*
X110436522Y-52399534D01*
X110499781Y-52594223D01*
X110592715Y-52776613D01*
X110713028Y-52942213D01*
X110857786Y-53086971D01*
X111012749Y-53199556D01*
X111023390Y-53207287D01*
X111139607Y-53266503D01*
X111205776Y-53300218D01*
X111205778Y-53300218D01*
X111205781Y-53300220D01*
X111310137Y-53334127D01*
X111400465Y-53363477D01*
X111501557Y-53379488D01*
X111602648Y-53395500D01*
X111602649Y-53395500D01*
X111807351Y-53395500D01*
X111807352Y-53395500D01*
X112009534Y-53363477D01*
X112204219Y-53300220D01*
X112386610Y-53207287D01*
X112479590Y-53139732D01*
X112552213Y-53086971D01*
X112552215Y-53086968D01*
X112552219Y-53086966D01*
X112696966Y-52942219D01*
X112696968Y-52942215D01*
X112696971Y-52942213D01*
X112749732Y-52869590D01*
X112817287Y-52776610D01*
X112910220Y-52594219D01*
X112973477Y-52399534D01*
X113005500Y-52197352D01*
X113005500Y-51992648D01*
X118024500Y-51992648D01*
X118024500Y-52197351D01*
X118056522Y-52399534D01*
X118119781Y-52594223D01*
X118212715Y-52776613D01*
X118333028Y-52942213D01*
X118477786Y-53086971D01*
X118632749Y-53199556D01*
X118643390Y-53207287D01*
X118759607Y-53266503D01*
X118825776Y-53300218D01*
X118825778Y-53300218D01*
X118825781Y-53300220D01*
X118930137Y-53334127D01*
X119020465Y-53363477D01*
X119121557Y-53379488D01*
X119222648Y-53395500D01*
X119222649Y-53395500D01*
X119427351Y-53395500D01*
X119427352Y-53395500D01*
X119629534Y-53363477D01*
X119824219Y-53300220D01*
X120006610Y-53207287D01*
X120099590Y-53139732D01*
X120172213Y-53086971D01*
X120172215Y-53086968D01*
X120172219Y-53086966D01*
X120316966Y-52942219D01*
X120316968Y-52942215D01*
X120316971Y-52942213D01*
X120369732Y-52869590D01*
X120437287Y-52776610D01*
X120530220Y-52594219D01*
X120593477Y-52399534D01*
X120625500Y-52197352D01*
X120625500Y-51992648D01*
X120593477Y-51790466D01*
X120530220Y-51595781D01*
X120530218Y-51595778D01*
X120530218Y-51595776D01*
X120496503Y-51529607D01*
X120437287Y-51413390D01*
X120412877Y-51379792D01*
X120316971Y-51247786D01*
X120172213Y-51103028D01*
X120006613Y-50982715D01*
X120006612Y-50982714D01*
X120006610Y-50982713D01*
X119949653Y-50953691D01*
X119824223Y-50889781D01*
X119629534Y-50826522D01*
X119454995Y-50798878D01*
X119427352Y-50794500D01*
X119222648Y-50794500D01*
X119198329Y-50798351D01*
X119020465Y-50826522D01*
X118825776Y-50889781D01*
X118643386Y-50982715D01*
X118477786Y-51103028D01*
X118333028Y-51247786D01*
X118212715Y-51413386D01*
X118119781Y-51595776D01*
X118056522Y-51790465D01*
X118024500Y-51992648D01*
X113005500Y-51992648D01*
X112973477Y-51790466D01*
X112910220Y-51595781D01*
X112910218Y-51595778D01*
X112910218Y-51595776D01*
X112876503Y-51529607D01*
X112817287Y-51413390D01*
X112792877Y-51379792D01*
X112696971Y-51247786D01*
X112552213Y-51103028D01*
X112386613Y-50982715D01*
X112386612Y-50982714D01*
X112386610Y-50982713D01*
X112329653Y-50953691D01*
X112204223Y-50889781D01*
X112009534Y-50826522D01*
X111834995Y-50798878D01*
X111807352Y-50794500D01*
X111602648Y-50794500D01*
X111578329Y-50798351D01*
X111400465Y-50826522D01*
X111205776Y-50889781D01*
X111023386Y-50982715D01*
X110857786Y-51103028D01*
X110713028Y-51247786D01*
X110592715Y-51413386D01*
X110499781Y-51595776D01*
X110436522Y-51790465D01*
X110404500Y-51992648D01*
X106045500Y-51992648D01*
X106045500Y-48492648D01*
X117904500Y-48492648D01*
X117904500Y-48697351D01*
X117936522Y-48899534D01*
X117999781Y-49094223D01*
X118092715Y-49276613D01*
X118213028Y-49442213D01*
X118357786Y-49586971D01*
X118474145Y-49671509D01*
X118523390Y-49707287D01*
X118639607Y-49766503D01*
X118705776Y-49800218D01*
X118705778Y-49800218D01*
X118705781Y-49800220D01*
X118766119Y-49819825D01*
X118900465Y-49863477D01*
X119001557Y-49879488D01*
X119102648Y-49895500D01*
X119102649Y-49895500D01*
X119307351Y-49895500D01*
X119307352Y-49895500D01*
X119509534Y-49863477D01*
X119704219Y-49800220D01*
X119886610Y-49707287D01*
X120006358Y-49620286D01*
X120052213Y-49586971D01*
X120052215Y-49586968D01*
X120052219Y-49586966D01*
X120196966Y-49442219D01*
X120196968Y-49442215D01*
X120196971Y-49442213D01*
X120267636Y-49344949D01*
X120317287Y-49276610D01*
X120410220Y-49094219D01*
X120473477Y-48899534D01*
X120505500Y-48697352D01*
X120505500Y-48492648D01*
X120473477Y-48290466D01*
X120468854Y-48276239D01*
X120410218Y-48095776D01*
X120376503Y-48029607D01*
X120317287Y-47913390D01*
X120309556Y-47902749D01*
X120196971Y-47747786D01*
X120052213Y-47603028D01*
X119886613Y-47482715D01*
X119886612Y-47482714D01*
X119886610Y-47482713D01*
X119805892Y-47441585D01*
X119704223Y-47389781D01*
X119509534Y-47326522D01*
X119334995Y-47298878D01*
X119307352Y-47294500D01*
X119102648Y-47294500D01*
X119078329Y-47298351D01*
X118900465Y-47326522D01*
X118705776Y-47389781D01*
X118523386Y-47482715D01*
X118357786Y-47603028D01*
X118213028Y-47747786D01*
X118092715Y-47913386D01*
X117999781Y-48095776D01*
X117936522Y-48290465D01*
X117904500Y-48492648D01*
X106045500Y-48492648D01*
X106045500Y-45691569D01*
X106065185Y-45624530D01*
X106081819Y-45603888D01*
X107198888Y-44486819D01*
X107260211Y-44453334D01*
X107286569Y-44450500D01*
X167668431Y-44450500D01*
X167735470Y-44470185D01*
G37*
%TD.AperFunction*%
%TD*%
M02*
