%TF.GenerationSoftware,KiCad,Pcbnew,9.0.2*%
%TF.CreationDate,2025-07-08T16:12:12-07:00*%
%TF.ProjectId,PCB,5043422e-6b69-4636-9164-5f7063625858,rev?*%
%TF.SameCoordinates,Original*%
%TF.FileFunction,Legend,Top*%
%TF.FilePolarity,Positive*%
%FSLAX46Y46*%
G04 Gerber Fmt 4.6, Leading zero omitted, Abs format (unit mm)*
G04 Created by KiCad (PCBNEW 9.0.2) date 2025-07-08 16:12:12*
%MOMM*%
%LPD*%
G01*
G04 APERTURE LIST*
%ADD10C,0.150000*%
%ADD11C,0.250000*%
%ADD12C,0.120000*%
%ADD13C,0.200000*%
%ADD14C,0.400000*%
%ADD15C,0.127000*%
%ADD16C,0.152400*%
%ADD17C,0.100000*%
G04 APERTURE END LIST*
D10*
X159539987Y-81258458D02*
X160539987Y-81020363D01*
X160539987Y-81020363D02*
X159825701Y-80829887D01*
X159825701Y-80829887D02*
X160539987Y-80639411D01*
X160539987Y-80639411D02*
X159539987Y-80401316D01*
X160539987Y-80020363D02*
X159873320Y-80020363D01*
X159539987Y-80020363D02*
X159587606Y-80067982D01*
X159587606Y-80067982D02*
X159635225Y-80020363D01*
X159635225Y-80020363D02*
X159587606Y-79972744D01*
X159587606Y-79972744D02*
X159539987Y-80020363D01*
X159539987Y-80020363D02*
X159635225Y-80020363D01*
X160539987Y-79401316D02*
X160492368Y-79496554D01*
X160492368Y-79496554D02*
X160397129Y-79544173D01*
X160397129Y-79544173D02*
X159539987Y-79544173D01*
X160016177Y-77925125D02*
X160016177Y-78258458D01*
X160539987Y-78258458D02*
X159539987Y-78258458D01*
X159539987Y-78258458D02*
X159539987Y-77782268D01*
X160492368Y-77020363D02*
X160539987Y-77115601D01*
X160539987Y-77115601D02*
X160539987Y-77306077D01*
X160539987Y-77306077D02*
X160492368Y-77401315D01*
X160492368Y-77401315D02*
X160397129Y-77448934D01*
X160397129Y-77448934D02*
X160016177Y-77448934D01*
X160016177Y-77448934D02*
X159920939Y-77401315D01*
X159920939Y-77401315D02*
X159873320Y-77306077D01*
X159873320Y-77306077D02*
X159873320Y-77115601D01*
X159873320Y-77115601D02*
X159920939Y-77020363D01*
X159920939Y-77020363D02*
X160016177Y-76972744D01*
X160016177Y-76972744D02*
X160111415Y-76972744D01*
X160111415Y-76972744D02*
X160206653Y-77448934D01*
X160539987Y-76544172D02*
X159539987Y-76544172D01*
X160539987Y-76115601D02*
X160016177Y-76115601D01*
X160016177Y-76115601D02*
X159920939Y-76163220D01*
X159920939Y-76163220D02*
X159873320Y-76258458D01*
X159873320Y-76258458D02*
X159873320Y-76401315D01*
X159873320Y-76401315D02*
X159920939Y-76496553D01*
X159920939Y-76496553D02*
X159968558Y-76544172D01*
X160539987Y-75639410D02*
X159873320Y-75639410D01*
X160063796Y-75639410D02*
X159968558Y-75591791D01*
X159968558Y-75591791D02*
X159920939Y-75544172D01*
X159920939Y-75544172D02*
X159873320Y-75448934D01*
X159873320Y-75448934D02*
X159873320Y-75353696D01*
X161864216Y-81210839D02*
X161864216Y-80734649D01*
X162149931Y-81306077D02*
X161149931Y-80972744D01*
X161149931Y-80972744D02*
X162149931Y-80639411D01*
X162149931Y-80163220D02*
X162102312Y-80258458D01*
X162102312Y-80258458D02*
X162054692Y-80306077D01*
X162054692Y-80306077D02*
X161959454Y-80353696D01*
X161959454Y-80353696D02*
X161673740Y-80353696D01*
X161673740Y-80353696D02*
X161578502Y-80306077D01*
X161578502Y-80306077D02*
X161530883Y-80258458D01*
X161530883Y-80258458D02*
X161483264Y-80163220D01*
X161483264Y-80163220D02*
X161483264Y-80020363D01*
X161483264Y-80020363D02*
X161530883Y-79925125D01*
X161530883Y-79925125D02*
X161578502Y-79877506D01*
X161578502Y-79877506D02*
X161673740Y-79829887D01*
X161673740Y-79829887D02*
X161959454Y-79829887D01*
X161959454Y-79829887D02*
X162054692Y-79877506D01*
X162054692Y-79877506D02*
X162102312Y-79925125D01*
X162102312Y-79925125D02*
X162149931Y-80020363D01*
X162149931Y-80020363D02*
X162149931Y-80163220D01*
X162149931Y-78972744D02*
X161149931Y-78972744D01*
X162102312Y-78972744D02*
X162149931Y-79067982D01*
X162149931Y-79067982D02*
X162149931Y-79258458D01*
X162149931Y-79258458D02*
X162102312Y-79353696D01*
X162102312Y-79353696D02*
X162054692Y-79401315D01*
X162054692Y-79401315D02*
X161959454Y-79448934D01*
X161959454Y-79448934D02*
X161673740Y-79448934D01*
X161673740Y-79448934D02*
X161578502Y-79401315D01*
X161578502Y-79401315D02*
X161530883Y-79353696D01*
X161530883Y-79353696D02*
X161483264Y-79258458D01*
X161483264Y-79258458D02*
X161483264Y-79067982D01*
X161483264Y-79067982D02*
X161530883Y-78972744D01*
X162149931Y-78496553D02*
X161149931Y-78496553D01*
X162149931Y-78067982D02*
X161626121Y-78067982D01*
X161626121Y-78067982D02*
X161530883Y-78115601D01*
X161530883Y-78115601D02*
X161483264Y-78210839D01*
X161483264Y-78210839D02*
X161483264Y-78353696D01*
X161483264Y-78353696D02*
X161530883Y-78448934D01*
X161530883Y-78448934D02*
X161578502Y-78496553D01*
X162149931Y-77163220D02*
X161626121Y-77163220D01*
X161626121Y-77163220D02*
X161530883Y-77210839D01*
X161530883Y-77210839D02*
X161483264Y-77306077D01*
X161483264Y-77306077D02*
X161483264Y-77496553D01*
X161483264Y-77496553D02*
X161530883Y-77591791D01*
X162102312Y-77163220D02*
X162149931Y-77258458D01*
X162149931Y-77258458D02*
X162149931Y-77496553D01*
X162149931Y-77496553D02*
X162102312Y-77591791D01*
X162102312Y-77591791D02*
X162007073Y-77639410D01*
X162007073Y-77639410D02*
X161911835Y-77639410D01*
X161911835Y-77639410D02*
X161816597Y-77591791D01*
X161816597Y-77591791D02*
X161768978Y-77496553D01*
X161768978Y-77496553D02*
X161768978Y-77258458D01*
X161768978Y-77258458D02*
X161721359Y-77163220D01*
X161483264Y-76687029D02*
X162149931Y-76687029D01*
X161578502Y-76687029D02*
X161530883Y-76639410D01*
X161530883Y-76639410D02*
X161483264Y-76544172D01*
X161483264Y-76544172D02*
X161483264Y-76401315D01*
X161483264Y-76401315D02*
X161530883Y-76306077D01*
X161530883Y-76306077D02*
X161626121Y-76258458D01*
X161626121Y-76258458D02*
X162149931Y-76258458D01*
X161149931Y-75163219D02*
X161149931Y-74591791D01*
X162149931Y-74877505D02*
X161149931Y-74877505D01*
X162149931Y-74115600D02*
X162102312Y-74210838D01*
X162102312Y-74210838D02*
X162054692Y-74258457D01*
X162054692Y-74258457D02*
X161959454Y-74306076D01*
X161959454Y-74306076D02*
X161673740Y-74306076D01*
X161673740Y-74306076D02*
X161578502Y-74258457D01*
X161578502Y-74258457D02*
X161530883Y-74210838D01*
X161530883Y-74210838D02*
X161483264Y-74115600D01*
X161483264Y-74115600D02*
X161483264Y-73972743D01*
X161483264Y-73972743D02*
X161530883Y-73877505D01*
X161530883Y-73877505D02*
X161578502Y-73829886D01*
X161578502Y-73829886D02*
X161673740Y-73782267D01*
X161673740Y-73782267D02*
X161959454Y-73782267D01*
X161959454Y-73782267D02*
X162054692Y-73829886D01*
X162054692Y-73829886D02*
X162102312Y-73877505D01*
X162102312Y-73877505D02*
X162149931Y-73972743D01*
X162149931Y-73972743D02*
X162149931Y-74115600D01*
X161483264Y-73353695D02*
X162149931Y-73353695D01*
X161578502Y-73353695D02*
X161530883Y-73306076D01*
X161530883Y-73306076D02*
X161483264Y-73210838D01*
X161483264Y-73210838D02*
X161483264Y-73067981D01*
X161483264Y-73067981D02*
X161530883Y-72972743D01*
X161530883Y-72972743D02*
X161626121Y-72925124D01*
X161626121Y-72925124D02*
X162149931Y-72925124D01*
X161483264Y-72448933D02*
X162149931Y-72448933D01*
X161578502Y-72448933D02*
X161530883Y-72401314D01*
X161530883Y-72401314D02*
X161483264Y-72306076D01*
X161483264Y-72306076D02*
X161483264Y-72163219D01*
X161483264Y-72163219D02*
X161530883Y-72067981D01*
X161530883Y-72067981D02*
X161626121Y-72020362D01*
X161626121Y-72020362D02*
X162149931Y-72020362D01*
X162102312Y-71163219D02*
X162149931Y-71258457D01*
X162149931Y-71258457D02*
X162149931Y-71448933D01*
X162149931Y-71448933D02*
X162102312Y-71544171D01*
X162102312Y-71544171D02*
X162007073Y-71591790D01*
X162007073Y-71591790D02*
X161626121Y-71591790D01*
X161626121Y-71591790D02*
X161530883Y-71544171D01*
X161530883Y-71544171D02*
X161483264Y-71448933D01*
X161483264Y-71448933D02*
X161483264Y-71258457D01*
X161483264Y-71258457D02*
X161530883Y-71163219D01*
X161530883Y-71163219D02*
X161626121Y-71115600D01*
X161626121Y-71115600D02*
X161721359Y-71115600D01*
X161721359Y-71115600D02*
X161816597Y-71591790D01*
X162102312Y-70734647D02*
X162149931Y-70639409D01*
X162149931Y-70639409D02*
X162149931Y-70448933D01*
X162149931Y-70448933D02*
X162102312Y-70353695D01*
X162102312Y-70353695D02*
X162007073Y-70306076D01*
X162007073Y-70306076D02*
X161959454Y-70306076D01*
X161959454Y-70306076D02*
X161864216Y-70353695D01*
X161864216Y-70353695D02*
X161816597Y-70448933D01*
X161816597Y-70448933D02*
X161816597Y-70591790D01*
X161816597Y-70591790D02*
X161768978Y-70687028D01*
X161768978Y-70687028D02*
X161673740Y-70734647D01*
X161673740Y-70734647D02*
X161626121Y-70734647D01*
X161626121Y-70734647D02*
X161530883Y-70687028D01*
X161530883Y-70687028D02*
X161483264Y-70591790D01*
X161483264Y-70591790D02*
X161483264Y-70448933D01*
X161483264Y-70448933D02*
X161530883Y-70353695D01*
X162102312Y-69496552D02*
X162149931Y-69591790D01*
X162149931Y-69591790D02*
X162149931Y-69782266D01*
X162149931Y-69782266D02*
X162102312Y-69877504D01*
X162102312Y-69877504D02*
X162007073Y-69925123D01*
X162007073Y-69925123D02*
X161626121Y-69925123D01*
X161626121Y-69925123D02*
X161530883Y-69877504D01*
X161530883Y-69877504D02*
X161483264Y-69782266D01*
X161483264Y-69782266D02*
X161483264Y-69591790D01*
X161483264Y-69591790D02*
X161530883Y-69496552D01*
X161530883Y-69496552D02*
X161626121Y-69448933D01*
X161626121Y-69448933D02*
X161721359Y-69448933D01*
X161721359Y-69448933D02*
X161816597Y-69925123D01*
X161483264Y-69020361D02*
X162149931Y-69020361D01*
X161578502Y-69020361D02*
X161530883Y-68972742D01*
X161530883Y-68972742D02*
X161483264Y-68877504D01*
X161483264Y-68877504D02*
X161483264Y-68734647D01*
X161483264Y-68734647D02*
X161530883Y-68639409D01*
X161530883Y-68639409D02*
X161626121Y-68591790D01*
X161626121Y-68591790D02*
X162149931Y-68591790D01*
X163236065Y-81163220D02*
X163236065Y-80829887D01*
X163759875Y-80687030D02*
X163759875Y-81163220D01*
X163759875Y-81163220D02*
X162759875Y-81163220D01*
X162759875Y-81163220D02*
X162759875Y-80687030D01*
X163664636Y-79687030D02*
X163712256Y-79734649D01*
X163712256Y-79734649D02*
X163759875Y-79877506D01*
X163759875Y-79877506D02*
X163759875Y-79972744D01*
X163759875Y-79972744D02*
X163712256Y-80115601D01*
X163712256Y-80115601D02*
X163617017Y-80210839D01*
X163617017Y-80210839D02*
X163521779Y-80258458D01*
X163521779Y-80258458D02*
X163331303Y-80306077D01*
X163331303Y-80306077D02*
X163188446Y-80306077D01*
X163188446Y-80306077D02*
X162997970Y-80258458D01*
X162997970Y-80258458D02*
X162902732Y-80210839D01*
X162902732Y-80210839D02*
X162807494Y-80115601D01*
X162807494Y-80115601D02*
X162759875Y-79972744D01*
X162759875Y-79972744D02*
X162759875Y-79877506D01*
X162759875Y-79877506D02*
X162807494Y-79734649D01*
X162807494Y-79734649D02*
X162855113Y-79687030D01*
X163236065Y-79258458D02*
X163236065Y-78925125D01*
X163759875Y-78782268D02*
X163759875Y-79258458D01*
X163759875Y-79258458D02*
X162759875Y-79258458D01*
X162759875Y-79258458D02*
X162759875Y-78782268D01*
X162855113Y-78401315D02*
X162807494Y-78353696D01*
X162807494Y-78353696D02*
X162759875Y-78258458D01*
X162759875Y-78258458D02*
X162759875Y-78020363D01*
X162759875Y-78020363D02*
X162807494Y-77925125D01*
X162807494Y-77925125D02*
X162855113Y-77877506D01*
X162855113Y-77877506D02*
X162950351Y-77829887D01*
X162950351Y-77829887D02*
X163045589Y-77829887D01*
X163045589Y-77829887D02*
X163188446Y-77877506D01*
X163188446Y-77877506D02*
X163759875Y-78448934D01*
X163759875Y-78448934D02*
X163759875Y-77829887D01*
X163759875Y-77353696D02*
X163759875Y-77163220D01*
X163759875Y-77163220D02*
X163712256Y-77067982D01*
X163712256Y-77067982D02*
X163664636Y-77020363D01*
X163664636Y-77020363D02*
X163521779Y-76925125D01*
X163521779Y-76925125D02*
X163331303Y-76877506D01*
X163331303Y-76877506D02*
X162950351Y-76877506D01*
X162950351Y-76877506D02*
X162855113Y-76925125D01*
X162855113Y-76925125D02*
X162807494Y-76972744D01*
X162807494Y-76972744D02*
X162759875Y-77067982D01*
X162759875Y-77067982D02*
X162759875Y-77258458D01*
X162759875Y-77258458D02*
X162807494Y-77353696D01*
X162807494Y-77353696D02*
X162855113Y-77401315D01*
X162855113Y-77401315D02*
X162950351Y-77448934D01*
X162950351Y-77448934D02*
X163188446Y-77448934D01*
X163188446Y-77448934D02*
X163283684Y-77401315D01*
X163283684Y-77401315D02*
X163331303Y-77353696D01*
X163331303Y-77353696D02*
X163378922Y-77258458D01*
X163378922Y-77258458D02*
X163378922Y-77067982D01*
X163378922Y-77067982D02*
X163331303Y-76972744D01*
X163331303Y-76972744D02*
X163283684Y-76925125D01*
X163283684Y-76925125D02*
X163188446Y-76877506D01*
X163759875Y-76401315D02*
X163759875Y-76210839D01*
X163759875Y-76210839D02*
X163712256Y-76115601D01*
X163712256Y-76115601D02*
X163664636Y-76067982D01*
X163664636Y-76067982D02*
X163521779Y-75972744D01*
X163521779Y-75972744D02*
X163331303Y-75925125D01*
X163331303Y-75925125D02*
X162950351Y-75925125D01*
X162950351Y-75925125D02*
X162855113Y-75972744D01*
X162855113Y-75972744D02*
X162807494Y-76020363D01*
X162807494Y-76020363D02*
X162759875Y-76115601D01*
X162759875Y-76115601D02*
X162759875Y-76306077D01*
X162759875Y-76306077D02*
X162807494Y-76401315D01*
X162807494Y-76401315D02*
X162855113Y-76448934D01*
X162855113Y-76448934D02*
X162950351Y-76496553D01*
X162950351Y-76496553D02*
X163188446Y-76496553D01*
X163188446Y-76496553D02*
X163283684Y-76448934D01*
X163283684Y-76448934D02*
X163331303Y-76401315D01*
X163331303Y-76401315D02*
X163378922Y-76306077D01*
X163378922Y-76306077D02*
X163378922Y-76115601D01*
X163378922Y-76115601D02*
X163331303Y-76020363D01*
X163331303Y-76020363D02*
X163283684Y-75972744D01*
X163283684Y-75972744D02*
X163188446Y-75925125D01*
X163664636Y-75496553D02*
X163712256Y-75448934D01*
X163712256Y-75448934D02*
X163759875Y-75496553D01*
X163759875Y-75496553D02*
X163712256Y-75544172D01*
X163712256Y-75544172D02*
X163664636Y-75496553D01*
X163664636Y-75496553D02*
X163759875Y-75496553D01*
X163140827Y-75496553D02*
X163188446Y-75448934D01*
X163188446Y-75448934D02*
X163236065Y-75496553D01*
X163236065Y-75496553D02*
X163188446Y-75544172D01*
X163188446Y-75544172D02*
X163140827Y-75496553D01*
X163140827Y-75496553D02*
X163236065Y-75496553D01*
X163759875Y-74258458D02*
X163093208Y-74258458D01*
X163283684Y-74258458D02*
X163188446Y-74210839D01*
X163188446Y-74210839D02*
X163140827Y-74163220D01*
X163140827Y-74163220D02*
X163093208Y-74067982D01*
X163093208Y-74067982D02*
X163093208Y-73972744D01*
X163759875Y-73210839D02*
X163236065Y-73210839D01*
X163236065Y-73210839D02*
X163140827Y-73258458D01*
X163140827Y-73258458D02*
X163093208Y-73353696D01*
X163093208Y-73353696D02*
X163093208Y-73544172D01*
X163093208Y-73544172D02*
X163140827Y-73639410D01*
X163712256Y-73210839D02*
X163759875Y-73306077D01*
X163759875Y-73306077D02*
X163759875Y-73544172D01*
X163759875Y-73544172D02*
X163712256Y-73639410D01*
X163712256Y-73639410D02*
X163617017Y-73687029D01*
X163617017Y-73687029D02*
X163521779Y-73687029D01*
X163521779Y-73687029D02*
X163426541Y-73639410D01*
X163426541Y-73639410D02*
X163378922Y-73544172D01*
X163378922Y-73544172D02*
X163378922Y-73306077D01*
X163378922Y-73306077D02*
X163331303Y-73210839D01*
X163759875Y-72306077D02*
X162759875Y-72306077D01*
X163712256Y-72306077D02*
X163759875Y-72401315D01*
X163759875Y-72401315D02*
X163759875Y-72591791D01*
X163759875Y-72591791D02*
X163712256Y-72687029D01*
X163712256Y-72687029D02*
X163664636Y-72734648D01*
X163664636Y-72734648D02*
X163569398Y-72782267D01*
X163569398Y-72782267D02*
X163283684Y-72782267D01*
X163283684Y-72782267D02*
X163188446Y-72734648D01*
X163188446Y-72734648D02*
X163140827Y-72687029D01*
X163140827Y-72687029D02*
X163093208Y-72591791D01*
X163093208Y-72591791D02*
X163093208Y-72401315D01*
X163093208Y-72401315D02*
X163140827Y-72306077D01*
X163759875Y-71829886D02*
X163093208Y-71829886D01*
X162759875Y-71829886D02*
X162807494Y-71877505D01*
X162807494Y-71877505D02*
X162855113Y-71829886D01*
X162855113Y-71829886D02*
X162807494Y-71782267D01*
X162807494Y-71782267D02*
X162759875Y-71829886D01*
X162759875Y-71829886D02*
X162855113Y-71829886D01*
X163759875Y-71210839D02*
X163712256Y-71306077D01*
X163712256Y-71306077D02*
X163664636Y-71353696D01*
X163664636Y-71353696D02*
X163569398Y-71401315D01*
X163569398Y-71401315D02*
X163283684Y-71401315D01*
X163283684Y-71401315D02*
X163188446Y-71353696D01*
X163188446Y-71353696D02*
X163140827Y-71306077D01*
X163140827Y-71306077D02*
X163093208Y-71210839D01*
X163093208Y-71210839D02*
X163093208Y-71067982D01*
X163093208Y-71067982D02*
X163140827Y-70972744D01*
X163140827Y-70972744D02*
X163188446Y-70925125D01*
X163188446Y-70925125D02*
X163283684Y-70877506D01*
X163283684Y-70877506D02*
X163569398Y-70877506D01*
X163569398Y-70877506D02*
X163664636Y-70925125D01*
X163664636Y-70925125D02*
X163712256Y-70972744D01*
X163712256Y-70972744D02*
X163759875Y-71067982D01*
X163759875Y-71067982D02*
X163759875Y-71210839D01*
X163712256Y-69258458D02*
X163759875Y-69353696D01*
X163759875Y-69353696D02*
X163759875Y-69544172D01*
X163759875Y-69544172D02*
X163712256Y-69639410D01*
X163712256Y-69639410D02*
X163664636Y-69687029D01*
X163664636Y-69687029D02*
X163569398Y-69734648D01*
X163569398Y-69734648D02*
X163283684Y-69734648D01*
X163283684Y-69734648D02*
X163188446Y-69687029D01*
X163188446Y-69687029D02*
X163140827Y-69639410D01*
X163140827Y-69639410D02*
X163093208Y-69544172D01*
X163093208Y-69544172D02*
X163093208Y-69353696D01*
X163093208Y-69353696D02*
X163140827Y-69258458D01*
X163759875Y-68687029D02*
X163712256Y-68782267D01*
X163712256Y-68782267D02*
X163617017Y-68829886D01*
X163617017Y-68829886D02*
X162759875Y-68829886D01*
X163759875Y-68163219D02*
X163712256Y-68258457D01*
X163712256Y-68258457D02*
X163664636Y-68306076D01*
X163664636Y-68306076D02*
X163569398Y-68353695D01*
X163569398Y-68353695D02*
X163283684Y-68353695D01*
X163283684Y-68353695D02*
X163188446Y-68306076D01*
X163188446Y-68306076D02*
X163140827Y-68258457D01*
X163140827Y-68258457D02*
X163093208Y-68163219D01*
X163093208Y-68163219D02*
X163093208Y-68020362D01*
X163093208Y-68020362D02*
X163140827Y-67925124D01*
X163140827Y-67925124D02*
X163188446Y-67877505D01*
X163188446Y-67877505D02*
X163283684Y-67829886D01*
X163283684Y-67829886D02*
X163569398Y-67829886D01*
X163569398Y-67829886D02*
X163664636Y-67877505D01*
X163664636Y-67877505D02*
X163712256Y-67925124D01*
X163712256Y-67925124D02*
X163759875Y-68020362D01*
X163759875Y-68020362D02*
X163759875Y-68163219D01*
X163712256Y-66972743D02*
X163759875Y-67067981D01*
X163759875Y-67067981D02*
X163759875Y-67258457D01*
X163759875Y-67258457D02*
X163712256Y-67353695D01*
X163712256Y-67353695D02*
X163664636Y-67401314D01*
X163664636Y-67401314D02*
X163569398Y-67448933D01*
X163569398Y-67448933D02*
X163283684Y-67448933D01*
X163283684Y-67448933D02*
X163188446Y-67401314D01*
X163188446Y-67401314D02*
X163140827Y-67353695D01*
X163140827Y-67353695D02*
X163093208Y-67258457D01*
X163093208Y-67258457D02*
X163093208Y-67067981D01*
X163093208Y-67067981D02*
X163140827Y-66972743D01*
X163759875Y-66544171D02*
X162759875Y-66544171D01*
X163378922Y-66448933D02*
X163759875Y-66163219D01*
X163093208Y-66163219D02*
X163474160Y-66544171D01*
X164369819Y-81258458D02*
X165369819Y-81020363D01*
X165369819Y-81020363D02*
X164655533Y-80829887D01*
X164655533Y-80829887D02*
X165369819Y-80639411D01*
X165369819Y-80639411D02*
X164369819Y-80401316D01*
X165369819Y-79591792D02*
X164846009Y-79591792D01*
X164846009Y-79591792D02*
X164750771Y-79639411D01*
X164750771Y-79639411D02*
X164703152Y-79734649D01*
X164703152Y-79734649D02*
X164703152Y-79925125D01*
X164703152Y-79925125D02*
X164750771Y-80020363D01*
X165322200Y-79591792D02*
X165369819Y-79687030D01*
X165369819Y-79687030D02*
X165369819Y-79925125D01*
X165369819Y-79925125D02*
X165322200Y-80020363D01*
X165322200Y-80020363D02*
X165226961Y-80067982D01*
X165226961Y-80067982D02*
X165131723Y-80067982D01*
X165131723Y-80067982D02*
X165036485Y-80020363D01*
X165036485Y-80020363D02*
X164988866Y-79925125D01*
X164988866Y-79925125D02*
X164988866Y-79687030D01*
X164988866Y-79687030D02*
X164941247Y-79591792D01*
X164703152Y-79258458D02*
X164703152Y-78877506D01*
X164369819Y-79115601D02*
X165226961Y-79115601D01*
X165226961Y-79115601D02*
X165322200Y-79067982D01*
X165322200Y-79067982D02*
X165369819Y-78972744D01*
X165369819Y-78972744D02*
X165369819Y-78877506D01*
X165322200Y-78163220D02*
X165369819Y-78258458D01*
X165369819Y-78258458D02*
X165369819Y-78448934D01*
X165369819Y-78448934D02*
X165322200Y-78544172D01*
X165322200Y-78544172D02*
X165226961Y-78591791D01*
X165226961Y-78591791D02*
X164846009Y-78591791D01*
X164846009Y-78591791D02*
X164750771Y-78544172D01*
X164750771Y-78544172D02*
X164703152Y-78448934D01*
X164703152Y-78448934D02*
X164703152Y-78258458D01*
X164703152Y-78258458D02*
X164750771Y-78163220D01*
X164750771Y-78163220D02*
X164846009Y-78115601D01*
X164846009Y-78115601D02*
X164941247Y-78115601D01*
X164941247Y-78115601D02*
X165036485Y-78591791D01*
X165369819Y-77687029D02*
X164703152Y-77687029D01*
X164893628Y-77687029D02*
X164798390Y-77639410D01*
X164798390Y-77639410D02*
X164750771Y-77591791D01*
X164750771Y-77591791D02*
X164703152Y-77496553D01*
X164703152Y-77496553D02*
X164703152Y-77401315D01*
X165369819Y-77067981D02*
X164703152Y-77067981D01*
X164369819Y-77067981D02*
X164417438Y-77115600D01*
X164417438Y-77115600D02*
X164465057Y-77067981D01*
X164465057Y-77067981D02*
X164417438Y-77020362D01*
X164417438Y-77020362D02*
X164369819Y-77067981D01*
X164369819Y-77067981D02*
X164465057Y-77067981D01*
X164703152Y-76591791D02*
X165369819Y-76591791D01*
X164798390Y-76591791D02*
X164750771Y-76544172D01*
X164750771Y-76544172D02*
X164703152Y-76448934D01*
X164703152Y-76448934D02*
X164703152Y-76306077D01*
X164703152Y-76306077D02*
X164750771Y-76210839D01*
X164750771Y-76210839D02*
X164846009Y-76163220D01*
X164846009Y-76163220D02*
X165369819Y-76163220D01*
X164703152Y-75258458D02*
X165512676Y-75258458D01*
X165512676Y-75258458D02*
X165607914Y-75306077D01*
X165607914Y-75306077D02*
X165655533Y-75353696D01*
X165655533Y-75353696D02*
X165703152Y-75448934D01*
X165703152Y-75448934D02*
X165703152Y-75591791D01*
X165703152Y-75591791D02*
X165655533Y-75687029D01*
X165322200Y-75258458D02*
X165369819Y-75353696D01*
X165369819Y-75353696D02*
X165369819Y-75544172D01*
X165369819Y-75544172D02*
X165322200Y-75639410D01*
X165322200Y-75639410D02*
X165274580Y-75687029D01*
X165274580Y-75687029D02*
X165179342Y-75734648D01*
X165179342Y-75734648D02*
X164893628Y-75734648D01*
X164893628Y-75734648D02*
X164798390Y-75687029D01*
X164798390Y-75687029D02*
X164750771Y-75639410D01*
X164750771Y-75639410D02*
X164703152Y-75544172D01*
X164703152Y-75544172D02*
X164703152Y-75353696D01*
X164703152Y-75353696D02*
X164750771Y-75258458D01*
X165369819Y-74020362D02*
X164369819Y-74020362D01*
X165369819Y-73591791D02*
X164846009Y-73591791D01*
X164846009Y-73591791D02*
X164750771Y-73639410D01*
X164750771Y-73639410D02*
X164703152Y-73734648D01*
X164703152Y-73734648D02*
X164703152Y-73877505D01*
X164703152Y-73877505D02*
X164750771Y-73972743D01*
X164750771Y-73972743D02*
X164798390Y-74020362D01*
X165369819Y-72972743D02*
X165322200Y-73067981D01*
X165322200Y-73067981D02*
X165274580Y-73115600D01*
X165274580Y-73115600D02*
X165179342Y-73163219D01*
X165179342Y-73163219D02*
X164893628Y-73163219D01*
X164893628Y-73163219D02*
X164798390Y-73115600D01*
X164798390Y-73115600D02*
X164750771Y-73067981D01*
X164750771Y-73067981D02*
X164703152Y-72972743D01*
X164703152Y-72972743D02*
X164703152Y-72829886D01*
X164703152Y-72829886D02*
X164750771Y-72734648D01*
X164750771Y-72734648D02*
X164798390Y-72687029D01*
X164798390Y-72687029D02*
X164893628Y-72639410D01*
X164893628Y-72639410D02*
X165179342Y-72639410D01*
X165179342Y-72639410D02*
X165274580Y-72687029D01*
X165274580Y-72687029D02*
X165322200Y-72734648D01*
X165322200Y-72734648D02*
X165369819Y-72829886D01*
X165369819Y-72829886D02*
X165369819Y-72972743D01*
X165369819Y-72067981D02*
X165322200Y-72163219D01*
X165322200Y-72163219D02*
X165226961Y-72210838D01*
X165226961Y-72210838D02*
X164369819Y-72210838D01*
X165322200Y-71306076D02*
X165369819Y-71401314D01*
X165369819Y-71401314D02*
X165369819Y-71591790D01*
X165369819Y-71591790D02*
X165322200Y-71687028D01*
X165322200Y-71687028D02*
X165226961Y-71734647D01*
X165226961Y-71734647D02*
X164846009Y-71734647D01*
X164846009Y-71734647D02*
X164750771Y-71687028D01*
X164750771Y-71687028D02*
X164703152Y-71591790D01*
X164703152Y-71591790D02*
X164703152Y-71401314D01*
X164703152Y-71401314D02*
X164750771Y-71306076D01*
X164750771Y-71306076D02*
X164846009Y-71258457D01*
X164846009Y-71258457D02*
X164941247Y-71258457D01*
X164941247Y-71258457D02*
X165036485Y-71734647D01*
X151003095Y-63589819D02*
X151003095Y-64399342D01*
X151003095Y-64399342D02*
X151050714Y-64494580D01*
X151050714Y-64494580D02*
X151098333Y-64542200D01*
X151098333Y-64542200D02*
X151193571Y-64589819D01*
X151193571Y-64589819D02*
X151384047Y-64589819D01*
X151384047Y-64589819D02*
X151479285Y-64542200D01*
X151479285Y-64542200D02*
X151526904Y-64494580D01*
X151526904Y-64494580D02*
X151574523Y-64399342D01*
X151574523Y-64399342D02*
X151574523Y-63589819D01*
X152479285Y-63923152D02*
X152479285Y-64589819D01*
X152241190Y-63542200D02*
X152003095Y-64256485D01*
X152003095Y-64256485D02*
X152622142Y-64256485D01*
X128159819Y-63761666D02*
X127683628Y-64094999D01*
X128159819Y-64333094D02*
X127159819Y-64333094D01*
X127159819Y-64333094D02*
X127159819Y-63952142D01*
X127159819Y-63952142D02*
X127207438Y-63856904D01*
X127207438Y-63856904D02*
X127255057Y-63809285D01*
X127255057Y-63809285D02*
X127350295Y-63761666D01*
X127350295Y-63761666D02*
X127493152Y-63761666D01*
X127493152Y-63761666D02*
X127588390Y-63809285D01*
X127588390Y-63809285D02*
X127636009Y-63856904D01*
X127636009Y-63856904D02*
X127683628Y-63952142D01*
X127683628Y-63952142D02*
X127683628Y-64333094D01*
X127159819Y-62904523D02*
X127159819Y-63094999D01*
X127159819Y-63094999D02*
X127207438Y-63190237D01*
X127207438Y-63190237D02*
X127255057Y-63237856D01*
X127255057Y-63237856D02*
X127397914Y-63333094D01*
X127397914Y-63333094D02*
X127588390Y-63380713D01*
X127588390Y-63380713D02*
X127969342Y-63380713D01*
X127969342Y-63380713D02*
X128064580Y-63333094D01*
X128064580Y-63333094D02*
X128112200Y-63285475D01*
X128112200Y-63285475D02*
X128159819Y-63190237D01*
X128159819Y-63190237D02*
X128159819Y-62999761D01*
X128159819Y-62999761D02*
X128112200Y-62904523D01*
X128112200Y-62904523D02*
X128064580Y-62856904D01*
X128064580Y-62856904D02*
X127969342Y-62809285D01*
X127969342Y-62809285D02*
X127731247Y-62809285D01*
X127731247Y-62809285D02*
X127636009Y-62856904D01*
X127636009Y-62856904D02*
X127588390Y-62904523D01*
X127588390Y-62904523D02*
X127540771Y-62999761D01*
X127540771Y-62999761D02*
X127540771Y-63190237D01*
X127540771Y-63190237D02*
X127588390Y-63285475D01*
X127588390Y-63285475D02*
X127636009Y-63333094D01*
X127636009Y-63333094D02*
X127731247Y-63380713D01*
X181437200Y-121593332D02*
X181484819Y-121450475D01*
X181484819Y-121450475D02*
X181484819Y-121212380D01*
X181484819Y-121212380D02*
X181437200Y-121117142D01*
X181437200Y-121117142D02*
X181389580Y-121069523D01*
X181389580Y-121069523D02*
X181294342Y-121021904D01*
X181294342Y-121021904D02*
X181199104Y-121021904D01*
X181199104Y-121021904D02*
X181103866Y-121069523D01*
X181103866Y-121069523D02*
X181056247Y-121117142D01*
X181056247Y-121117142D02*
X181008628Y-121212380D01*
X181008628Y-121212380D02*
X180961009Y-121402856D01*
X180961009Y-121402856D02*
X180913390Y-121498094D01*
X180913390Y-121498094D02*
X180865771Y-121545713D01*
X180865771Y-121545713D02*
X180770533Y-121593332D01*
X180770533Y-121593332D02*
X180675295Y-121593332D01*
X180675295Y-121593332D02*
X180580057Y-121545713D01*
X180580057Y-121545713D02*
X180532438Y-121498094D01*
X180532438Y-121498094D02*
X180484819Y-121402856D01*
X180484819Y-121402856D02*
X180484819Y-121164761D01*
X180484819Y-121164761D02*
X180532438Y-121021904D01*
X180484819Y-120688570D02*
X181484819Y-120450475D01*
X181484819Y-120450475D02*
X180770533Y-120259999D01*
X180770533Y-120259999D02*
X181484819Y-120069523D01*
X181484819Y-120069523D02*
X180484819Y-119831428D01*
X180818152Y-119021904D02*
X181484819Y-119021904D01*
X180437200Y-119259999D02*
X181151485Y-119498094D01*
X181151485Y-119498094D02*
X181151485Y-118879047D01*
X164749819Y-114942857D02*
X164273628Y-115276190D01*
X164749819Y-115514285D02*
X163749819Y-115514285D01*
X163749819Y-115514285D02*
X163749819Y-115133333D01*
X163749819Y-115133333D02*
X163797438Y-115038095D01*
X163797438Y-115038095D02*
X163845057Y-114990476D01*
X163845057Y-114990476D02*
X163940295Y-114942857D01*
X163940295Y-114942857D02*
X164083152Y-114942857D01*
X164083152Y-114942857D02*
X164178390Y-114990476D01*
X164178390Y-114990476D02*
X164226009Y-115038095D01*
X164226009Y-115038095D02*
X164273628Y-115133333D01*
X164273628Y-115133333D02*
X164273628Y-115514285D01*
X164749819Y-113990476D02*
X164749819Y-114561904D01*
X164749819Y-114276190D02*
X163749819Y-114276190D01*
X163749819Y-114276190D02*
X163892676Y-114371428D01*
X163892676Y-114371428D02*
X163987914Y-114466666D01*
X163987914Y-114466666D02*
X164035533Y-114561904D01*
X163845057Y-113609523D02*
X163797438Y-113561904D01*
X163797438Y-113561904D02*
X163749819Y-113466666D01*
X163749819Y-113466666D02*
X163749819Y-113228571D01*
X163749819Y-113228571D02*
X163797438Y-113133333D01*
X163797438Y-113133333D02*
X163845057Y-113085714D01*
X163845057Y-113085714D02*
X163940295Y-113038095D01*
X163940295Y-113038095D02*
X164035533Y-113038095D01*
X164035533Y-113038095D02*
X164178390Y-113085714D01*
X164178390Y-113085714D02*
X164749819Y-113657142D01*
X164749819Y-113657142D02*
X164749819Y-113038095D01*
X109977200Y-103228332D02*
X110024819Y-103085475D01*
X110024819Y-103085475D02*
X110024819Y-102847380D01*
X110024819Y-102847380D02*
X109977200Y-102752142D01*
X109977200Y-102752142D02*
X109929580Y-102704523D01*
X109929580Y-102704523D02*
X109834342Y-102656904D01*
X109834342Y-102656904D02*
X109739104Y-102656904D01*
X109739104Y-102656904D02*
X109643866Y-102704523D01*
X109643866Y-102704523D02*
X109596247Y-102752142D01*
X109596247Y-102752142D02*
X109548628Y-102847380D01*
X109548628Y-102847380D02*
X109501009Y-103037856D01*
X109501009Y-103037856D02*
X109453390Y-103133094D01*
X109453390Y-103133094D02*
X109405771Y-103180713D01*
X109405771Y-103180713D02*
X109310533Y-103228332D01*
X109310533Y-103228332D02*
X109215295Y-103228332D01*
X109215295Y-103228332D02*
X109120057Y-103180713D01*
X109120057Y-103180713D02*
X109072438Y-103133094D01*
X109072438Y-103133094D02*
X109024819Y-103037856D01*
X109024819Y-103037856D02*
X109024819Y-102799761D01*
X109024819Y-102799761D02*
X109072438Y-102656904D01*
X109024819Y-102323570D02*
X110024819Y-102085475D01*
X110024819Y-102085475D02*
X109310533Y-101894999D01*
X109310533Y-101894999D02*
X110024819Y-101704523D01*
X110024819Y-101704523D02*
X109024819Y-101466428D01*
X109120057Y-101133094D02*
X109072438Y-101085475D01*
X109072438Y-101085475D02*
X109024819Y-100990237D01*
X109024819Y-100990237D02*
X109024819Y-100752142D01*
X109024819Y-100752142D02*
X109072438Y-100656904D01*
X109072438Y-100656904D02*
X109120057Y-100609285D01*
X109120057Y-100609285D02*
X109215295Y-100561666D01*
X109215295Y-100561666D02*
X109310533Y-100561666D01*
X109310533Y-100561666D02*
X109453390Y-100609285D01*
X109453390Y-100609285D02*
X110024819Y-101180713D01*
X110024819Y-101180713D02*
X110024819Y-100561666D01*
X143363333Y-99464580D02*
X143315714Y-99512200D01*
X143315714Y-99512200D02*
X143172857Y-99559819D01*
X143172857Y-99559819D02*
X143077619Y-99559819D01*
X143077619Y-99559819D02*
X142934762Y-99512200D01*
X142934762Y-99512200D02*
X142839524Y-99416961D01*
X142839524Y-99416961D02*
X142791905Y-99321723D01*
X142791905Y-99321723D02*
X142744286Y-99131247D01*
X142744286Y-99131247D02*
X142744286Y-98988390D01*
X142744286Y-98988390D02*
X142791905Y-98797914D01*
X142791905Y-98797914D02*
X142839524Y-98702676D01*
X142839524Y-98702676D02*
X142934762Y-98607438D01*
X142934762Y-98607438D02*
X143077619Y-98559819D01*
X143077619Y-98559819D02*
X143172857Y-98559819D01*
X143172857Y-98559819D02*
X143315714Y-98607438D01*
X143315714Y-98607438D02*
X143363333Y-98655057D01*
X143744286Y-98655057D02*
X143791905Y-98607438D01*
X143791905Y-98607438D02*
X143887143Y-98559819D01*
X143887143Y-98559819D02*
X144125238Y-98559819D01*
X144125238Y-98559819D02*
X144220476Y-98607438D01*
X144220476Y-98607438D02*
X144268095Y-98655057D01*
X144268095Y-98655057D02*
X144315714Y-98750295D01*
X144315714Y-98750295D02*
X144315714Y-98845533D01*
X144315714Y-98845533D02*
X144268095Y-98988390D01*
X144268095Y-98988390D02*
X143696667Y-99559819D01*
X143696667Y-99559819D02*
X144315714Y-99559819D01*
X158583333Y-62589580D02*
X158535714Y-62637200D01*
X158535714Y-62637200D02*
X158392857Y-62684819D01*
X158392857Y-62684819D02*
X158297619Y-62684819D01*
X158297619Y-62684819D02*
X158154762Y-62637200D01*
X158154762Y-62637200D02*
X158059524Y-62541961D01*
X158059524Y-62541961D02*
X158011905Y-62446723D01*
X158011905Y-62446723D02*
X157964286Y-62256247D01*
X157964286Y-62256247D02*
X157964286Y-62113390D01*
X157964286Y-62113390D02*
X158011905Y-61922914D01*
X158011905Y-61922914D02*
X158059524Y-61827676D01*
X158059524Y-61827676D02*
X158154762Y-61732438D01*
X158154762Y-61732438D02*
X158297619Y-61684819D01*
X158297619Y-61684819D02*
X158392857Y-61684819D01*
X158392857Y-61684819D02*
X158535714Y-61732438D01*
X158535714Y-61732438D02*
X158583333Y-61780057D01*
X159154762Y-62113390D02*
X159059524Y-62065771D01*
X159059524Y-62065771D02*
X159011905Y-62018152D01*
X159011905Y-62018152D02*
X158964286Y-61922914D01*
X158964286Y-61922914D02*
X158964286Y-61875295D01*
X158964286Y-61875295D02*
X159011905Y-61780057D01*
X159011905Y-61780057D02*
X159059524Y-61732438D01*
X159059524Y-61732438D02*
X159154762Y-61684819D01*
X159154762Y-61684819D02*
X159345238Y-61684819D01*
X159345238Y-61684819D02*
X159440476Y-61732438D01*
X159440476Y-61732438D02*
X159488095Y-61780057D01*
X159488095Y-61780057D02*
X159535714Y-61875295D01*
X159535714Y-61875295D02*
X159535714Y-61922914D01*
X159535714Y-61922914D02*
X159488095Y-62018152D01*
X159488095Y-62018152D02*
X159440476Y-62065771D01*
X159440476Y-62065771D02*
X159345238Y-62113390D01*
X159345238Y-62113390D02*
X159154762Y-62113390D01*
X159154762Y-62113390D02*
X159059524Y-62161009D01*
X159059524Y-62161009D02*
X159011905Y-62208628D01*
X159011905Y-62208628D02*
X158964286Y-62303866D01*
X158964286Y-62303866D02*
X158964286Y-62494342D01*
X158964286Y-62494342D02*
X159011905Y-62589580D01*
X159011905Y-62589580D02*
X159059524Y-62637200D01*
X159059524Y-62637200D02*
X159154762Y-62684819D01*
X159154762Y-62684819D02*
X159345238Y-62684819D01*
X159345238Y-62684819D02*
X159440476Y-62637200D01*
X159440476Y-62637200D02*
X159488095Y-62589580D01*
X159488095Y-62589580D02*
X159535714Y-62494342D01*
X159535714Y-62494342D02*
X159535714Y-62303866D01*
X159535714Y-62303866D02*
X159488095Y-62208628D01*
X159488095Y-62208628D02*
X159440476Y-62161009D01*
X159440476Y-62161009D02*
X159345238Y-62113390D01*
X153027142Y-118294580D02*
X152979523Y-118342200D01*
X152979523Y-118342200D02*
X152836666Y-118389819D01*
X152836666Y-118389819D02*
X152741428Y-118389819D01*
X152741428Y-118389819D02*
X152598571Y-118342200D01*
X152598571Y-118342200D02*
X152503333Y-118246961D01*
X152503333Y-118246961D02*
X152455714Y-118151723D01*
X152455714Y-118151723D02*
X152408095Y-117961247D01*
X152408095Y-117961247D02*
X152408095Y-117818390D01*
X152408095Y-117818390D02*
X152455714Y-117627914D01*
X152455714Y-117627914D02*
X152503333Y-117532676D01*
X152503333Y-117532676D02*
X152598571Y-117437438D01*
X152598571Y-117437438D02*
X152741428Y-117389819D01*
X152741428Y-117389819D02*
X152836666Y-117389819D01*
X152836666Y-117389819D02*
X152979523Y-117437438D01*
X152979523Y-117437438D02*
X153027142Y-117485057D01*
X153979523Y-118389819D02*
X153408095Y-118389819D01*
X153693809Y-118389819D02*
X153693809Y-117389819D01*
X153693809Y-117389819D02*
X153598571Y-117532676D01*
X153598571Y-117532676D02*
X153503333Y-117627914D01*
X153503333Y-117627914D02*
X153408095Y-117675533D01*
X154360476Y-117485057D02*
X154408095Y-117437438D01*
X154408095Y-117437438D02*
X154503333Y-117389819D01*
X154503333Y-117389819D02*
X154741428Y-117389819D01*
X154741428Y-117389819D02*
X154836666Y-117437438D01*
X154836666Y-117437438D02*
X154884285Y-117485057D01*
X154884285Y-117485057D02*
X154931904Y-117580295D01*
X154931904Y-117580295D02*
X154931904Y-117675533D01*
X154931904Y-117675533D02*
X154884285Y-117818390D01*
X154884285Y-117818390D02*
X154312857Y-118389819D01*
X154312857Y-118389819D02*
X154931904Y-118389819D01*
X138366190Y-71007438D02*
X138366190Y-72626485D01*
X138366190Y-72626485D02*
X138461428Y-72816961D01*
X138461428Y-72816961D02*
X138556666Y-72912200D01*
X138556666Y-72912200D02*
X138747142Y-73007438D01*
X138747142Y-73007438D02*
X139128095Y-73007438D01*
X139128095Y-73007438D02*
X139318571Y-72912200D01*
X139318571Y-72912200D02*
X139413809Y-72816961D01*
X139413809Y-72816961D02*
X139509047Y-72626485D01*
X139509047Y-72626485D02*
X139509047Y-71007438D01*
X141509047Y-73007438D02*
X140366190Y-73007438D01*
X140937618Y-73007438D02*
X140937618Y-71007438D01*
X140937618Y-71007438D02*
X140747142Y-71293152D01*
X140747142Y-71293152D02*
X140556666Y-71483628D01*
X140556666Y-71483628D02*
X140366190Y-71578866D01*
X154248392Y-52964580D02*
X154200773Y-53012200D01*
X154200773Y-53012200D02*
X154057916Y-53059819D01*
X154057916Y-53059819D02*
X153962678Y-53059819D01*
X153962678Y-53059819D02*
X153819821Y-53012200D01*
X153819821Y-53012200D02*
X153724583Y-52916961D01*
X153724583Y-52916961D02*
X153676964Y-52821723D01*
X153676964Y-52821723D02*
X153629345Y-52631247D01*
X153629345Y-52631247D02*
X153629345Y-52488390D01*
X153629345Y-52488390D02*
X153676964Y-52297914D01*
X153676964Y-52297914D02*
X153724583Y-52202676D01*
X153724583Y-52202676D02*
X153819821Y-52107438D01*
X153819821Y-52107438D02*
X153962678Y-52059819D01*
X153962678Y-52059819D02*
X154057916Y-52059819D01*
X154057916Y-52059819D02*
X154200773Y-52107438D01*
X154200773Y-52107438D02*
X154248392Y-52155057D01*
X155200773Y-53059819D02*
X154629345Y-53059819D01*
X154915059Y-53059819D02*
X154915059Y-52059819D01*
X154915059Y-52059819D02*
X154819821Y-52202676D01*
X154819821Y-52202676D02*
X154724583Y-52297914D01*
X154724583Y-52297914D02*
X154629345Y-52345533D01*
X155819821Y-52059819D02*
X155915059Y-52059819D01*
X155915059Y-52059819D02*
X156010297Y-52107438D01*
X156010297Y-52107438D02*
X156057916Y-52155057D01*
X156057916Y-52155057D02*
X156105535Y-52250295D01*
X156105535Y-52250295D02*
X156153154Y-52440771D01*
X156153154Y-52440771D02*
X156153154Y-52678866D01*
X156153154Y-52678866D02*
X156105535Y-52869342D01*
X156105535Y-52869342D02*
X156057916Y-52964580D01*
X156057916Y-52964580D02*
X156010297Y-53012200D01*
X156010297Y-53012200D02*
X155915059Y-53059819D01*
X155915059Y-53059819D02*
X155819821Y-53059819D01*
X155819821Y-53059819D02*
X155724583Y-53012200D01*
X155724583Y-53012200D02*
X155676964Y-52964580D01*
X155676964Y-52964580D02*
X155629345Y-52869342D01*
X155629345Y-52869342D02*
X155581726Y-52678866D01*
X155581726Y-52678866D02*
X155581726Y-52440771D01*
X155581726Y-52440771D02*
X155629345Y-52250295D01*
X155629345Y-52250295D02*
X155676964Y-52155057D01*
X155676964Y-52155057D02*
X155724583Y-52107438D01*
X155724583Y-52107438D02*
X155819821Y-52059819D01*
X127429580Y-123061666D02*
X127477200Y-123109285D01*
X127477200Y-123109285D02*
X127524819Y-123252142D01*
X127524819Y-123252142D02*
X127524819Y-123347380D01*
X127524819Y-123347380D02*
X127477200Y-123490237D01*
X127477200Y-123490237D02*
X127381961Y-123585475D01*
X127381961Y-123585475D02*
X127286723Y-123633094D01*
X127286723Y-123633094D02*
X127096247Y-123680713D01*
X127096247Y-123680713D02*
X126953390Y-123680713D01*
X126953390Y-123680713D02*
X126762914Y-123633094D01*
X126762914Y-123633094D02*
X126667676Y-123585475D01*
X126667676Y-123585475D02*
X126572438Y-123490237D01*
X126572438Y-123490237D02*
X126524819Y-123347380D01*
X126524819Y-123347380D02*
X126524819Y-123252142D01*
X126524819Y-123252142D02*
X126572438Y-123109285D01*
X126572438Y-123109285D02*
X126620057Y-123061666D01*
X126524819Y-122728332D02*
X126524819Y-122061666D01*
X126524819Y-122061666D02*
X127524819Y-122490237D01*
X108403333Y-96849819D02*
X108070000Y-96373628D01*
X107831905Y-96849819D02*
X107831905Y-95849819D01*
X107831905Y-95849819D02*
X108212857Y-95849819D01*
X108212857Y-95849819D02*
X108308095Y-95897438D01*
X108308095Y-95897438D02*
X108355714Y-95945057D01*
X108355714Y-95945057D02*
X108403333Y-96040295D01*
X108403333Y-96040295D02*
X108403333Y-96183152D01*
X108403333Y-96183152D02*
X108355714Y-96278390D01*
X108355714Y-96278390D02*
X108308095Y-96326009D01*
X108308095Y-96326009D02*
X108212857Y-96373628D01*
X108212857Y-96373628D02*
X107831905Y-96373628D01*
X108974762Y-96278390D02*
X108879524Y-96230771D01*
X108879524Y-96230771D02*
X108831905Y-96183152D01*
X108831905Y-96183152D02*
X108784286Y-96087914D01*
X108784286Y-96087914D02*
X108784286Y-96040295D01*
X108784286Y-96040295D02*
X108831905Y-95945057D01*
X108831905Y-95945057D02*
X108879524Y-95897438D01*
X108879524Y-95897438D02*
X108974762Y-95849819D01*
X108974762Y-95849819D02*
X109165238Y-95849819D01*
X109165238Y-95849819D02*
X109260476Y-95897438D01*
X109260476Y-95897438D02*
X109308095Y-95945057D01*
X109308095Y-95945057D02*
X109355714Y-96040295D01*
X109355714Y-96040295D02*
X109355714Y-96087914D01*
X109355714Y-96087914D02*
X109308095Y-96183152D01*
X109308095Y-96183152D02*
X109260476Y-96230771D01*
X109260476Y-96230771D02*
X109165238Y-96278390D01*
X109165238Y-96278390D02*
X108974762Y-96278390D01*
X108974762Y-96278390D02*
X108879524Y-96326009D01*
X108879524Y-96326009D02*
X108831905Y-96373628D01*
X108831905Y-96373628D02*
X108784286Y-96468866D01*
X108784286Y-96468866D02*
X108784286Y-96659342D01*
X108784286Y-96659342D02*
X108831905Y-96754580D01*
X108831905Y-96754580D02*
X108879524Y-96802200D01*
X108879524Y-96802200D02*
X108974762Y-96849819D01*
X108974762Y-96849819D02*
X109165238Y-96849819D01*
X109165238Y-96849819D02*
X109260476Y-96802200D01*
X109260476Y-96802200D02*
X109308095Y-96754580D01*
X109308095Y-96754580D02*
X109355714Y-96659342D01*
X109355714Y-96659342D02*
X109355714Y-96468866D01*
X109355714Y-96468866D02*
X109308095Y-96373628D01*
X109308095Y-96373628D02*
X109260476Y-96326009D01*
X109260476Y-96326009D02*
X109165238Y-96278390D01*
X128159819Y-73951666D02*
X127683628Y-74284999D01*
X128159819Y-74523094D02*
X127159819Y-74523094D01*
X127159819Y-74523094D02*
X127159819Y-74142142D01*
X127159819Y-74142142D02*
X127207438Y-74046904D01*
X127207438Y-74046904D02*
X127255057Y-73999285D01*
X127255057Y-73999285D02*
X127350295Y-73951666D01*
X127350295Y-73951666D02*
X127493152Y-73951666D01*
X127493152Y-73951666D02*
X127588390Y-73999285D01*
X127588390Y-73999285D02*
X127636009Y-74046904D01*
X127636009Y-74046904D02*
X127683628Y-74142142D01*
X127683628Y-74142142D02*
X127683628Y-74523094D01*
X127159819Y-73618332D02*
X127159819Y-72951666D01*
X127159819Y-72951666D02*
X128159819Y-73380237D01*
X131278333Y-116564580D02*
X131230714Y-116612200D01*
X131230714Y-116612200D02*
X131087857Y-116659819D01*
X131087857Y-116659819D02*
X130992619Y-116659819D01*
X130992619Y-116659819D02*
X130849762Y-116612200D01*
X130849762Y-116612200D02*
X130754524Y-116516961D01*
X130754524Y-116516961D02*
X130706905Y-116421723D01*
X130706905Y-116421723D02*
X130659286Y-116231247D01*
X130659286Y-116231247D02*
X130659286Y-116088390D01*
X130659286Y-116088390D02*
X130706905Y-115897914D01*
X130706905Y-115897914D02*
X130754524Y-115802676D01*
X130754524Y-115802676D02*
X130849762Y-115707438D01*
X130849762Y-115707438D02*
X130992619Y-115659819D01*
X130992619Y-115659819D02*
X131087857Y-115659819D01*
X131087857Y-115659819D02*
X131230714Y-115707438D01*
X131230714Y-115707438D02*
X131278333Y-115755057D01*
X131611667Y-115659819D02*
X132230714Y-115659819D01*
X132230714Y-115659819D02*
X131897381Y-116040771D01*
X131897381Y-116040771D02*
X132040238Y-116040771D01*
X132040238Y-116040771D02*
X132135476Y-116088390D01*
X132135476Y-116088390D02*
X132183095Y-116136009D01*
X132183095Y-116136009D02*
X132230714Y-116231247D01*
X132230714Y-116231247D02*
X132230714Y-116469342D01*
X132230714Y-116469342D02*
X132183095Y-116564580D01*
X132183095Y-116564580D02*
X132135476Y-116612200D01*
X132135476Y-116612200D02*
X132040238Y-116659819D01*
X132040238Y-116659819D02*
X131754524Y-116659819D01*
X131754524Y-116659819D02*
X131659286Y-116612200D01*
X131659286Y-116612200D02*
X131611667Y-116564580D01*
D11*
X157861190Y-86542238D02*
X157861190Y-88161285D01*
X157861190Y-88161285D02*
X157956428Y-88351761D01*
X157956428Y-88351761D02*
X158051666Y-88447000D01*
X158051666Y-88447000D02*
X158242142Y-88542238D01*
X158242142Y-88542238D02*
X158623095Y-88542238D01*
X158623095Y-88542238D02*
X158813571Y-88447000D01*
X158813571Y-88447000D02*
X158908809Y-88351761D01*
X158908809Y-88351761D02*
X159004047Y-88161285D01*
X159004047Y-88161285D02*
X159004047Y-86542238D01*
X159861190Y-86732714D02*
X159956428Y-86637476D01*
X159956428Y-86637476D02*
X160146904Y-86542238D01*
X160146904Y-86542238D02*
X160623095Y-86542238D01*
X160623095Y-86542238D02*
X160813571Y-86637476D01*
X160813571Y-86637476D02*
X160908809Y-86732714D01*
X160908809Y-86732714D02*
X161004047Y-86923190D01*
X161004047Y-86923190D02*
X161004047Y-87113666D01*
X161004047Y-87113666D02*
X160908809Y-87399380D01*
X160908809Y-87399380D02*
X159765952Y-88542238D01*
X159765952Y-88542238D02*
X161004047Y-88542238D01*
D10*
X127524819Y-104037857D02*
X127048628Y-104371190D01*
X127524819Y-104609285D02*
X126524819Y-104609285D01*
X126524819Y-104609285D02*
X126524819Y-104228333D01*
X126524819Y-104228333D02*
X126572438Y-104133095D01*
X126572438Y-104133095D02*
X126620057Y-104085476D01*
X126620057Y-104085476D02*
X126715295Y-104037857D01*
X126715295Y-104037857D02*
X126858152Y-104037857D01*
X126858152Y-104037857D02*
X126953390Y-104085476D01*
X126953390Y-104085476D02*
X127001009Y-104133095D01*
X127001009Y-104133095D02*
X127048628Y-104228333D01*
X127048628Y-104228333D02*
X127048628Y-104609285D01*
X127524819Y-103085476D02*
X127524819Y-103656904D01*
X127524819Y-103371190D02*
X126524819Y-103371190D01*
X126524819Y-103371190D02*
X126667676Y-103466428D01*
X126667676Y-103466428D02*
X126762914Y-103561666D01*
X126762914Y-103561666D02*
X126810533Y-103656904D01*
X127524819Y-102133095D02*
X127524819Y-102704523D01*
X127524819Y-102418809D02*
X126524819Y-102418809D01*
X126524819Y-102418809D02*
X126667676Y-102514047D01*
X126667676Y-102514047D02*
X126762914Y-102609285D01*
X126762914Y-102609285D02*
X126810533Y-102704523D01*
X154248392Y-50464580D02*
X154200773Y-50512200D01*
X154200773Y-50512200D02*
X154057916Y-50559819D01*
X154057916Y-50559819D02*
X153962678Y-50559819D01*
X153962678Y-50559819D02*
X153819821Y-50512200D01*
X153819821Y-50512200D02*
X153724583Y-50416961D01*
X153724583Y-50416961D02*
X153676964Y-50321723D01*
X153676964Y-50321723D02*
X153629345Y-50131247D01*
X153629345Y-50131247D02*
X153629345Y-49988390D01*
X153629345Y-49988390D02*
X153676964Y-49797914D01*
X153676964Y-49797914D02*
X153724583Y-49702676D01*
X153724583Y-49702676D02*
X153819821Y-49607438D01*
X153819821Y-49607438D02*
X153962678Y-49559819D01*
X153962678Y-49559819D02*
X154057916Y-49559819D01*
X154057916Y-49559819D02*
X154200773Y-49607438D01*
X154200773Y-49607438D02*
X154248392Y-49655057D01*
X155200773Y-50559819D02*
X154629345Y-50559819D01*
X154915059Y-50559819D02*
X154915059Y-49559819D01*
X154915059Y-49559819D02*
X154819821Y-49702676D01*
X154819821Y-49702676D02*
X154724583Y-49797914D01*
X154724583Y-49797914D02*
X154629345Y-49845533D01*
X156153154Y-50559819D02*
X155581726Y-50559819D01*
X155867440Y-50559819D02*
X155867440Y-49559819D01*
X155867440Y-49559819D02*
X155772202Y-49702676D01*
X155772202Y-49702676D02*
X155676964Y-49797914D01*
X155676964Y-49797914D02*
X155581726Y-49845533D01*
X168094819Y-57951666D02*
X168094819Y-58427856D01*
X168094819Y-58427856D02*
X167094819Y-58427856D01*
X168094819Y-57094523D02*
X168094819Y-57665951D01*
X168094819Y-57380237D02*
X167094819Y-57380237D01*
X167094819Y-57380237D02*
X167237676Y-57475475D01*
X167237676Y-57475475D02*
X167332914Y-57570713D01*
X167332914Y-57570713D02*
X167380533Y-57665951D01*
X116403333Y-85754580D02*
X116355714Y-85802200D01*
X116355714Y-85802200D02*
X116212857Y-85849819D01*
X116212857Y-85849819D02*
X116117619Y-85849819D01*
X116117619Y-85849819D02*
X115974762Y-85802200D01*
X115974762Y-85802200D02*
X115879524Y-85706961D01*
X115879524Y-85706961D02*
X115831905Y-85611723D01*
X115831905Y-85611723D02*
X115784286Y-85421247D01*
X115784286Y-85421247D02*
X115784286Y-85278390D01*
X115784286Y-85278390D02*
X115831905Y-85087914D01*
X115831905Y-85087914D02*
X115879524Y-84992676D01*
X115879524Y-84992676D02*
X115974762Y-84897438D01*
X115974762Y-84897438D02*
X116117619Y-84849819D01*
X116117619Y-84849819D02*
X116212857Y-84849819D01*
X116212857Y-84849819D02*
X116355714Y-84897438D01*
X116355714Y-84897438D02*
X116403333Y-84945057D01*
X117260476Y-84849819D02*
X117070000Y-84849819D01*
X117070000Y-84849819D02*
X116974762Y-84897438D01*
X116974762Y-84897438D02*
X116927143Y-84945057D01*
X116927143Y-84945057D02*
X116831905Y-85087914D01*
X116831905Y-85087914D02*
X116784286Y-85278390D01*
X116784286Y-85278390D02*
X116784286Y-85659342D01*
X116784286Y-85659342D02*
X116831905Y-85754580D01*
X116831905Y-85754580D02*
X116879524Y-85802200D01*
X116879524Y-85802200D02*
X116974762Y-85849819D01*
X116974762Y-85849819D02*
X117165238Y-85849819D01*
X117165238Y-85849819D02*
X117260476Y-85802200D01*
X117260476Y-85802200D02*
X117308095Y-85754580D01*
X117308095Y-85754580D02*
X117355714Y-85659342D01*
X117355714Y-85659342D02*
X117355714Y-85421247D01*
X117355714Y-85421247D02*
X117308095Y-85326009D01*
X117308095Y-85326009D02*
X117260476Y-85278390D01*
X117260476Y-85278390D02*
X117165238Y-85230771D01*
X117165238Y-85230771D02*
X116974762Y-85230771D01*
X116974762Y-85230771D02*
X116879524Y-85278390D01*
X116879524Y-85278390D02*
X116831905Y-85326009D01*
X116831905Y-85326009D02*
X116784286Y-85421247D01*
X163068095Y-57874819D02*
X163068095Y-58684342D01*
X163068095Y-58684342D02*
X163115714Y-58779580D01*
X163115714Y-58779580D02*
X163163333Y-58827200D01*
X163163333Y-58827200D02*
X163258571Y-58874819D01*
X163258571Y-58874819D02*
X163449047Y-58874819D01*
X163449047Y-58874819D02*
X163544285Y-58827200D01*
X163544285Y-58827200D02*
X163591904Y-58779580D01*
X163591904Y-58779580D02*
X163639523Y-58684342D01*
X163639523Y-58684342D02*
X163639523Y-57874819D01*
X164544285Y-58208152D02*
X164544285Y-58874819D01*
X164306190Y-57827200D02*
X164068095Y-58541485D01*
X164068095Y-58541485D02*
X164687142Y-58541485D01*
X158141250Y-54182319D02*
X158141250Y-54420414D01*
X157903155Y-54325176D02*
X158141250Y-54420414D01*
X158141250Y-54420414D02*
X158379345Y-54325176D01*
X157998393Y-54610890D02*
X158141250Y-54420414D01*
X158141250Y-54420414D02*
X158284107Y-54610890D01*
X158141249Y-55272680D02*
X158141249Y-55034585D01*
X158379344Y-55129823D02*
X158141249Y-55034585D01*
X158141249Y-55034585D02*
X157903154Y-55129823D01*
X158284106Y-54844109D02*
X158141249Y-55034585D01*
X158141249Y-55034585D02*
X157998392Y-54844109D01*
X150963333Y-114754819D02*
X150630000Y-114278628D01*
X150391905Y-114754819D02*
X150391905Y-113754819D01*
X150391905Y-113754819D02*
X150772857Y-113754819D01*
X150772857Y-113754819D02*
X150868095Y-113802438D01*
X150868095Y-113802438D02*
X150915714Y-113850057D01*
X150915714Y-113850057D02*
X150963333Y-113945295D01*
X150963333Y-113945295D02*
X150963333Y-114088152D01*
X150963333Y-114088152D02*
X150915714Y-114183390D01*
X150915714Y-114183390D02*
X150868095Y-114231009D01*
X150868095Y-114231009D02*
X150772857Y-114278628D01*
X150772857Y-114278628D02*
X150391905Y-114278628D01*
X151296667Y-113754819D02*
X151915714Y-113754819D01*
X151915714Y-113754819D02*
X151582381Y-114135771D01*
X151582381Y-114135771D02*
X151725238Y-114135771D01*
X151725238Y-114135771D02*
X151820476Y-114183390D01*
X151820476Y-114183390D02*
X151868095Y-114231009D01*
X151868095Y-114231009D02*
X151915714Y-114326247D01*
X151915714Y-114326247D02*
X151915714Y-114564342D01*
X151915714Y-114564342D02*
X151868095Y-114659580D01*
X151868095Y-114659580D02*
X151820476Y-114707200D01*
X151820476Y-114707200D02*
X151725238Y-114754819D01*
X151725238Y-114754819D02*
X151439524Y-114754819D01*
X151439524Y-114754819D02*
X151344286Y-114707200D01*
X151344286Y-114707200D02*
X151296667Y-114659580D01*
X150484819Y-102877857D02*
X150008628Y-103211190D01*
X150484819Y-103449285D02*
X149484819Y-103449285D01*
X149484819Y-103449285D02*
X149484819Y-103068333D01*
X149484819Y-103068333D02*
X149532438Y-102973095D01*
X149532438Y-102973095D02*
X149580057Y-102925476D01*
X149580057Y-102925476D02*
X149675295Y-102877857D01*
X149675295Y-102877857D02*
X149818152Y-102877857D01*
X149818152Y-102877857D02*
X149913390Y-102925476D01*
X149913390Y-102925476D02*
X149961009Y-102973095D01*
X149961009Y-102973095D02*
X150008628Y-103068333D01*
X150008628Y-103068333D02*
X150008628Y-103449285D01*
X150484819Y-101925476D02*
X150484819Y-102496904D01*
X150484819Y-102211190D02*
X149484819Y-102211190D01*
X149484819Y-102211190D02*
X149627676Y-102306428D01*
X149627676Y-102306428D02*
X149722914Y-102401666D01*
X149722914Y-102401666D02*
X149770533Y-102496904D01*
X149484819Y-101592142D02*
X149484819Y-100973095D01*
X149484819Y-100973095D02*
X149865771Y-101306428D01*
X149865771Y-101306428D02*
X149865771Y-101163571D01*
X149865771Y-101163571D02*
X149913390Y-101068333D01*
X149913390Y-101068333D02*
X149961009Y-101020714D01*
X149961009Y-101020714D02*
X150056247Y-100973095D01*
X150056247Y-100973095D02*
X150294342Y-100973095D01*
X150294342Y-100973095D02*
X150389580Y-101020714D01*
X150389580Y-101020714D02*
X150437200Y-101068333D01*
X150437200Y-101068333D02*
X150484819Y-101163571D01*
X150484819Y-101163571D02*
X150484819Y-101449285D01*
X150484819Y-101449285D02*
X150437200Y-101544523D01*
X150437200Y-101544523D02*
X150389580Y-101592142D01*
X181429819Y-98432857D02*
X181429819Y-98909047D01*
X181429819Y-98909047D02*
X180429819Y-98909047D01*
X181382200Y-98147142D02*
X181429819Y-98004285D01*
X181429819Y-98004285D02*
X181429819Y-97766190D01*
X181429819Y-97766190D02*
X181382200Y-97670952D01*
X181382200Y-97670952D02*
X181334580Y-97623333D01*
X181334580Y-97623333D02*
X181239342Y-97575714D01*
X181239342Y-97575714D02*
X181144104Y-97575714D01*
X181144104Y-97575714D02*
X181048866Y-97623333D01*
X181048866Y-97623333D02*
X181001247Y-97670952D01*
X181001247Y-97670952D02*
X180953628Y-97766190D01*
X180953628Y-97766190D02*
X180906009Y-97956666D01*
X180906009Y-97956666D02*
X180858390Y-98051904D01*
X180858390Y-98051904D02*
X180810771Y-98099523D01*
X180810771Y-98099523D02*
X180715533Y-98147142D01*
X180715533Y-98147142D02*
X180620295Y-98147142D01*
X180620295Y-98147142D02*
X180525057Y-98099523D01*
X180525057Y-98099523D02*
X180477438Y-98051904D01*
X180477438Y-98051904D02*
X180429819Y-97956666D01*
X180429819Y-97956666D02*
X180429819Y-97718571D01*
X180429819Y-97718571D02*
X180477438Y-97575714D01*
X181429819Y-96623333D02*
X181429819Y-97194761D01*
X181429819Y-96909047D02*
X180429819Y-96909047D01*
X180429819Y-96909047D02*
X180572676Y-97004285D01*
X180572676Y-97004285D02*
X180667914Y-97099523D01*
X180667914Y-97099523D02*
X180715533Y-97194761D01*
X151822259Y-61973214D02*
X151869878Y-61830357D01*
X151869878Y-61830357D02*
X151917497Y-61782738D01*
X151917497Y-61782738D02*
X152012735Y-61735119D01*
X152012735Y-61735119D02*
X152155592Y-61735119D01*
X152155592Y-61735119D02*
X152250830Y-61782738D01*
X152250830Y-61782738D02*
X152298450Y-61830357D01*
X152298450Y-61830357D02*
X152346069Y-61925595D01*
X152346069Y-61925595D02*
X152346069Y-62306547D01*
X152346069Y-62306547D02*
X151346069Y-62306547D01*
X151346069Y-62306547D02*
X151346069Y-61973214D01*
X151346069Y-61973214D02*
X151393688Y-61877976D01*
X151393688Y-61877976D02*
X151441307Y-61830357D01*
X151441307Y-61830357D02*
X151536545Y-61782738D01*
X151536545Y-61782738D02*
X151631783Y-61782738D01*
X151631783Y-61782738D02*
X151727021Y-61830357D01*
X151727021Y-61830357D02*
X151774640Y-61877976D01*
X151774640Y-61877976D02*
X151822259Y-61973214D01*
X151822259Y-61973214D02*
X151822259Y-62306547D01*
X151346069Y-61449404D02*
X151346069Y-60877976D01*
X152346069Y-61163690D02*
X151346069Y-61163690D01*
X152346069Y-60020833D02*
X152346069Y-60592261D01*
X152346069Y-60306547D02*
X151346069Y-60306547D01*
X151346069Y-60306547D02*
X151488926Y-60401785D01*
X151488926Y-60401785D02*
X151584164Y-60497023D01*
X151584164Y-60497023D02*
X151631783Y-60592261D01*
X108538333Y-55549819D02*
X108205000Y-55073628D01*
X107966905Y-55549819D02*
X107966905Y-54549819D01*
X107966905Y-54549819D02*
X108347857Y-54549819D01*
X108347857Y-54549819D02*
X108443095Y-54597438D01*
X108443095Y-54597438D02*
X108490714Y-54645057D01*
X108490714Y-54645057D02*
X108538333Y-54740295D01*
X108538333Y-54740295D02*
X108538333Y-54883152D01*
X108538333Y-54883152D02*
X108490714Y-54978390D01*
X108490714Y-54978390D02*
X108443095Y-55026009D01*
X108443095Y-55026009D02*
X108347857Y-55073628D01*
X108347857Y-55073628D02*
X107966905Y-55073628D01*
X109395476Y-54883152D02*
X109395476Y-55549819D01*
X109157381Y-54502200D02*
X108919286Y-55216485D01*
X108919286Y-55216485D02*
X109538333Y-55216485D01*
X155394819Y-88431666D02*
X154918628Y-88764999D01*
X155394819Y-89003094D02*
X154394819Y-89003094D01*
X154394819Y-89003094D02*
X154394819Y-88622142D01*
X154394819Y-88622142D02*
X154442438Y-88526904D01*
X154442438Y-88526904D02*
X154490057Y-88479285D01*
X154490057Y-88479285D02*
X154585295Y-88431666D01*
X154585295Y-88431666D02*
X154728152Y-88431666D01*
X154728152Y-88431666D02*
X154823390Y-88479285D01*
X154823390Y-88479285D02*
X154871009Y-88526904D01*
X154871009Y-88526904D02*
X154918628Y-88622142D01*
X154918628Y-88622142D02*
X154918628Y-89003094D01*
X154490057Y-88050713D02*
X154442438Y-88003094D01*
X154442438Y-88003094D02*
X154394819Y-87907856D01*
X154394819Y-87907856D02*
X154394819Y-87669761D01*
X154394819Y-87669761D02*
X154442438Y-87574523D01*
X154442438Y-87574523D02*
X154490057Y-87526904D01*
X154490057Y-87526904D02*
X154585295Y-87479285D01*
X154585295Y-87479285D02*
X154680533Y-87479285D01*
X154680533Y-87479285D02*
X154823390Y-87526904D01*
X154823390Y-87526904D02*
X155394819Y-88098332D01*
X155394819Y-88098332D02*
X155394819Y-87479285D01*
X127524819Y-114537857D02*
X127048628Y-114871190D01*
X127524819Y-115109285D02*
X126524819Y-115109285D01*
X126524819Y-115109285D02*
X126524819Y-114728333D01*
X126524819Y-114728333D02*
X126572438Y-114633095D01*
X126572438Y-114633095D02*
X126620057Y-114585476D01*
X126620057Y-114585476D02*
X126715295Y-114537857D01*
X126715295Y-114537857D02*
X126858152Y-114537857D01*
X126858152Y-114537857D02*
X126953390Y-114585476D01*
X126953390Y-114585476D02*
X127001009Y-114633095D01*
X127001009Y-114633095D02*
X127048628Y-114728333D01*
X127048628Y-114728333D02*
X127048628Y-115109285D01*
X127524819Y-113585476D02*
X127524819Y-114156904D01*
X127524819Y-113871190D02*
X126524819Y-113871190D01*
X126524819Y-113871190D02*
X126667676Y-113966428D01*
X126667676Y-113966428D02*
X126762914Y-114061666D01*
X126762914Y-114061666D02*
X126810533Y-114156904D01*
X126524819Y-112966428D02*
X126524819Y-112871190D01*
X126524819Y-112871190D02*
X126572438Y-112775952D01*
X126572438Y-112775952D02*
X126620057Y-112728333D01*
X126620057Y-112728333D02*
X126715295Y-112680714D01*
X126715295Y-112680714D02*
X126905771Y-112633095D01*
X126905771Y-112633095D02*
X127143866Y-112633095D01*
X127143866Y-112633095D02*
X127334342Y-112680714D01*
X127334342Y-112680714D02*
X127429580Y-112728333D01*
X127429580Y-112728333D02*
X127477200Y-112775952D01*
X127477200Y-112775952D02*
X127524819Y-112871190D01*
X127524819Y-112871190D02*
X127524819Y-112966428D01*
X127524819Y-112966428D02*
X127477200Y-113061666D01*
X127477200Y-113061666D02*
X127429580Y-113109285D01*
X127429580Y-113109285D02*
X127334342Y-113156904D01*
X127334342Y-113156904D02*
X127143866Y-113204523D01*
X127143866Y-113204523D02*
X126905771Y-113204523D01*
X126905771Y-113204523D02*
X126715295Y-113156904D01*
X126715295Y-113156904D02*
X126620057Y-113109285D01*
X126620057Y-113109285D02*
X126572438Y-113061666D01*
X126572438Y-113061666D02*
X126524819Y-112966428D01*
X130683095Y-108674819D02*
X130683095Y-109484342D01*
X130683095Y-109484342D02*
X130730714Y-109579580D01*
X130730714Y-109579580D02*
X130778333Y-109627200D01*
X130778333Y-109627200D02*
X130873571Y-109674819D01*
X130873571Y-109674819D02*
X131064047Y-109674819D01*
X131064047Y-109674819D02*
X131159285Y-109627200D01*
X131159285Y-109627200D02*
X131206904Y-109579580D01*
X131206904Y-109579580D02*
X131254523Y-109484342D01*
X131254523Y-109484342D02*
X131254523Y-108674819D01*
X131635476Y-108674819D02*
X132254523Y-108674819D01*
X132254523Y-108674819D02*
X131921190Y-109055771D01*
X131921190Y-109055771D02*
X132064047Y-109055771D01*
X132064047Y-109055771D02*
X132159285Y-109103390D01*
X132159285Y-109103390D02*
X132206904Y-109151009D01*
X132206904Y-109151009D02*
X132254523Y-109246247D01*
X132254523Y-109246247D02*
X132254523Y-109484342D01*
X132254523Y-109484342D02*
X132206904Y-109579580D01*
X132206904Y-109579580D02*
X132159285Y-109627200D01*
X132159285Y-109627200D02*
X132064047Y-109674819D01*
X132064047Y-109674819D02*
X131778333Y-109674819D01*
X131778333Y-109674819D02*
X131683095Y-109627200D01*
X131683095Y-109627200D02*
X131635476Y-109579580D01*
X181437200Y-110593332D02*
X181484819Y-110450475D01*
X181484819Y-110450475D02*
X181484819Y-110212380D01*
X181484819Y-110212380D02*
X181437200Y-110117142D01*
X181437200Y-110117142D02*
X181389580Y-110069523D01*
X181389580Y-110069523D02*
X181294342Y-110021904D01*
X181294342Y-110021904D02*
X181199104Y-110021904D01*
X181199104Y-110021904D02*
X181103866Y-110069523D01*
X181103866Y-110069523D02*
X181056247Y-110117142D01*
X181056247Y-110117142D02*
X181008628Y-110212380D01*
X181008628Y-110212380D02*
X180961009Y-110402856D01*
X180961009Y-110402856D02*
X180913390Y-110498094D01*
X180913390Y-110498094D02*
X180865771Y-110545713D01*
X180865771Y-110545713D02*
X180770533Y-110593332D01*
X180770533Y-110593332D02*
X180675295Y-110593332D01*
X180675295Y-110593332D02*
X180580057Y-110545713D01*
X180580057Y-110545713D02*
X180532438Y-110498094D01*
X180532438Y-110498094D02*
X180484819Y-110402856D01*
X180484819Y-110402856D02*
X180484819Y-110164761D01*
X180484819Y-110164761D02*
X180532438Y-110021904D01*
X180484819Y-109688570D02*
X181484819Y-109450475D01*
X181484819Y-109450475D02*
X180770533Y-109259999D01*
X180770533Y-109259999D02*
X181484819Y-109069523D01*
X181484819Y-109069523D02*
X180484819Y-108831428D01*
X180484819Y-108545713D02*
X180484819Y-107926666D01*
X180484819Y-107926666D02*
X180865771Y-108259999D01*
X180865771Y-108259999D02*
X180865771Y-108117142D01*
X180865771Y-108117142D02*
X180913390Y-108021904D01*
X180913390Y-108021904D02*
X180961009Y-107974285D01*
X180961009Y-107974285D02*
X181056247Y-107926666D01*
X181056247Y-107926666D02*
X181294342Y-107926666D01*
X181294342Y-107926666D02*
X181389580Y-107974285D01*
X181389580Y-107974285D02*
X181437200Y-108021904D01*
X181437200Y-108021904D02*
X181484819Y-108117142D01*
X181484819Y-108117142D02*
X181484819Y-108402856D01*
X181484819Y-108402856D02*
X181437200Y-108498094D01*
X181437200Y-108498094D02*
X181389580Y-108545713D01*
X162872619Y-129229819D02*
X162872619Y-128229819D01*
X162872619Y-128229819D02*
X163110714Y-128229819D01*
X163110714Y-128229819D02*
X163253571Y-128277438D01*
X163253571Y-128277438D02*
X163348809Y-128372676D01*
X163348809Y-128372676D02*
X163396428Y-128467914D01*
X163396428Y-128467914D02*
X163444047Y-128658390D01*
X163444047Y-128658390D02*
X163444047Y-128801247D01*
X163444047Y-128801247D02*
X163396428Y-128991723D01*
X163396428Y-128991723D02*
X163348809Y-129086961D01*
X163348809Y-129086961D02*
X163253571Y-129182200D01*
X163253571Y-129182200D02*
X163110714Y-129229819D01*
X163110714Y-129229819D02*
X162872619Y-129229819D01*
X163872619Y-129229819D02*
X163872619Y-128229819D01*
X164301190Y-129182200D02*
X164444047Y-129229819D01*
X164444047Y-129229819D02*
X164682142Y-129229819D01*
X164682142Y-129229819D02*
X164777380Y-129182200D01*
X164777380Y-129182200D02*
X164824999Y-129134580D01*
X164824999Y-129134580D02*
X164872618Y-129039342D01*
X164872618Y-129039342D02*
X164872618Y-128944104D01*
X164872618Y-128944104D02*
X164824999Y-128848866D01*
X164824999Y-128848866D02*
X164777380Y-128801247D01*
X164777380Y-128801247D02*
X164682142Y-128753628D01*
X164682142Y-128753628D02*
X164491666Y-128706009D01*
X164491666Y-128706009D02*
X164396428Y-128658390D01*
X164396428Y-128658390D02*
X164348809Y-128610771D01*
X164348809Y-128610771D02*
X164301190Y-128515533D01*
X164301190Y-128515533D02*
X164301190Y-128420295D01*
X164301190Y-128420295D02*
X164348809Y-128325057D01*
X164348809Y-128325057D02*
X164396428Y-128277438D01*
X164396428Y-128277438D02*
X164491666Y-128229819D01*
X164491666Y-128229819D02*
X164729761Y-128229819D01*
X164729761Y-128229819D02*
X164872618Y-128277438D01*
X165301190Y-129229819D02*
X165301190Y-128229819D01*
X165301190Y-128229819D02*
X165682142Y-128229819D01*
X165682142Y-128229819D02*
X165777380Y-128277438D01*
X165777380Y-128277438D02*
X165824999Y-128325057D01*
X165824999Y-128325057D02*
X165872618Y-128420295D01*
X165872618Y-128420295D02*
X165872618Y-128563152D01*
X165872618Y-128563152D02*
X165824999Y-128658390D01*
X165824999Y-128658390D02*
X165777380Y-128706009D01*
X165777380Y-128706009D02*
X165682142Y-128753628D01*
X165682142Y-128753628D02*
X165301190Y-128753628D01*
X166824999Y-129229819D02*
X166253571Y-129229819D01*
X166539285Y-129229819D02*
X166539285Y-128229819D01*
X166539285Y-128229819D02*
X166444047Y-128372676D01*
X166444047Y-128372676D02*
X166348809Y-128467914D01*
X166348809Y-128467914D02*
X166253571Y-128515533D01*
X163474583Y-50087080D02*
X163426964Y-50134700D01*
X163426964Y-50134700D02*
X163284107Y-50182319D01*
X163284107Y-50182319D02*
X163188869Y-50182319D01*
X163188869Y-50182319D02*
X163046012Y-50134700D01*
X163046012Y-50134700D02*
X162950774Y-50039461D01*
X162950774Y-50039461D02*
X162903155Y-49944223D01*
X162903155Y-49944223D02*
X162855536Y-49753747D01*
X162855536Y-49753747D02*
X162855536Y-49610890D01*
X162855536Y-49610890D02*
X162903155Y-49420414D01*
X162903155Y-49420414D02*
X162950774Y-49325176D01*
X162950774Y-49325176D02*
X163046012Y-49229938D01*
X163046012Y-49229938D02*
X163188869Y-49182319D01*
X163188869Y-49182319D02*
X163284107Y-49182319D01*
X163284107Y-49182319D02*
X163426964Y-49229938D01*
X163426964Y-49229938D02*
X163474583Y-49277557D01*
X163950774Y-50182319D02*
X164141250Y-50182319D01*
X164141250Y-50182319D02*
X164236488Y-50134700D01*
X164236488Y-50134700D02*
X164284107Y-50087080D01*
X164284107Y-50087080D02*
X164379345Y-49944223D01*
X164379345Y-49944223D02*
X164426964Y-49753747D01*
X164426964Y-49753747D02*
X164426964Y-49372795D01*
X164426964Y-49372795D02*
X164379345Y-49277557D01*
X164379345Y-49277557D02*
X164331726Y-49229938D01*
X164331726Y-49229938D02*
X164236488Y-49182319D01*
X164236488Y-49182319D02*
X164046012Y-49182319D01*
X164046012Y-49182319D02*
X163950774Y-49229938D01*
X163950774Y-49229938D02*
X163903155Y-49277557D01*
X163903155Y-49277557D02*
X163855536Y-49372795D01*
X163855536Y-49372795D02*
X163855536Y-49610890D01*
X163855536Y-49610890D02*
X163903155Y-49706128D01*
X163903155Y-49706128D02*
X163950774Y-49753747D01*
X163950774Y-49753747D02*
X164046012Y-49801366D01*
X164046012Y-49801366D02*
X164236488Y-49801366D01*
X164236488Y-49801366D02*
X164331726Y-49753747D01*
X164331726Y-49753747D02*
X164379345Y-49706128D01*
X164379345Y-49706128D02*
X164426964Y-49610890D01*
X110612200Y-62428332D02*
X110659819Y-62285475D01*
X110659819Y-62285475D02*
X110659819Y-62047380D01*
X110659819Y-62047380D02*
X110612200Y-61952142D01*
X110612200Y-61952142D02*
X110564580Y-61904523D01*
X110564580Y-61904523D02*
X110469342Y-61856904D01*
X110469342Y-61856904D02*
X110374104Y-61856904D01*
X110374104Y-61856904D02*
X110278866Y-61904523D01*
X110278866Y-61904523D02*
X110231247Y-61952142D01*
X110231247Y-61952142D02*
X110183628Y-62047380D01*
X110183628Y-62047380D02*
X110136009Y-62237856D01*
X110136009Y-62237856D02*
X110088390Y-62333094D01*
X110088390Y-62333094D02*
X110040771Y-62380713D01*
X110040771Y-62380713D02*
X109945533Y-62428332D01*
X109945533Y-62428332D02*
X109850295Y-62428332D01*
X109850295Y-62428332D02*
X109755057Y-62380713D01*
X109755057Y-62380713D02*
X109707438Y-62333094D01*
X109707438Y-62333094D02*
X109659819Y-62237856D01*
X109659819Y-62237856D02*
X109659819Y-61999761D01*
X109659819Y-61999761D02*
X109707438Y-61856904D01*
X109659819Y-61523570D02*
X110659819Y-61285475D01*
X110659819Y-61285475D02*
X109945533Y-61094999D01*
X109945533Y-61094999D02*
X110659819Y-60904523D01*
X110659819Y-60904523D02*
X109659819Y-60666428D01*
X110659819Y-59761666D02*
X110659819Y-60333094D01*
X110659819Y-60047380D02*
X109659819Y-60047380D01*
X109659819Y-60047380D02*
X109802676Y-60142618D01*
X109802676Y-60142618D02*
X109897914Y-60237856D01*
X109897914Y-60237856D02*
X109945533Y-60333094D01*
X132651667Y-127847200D02*
X132794524Y-127894819D01*
X132794524Y-127894819D02*
X133032619Y-127894819D01*
X133032619Y-127894819D02*
X133127857Y-127847200D01*
X133127857Y-127847200D02*
X133175476Y-127799580D01*
X133175476Y-127799580D02*
X133223095Y-127704342D01*
X133223095Y-127704342D02*
X133223095Y-127609104D01*
X133223095Y-127609104D02*
X133175476Y-127513866D01*
X133175476Y-127513866D02*
X133127857Y-127466247D01*
X133127857Y-127466247D02*
X133032619Y-127418628D01*
X133032619Y-127418628D02*
X132842143Y-127371009D01*
X132842143Y-127371009D02*
X132746905Y-127323390D01*
X132746905Y-127323390D02*
X132699286Y-127275771D01*
X132699286Y-127275771D02*
X132651667Y-127180533D01*
X132651667Y-127180533D02*
X132651667Y-127085295D01*
X132651667Y-127085295D02*
X132699286Y-126990057D01*
X132699286Y-126990057D02*
X132746905Y-126942438D01*
X132746905Y-126942438D02*
X132842143Y-126894819D01*
X132842143Y-126894819D02*
X133080238Y-126894819D01*
X133080238Y-126894819D02*
X133223095Y-126942438D01*
X133556429Y-126894819D02*
X133794524Y-127894819D01*
X133794524Y-127894819D02*
X133985000Y-127180533D01*
X133985000Y-127180533D02*
X134175476Y-127894819D01*
X134175476Y-127894819D02*
X134413572Y-126894819D01*
X135270714Y-126894819D02*
X134794524Y-126894819D01*
X134794524Y-126894819D02*
X134746905Y-127371009D01*
X134746905Y-127371009D02*
X134794524Y-127323390D01*
X134794524Y-127323390D02*
X134889762Y-127275771D01*
X134889762Y-127275771D02*
X135127857Y-127275771D01*
X135127857Y-127275771D02*
X135223095Y-127323390D01*
X135223095Y-127323390D02*
X135270714Y-127371009D01*
X135270714Y-127371009D02*
X135318333Y-127466247D01*
X135318333Y-127466247D02*
X135318333Y-127704342D01*
X135318333Y-127704342D02*
X135270714Y-127799580D01*
X135270714Y-127799580D02*
X135223095Y-127847200D01*
X135223095Y-127847200D02*
X135127857Y-127894819D01*
X135127857Y-127894819D02*
X134889762Y-127894819D01*
X134889762Y-127894819D02*
X134794524Y-127847200D01*
X134794524Y-127847200D02*
X134746905Y-127799580D01*
X128064580Y-82761666D02*
X128112200Y-82809285D01*
X128112200Y-82809285D02*
X128159819Y-82952142D01*
X128159819Y-82952142D02*
X128159819Y-83047380D01*
X128159819Y-83047380D02*
X128112200Y-83190237D01*
X128112200Y-83190237D02*
X128016961Y-83285475D01*
X128016961Y-83285475D02*
X127921723Y-83333094D01*
X127921723Y-83333094D02*
X127731247Y-83380713D01*
X127731247Y-83380713D02*
X127588390Y-83380713D01*
X127588390Y-83380713D02*
X127397914Y-83333094D01*
X127397914Y-83333094D02*
X127302676Y-83285475D01*
X127302676Y-83285475D02*
X127207438Y-83190237D01*
X127207438Y-83190237D02*
X127159819Y-83047380D01*
X127159819Y-83047380D02*
X127159819Y-82952142D01*
X127159819Y-82952142D02*
X127207438Y-82809285D01*
X127207438Y-82809285D02*
X127255057Y-82761666D01*
X127159819Y-81856904D02*
X127159819Y-82333094D01*
X127159819Y-82333094D02*
X127636009Y-82380713D01*
X127636009Y-82380713D02*
X127588390Y-82333094D01*
X127588390Y-82333094D02*
X127540771Y-82237856D01*
X127540771Y-82237856D02*
X127540771Y-81999761D01*
X127540771Y-81999761D02*
X127588390Y-81904523D01*
X127588390Y-81904523D02*
X127636009Y-81856904D01*
X127636009Y-81856904D02*
X127731247Y-81809285D01*
X127731247Y-81809285D02*
X127969342Y-81809285D01*
X127969342Y-81809285D02*
X128064580Y-81856904D01*
X128064580Y-81856904D02*
X128112200Y-81904523D01*
X128112200Y-81904523D02*
X128159819Y-81999761D01*
X128159819Y-81999761D02*
X128159819Y-82237856D01*
X128159819Y-82237856D02*
X128112200Y-82333094D01*
X128112200Y-82333094D02*
X128064580Y-82380713D01*
X149058333Y-110849580D02*
X149010714Y-110897200D01*
X149010714Y-110897200D02*
X148867857Y-110944819D01*
X148867857Y-110944819D02*
X148772619Y-110944819D01*
X148772619Y-110944819D02*
X148629762Y-110897200D01*
X148629762Y-110897200D02*
X148534524Y-110801961D01*
X148534524Y-110801961D02*
X148486905Y-110706723D01*
X148486905Y-110706723D02*
X148439286Y-110516247D01*
X148439286Y-110516247D02*
X148439286Y-110373390D01*
X148439286Y-110373390D02*
X148486905Y-110182914D01*
X148486905Y-110182914D02*
X148534524Y-110087676D01*
X148534524Y-110087676D02*
X148629762Y-109992438D01*
X148629762Y-109992438D02*
X148772619Y-109944819D01*
X148772619Y-109944819D02*
X148867857Y-109944819D01*
X148867857Y-109944819D02*
X149010714Y-109992438D01*
X149010714Y-109992438D02*
X149058333Y-110040057D01*
X150010714Y-110944819D02*
X149439286Y-110944819D01*
X149725000Y-110944819D02*
X149725000Y-109944819D01*
X149725000Y-109944819D02*
X149629762Y-110087676D01*
X149629762Y-110087676D02*
X149534524Y-110182914D01*
X149534524Y-110182914D02*
X149439286Y-110230533D01*
X108213333Y-92349819D02*
X107880000Y-91873628D01*
X107641905Y-92349819D02*
X107641905Y-91349819D01*
X107641905Y-91349819D02*
X108022857Y-91349819D01*
X108022857Y-91349819D02*
X108118095Y-91397438D01*
X108118095Y-91397438D02*
X108165714Y-91445057D01*
X108165714Y-91445057D02*
X108213333Y-91540295D01*
X108213333Y-91540295D02*
X108213333Y-91683152D01*
X108213333Y-91683152D02*
X108165714Y-91778390D01*
X108165714Y-91778390D02*
X108118095Y-91826009D01*
X108118095Y-91826009D02*
X108022857Y-91873628D01*
X108022857Y-91873628D02*
X107641905Y-91873628D01*
X108689524Y-92349819D02*
X108880000Y-92349819D01*
X108880000Y-92349819D02*
X108975238Y-92302200D01*
X108975238Y-92302200D02*
X109022857Y-92254580D01*
X109022857Y-92254580D02*
X109118095Y-92111723D01*
X109118095Y-92111723D02*
X109165714Y-91921247D01*
X109165714Y-91921247D02*
X109165714Y-91540295D01*
X109165714Y-91540295D02*
X109118095Y-91445057D01*
X109118095Y-91445057D02*
X109070476Y-91397438D01*
X109070476Y-91397438D02*
X108975238Y-91349819D01*
X108975238Y-91349819D02*
X108784762Y-91349819D01*
X108784762Y-91349819D02*
X108689524Y-91397438D01*
X108689524Y-91397438D02*
X108641905Y-91445057D01*
X108641905Y-91445057D02*
X108594286Y-91540295D01*
X108594286Y-91540295D02*
X108594286Y-91778390D01*
X108594286Y-91778390D02*
X108641905Y-91873628D01*
X108641905Y-91873628D02*
X108689524Y-91921247D01*
X108689524Y-91921247D02*
X108784762Y-91968866D01*
X108784762Y-91968866D02*
X108975238Y-91968866D01*
X108975238Y-91968866D02*
X109070476Y-91921247D01*
X109070476Y-91921247D02*
X109118095Y-91873628D01*
X109118095Y-91873628D02*
X109165714Y-91778390D01*
X155224819Y-78906666D02*
X154748628Y-79239999D01*
X155224819Y-79478094D02*
X154224819Y-79478094D01*
X154224819Y-79478094D02*
X154224819Y-79097142D01*
X154224819Y-79097142D02*
X154272438Y-79001904D01*
X154272438Y-79001904D02*
X154320057Y-78954285D01*
X154320057Y-78954285D02*
X154415295Y-78906666D01*
X154415295Y-78906666D02*
X154558152Y-78906666D01*
X154558152Y-78906666D02*
X154653390Y-78954285D01*
X154653390Y-78954285D02*
X154701009Y-79001904D01*
X154701009Y-79001904D02*
X154748628Y-79097142D01*
X154748628Y-79097142D02*
X154748628Y-79478094D01*
X155224819Y-77954285D02*
X155224819Y-78525713D01*
X155224819Y-78239999D02*
X154224819Y-78239999D01*
X154224819Y-78239999D02*
X154367676Y-78335237D01*
X154367676Y-78335237D02*
X154462914Y-78430475D01*
X154462914Y-78430475D02*
X154510533Y-78525713D01*
X108538333Y-51549819D02*
X108205000Y-51073628D01*
X107966905Y-51549819D02*
X107966905Y-50549819D01*
X107966905Y-50549819D02*
X108347857Y-50549819D01*
X108347857Y-50549819D02*
X108443095Y-50597438D01*
X108443095Y-50597438D02*
X108490714Y-50645057D01*
X108490714Y-50645057D02*
X108538333Y-50740295D01*
X108538333Y-50740295D02*
X108538333Y-50883152D01*
X108538333Y-50883152D02*
X108490714Y-50978390D01*
X108490714Y-50978390D02*
X108443095Y-51026009D01*
X108443095Y-51026009D02*
X108347857Y-51073628D01*
X108347857Y-51073628D02*
X107966905Y-51073628D01*
X109443095Y-50549819D02*
X108966905Y-50549819D01*
X108966905Y-50549819D02*
X108919286Y-51026009D01*
X108919286Y-51026009D02*
X108966905Y-50978390D01*
X108966905Y-50978390D02*
X109062143Y-50930771D01*
X109062143Y-50930771D02*
X109300238Y-50930771D01*
X109300238Y-50930771D02*
X109395476Y-50978390D01*
X109395476Y-50978390D02*
X109443095Y-51026009D01*
X109443095Y-51026009D02*
X109490714Y-51121247D01*
X109490714Y-51121247D02*
X109490714Y-51359342D01*
X109490714Y-51359342D02*
X109443095Y-51454580D01*
X109443095Y-51454580D02*
X109395476Y-51502200D01*
X109395476Y-51502200D02*
X109300238Y-51549819D01*
X109300238Y-51549819D02*
X109062143Y-51549819D01*
X109062143Y-51549819D02*
X108966905Y-51502200D01*
X108966905Y-51502200D02*
X108919286Y-51454580D01*
X110958333Y-47954580D02*
X110910714Y-48002200D01*
X110910714Y-48002200D02*
X110767857Y-48049819D01*
X110767857Y-48049819D02*
X110672619Y-48049819D01*
X110672619Y-48049819D02*
X110529762Y-48002200D01*
X110529762Y-48002200D02*
X110434524Y-47906961D01*
X110434524Y-47906961D02*
X110386905Y-47811723D01*
X110386905Y-47811723D02*
X110339286Y-47621247D01*
X110339286Y-47621247D02*
X110339286Y-47478390D01*
X110339286Y-47478390D02*
X110386905Y-47287914D01*
X110386905Y-47287914D02*
X110434524Y-47192676D01*
X110434524Y-47192676D02*
X110529762Y-47097438D01*
X110529762Y-47097438D02*
X110672619Y-47049819D01*
X110672619Y-47049819D02*
X110767857Y-47049819D01*
X110767857Y-47049819D02*
X110910714Y-47097438D01*
X110910714Y-47097438D02*
X110958333Y-47145057D01*
X111815476Y-47383152D02*
X111815476Y-48049819D01*
X111577381Y-47002200D02*
X111339286Y-47716485D01*
X111339286Y-47716485D02*
X111958333Y-47716485D01*
D12*
%TO.C,R6*%
X122335000Y-60325000D02*
X122335000Y-66865000D01*
X122335000Y-66865000D02*
X122665000Y-66865000D01*
X122665000Y-60325000D02*
X122335000Y-60325000D01*
X124745000Y-60325000D02*
X125075000Y-60325000D01*
X125075000Y-60325000D02*
X125075000Y-66865000D01*
X125075000Y-66865000D02*
X124745000Y-66865000D01*
D13*
%TO.C,SW4*%
X171795000Y-115160000D02*
X179495000Y-115160000D01*
X171795000Y-125360000D02*
X171795000Y-115160000D01*
X179495000Y-115160000D02*
X179495000Y-125360000D01*
X179495000Y-125360000D02*
X171795000Y-125360000D01*
D14*
X177395000Y-116860000D02*
G75*
G02*
X177195000Y-116860000I-100000J0D01*
G01*
X177195000Y-116860000D02*
G75*
G02*
X177395000Y-116860000I100000J0D01*
G01*
D12*
%TO.C,R12*%
X160555000Y-111030000D02*
X160555000Y-117570000D01*
X160555000Y-117570000D02*
X160885000Y-117570000D01*
X160885000Y-111030000D02*
X160555000Y-111030000D01*
X162965000Y-111030000D02*
X163295000Y-111030000D01*
X163295000Y-111030000D02*
X163295000Y-117570000D01*
X163295000Y-117570000D02*
X162965000Y-117570000D01*
D15*
%TO.C,SW2*%
X111320000Y-99895000D02*
X111320000Y-124895000D01*
X111320000Y-99895000D02*
X119570000Y-99895000D01*
X111320000Y-124895000D02*
X119570000Y-124895000D01*
X119570000Y-99895000D02*
X119570000Y-124895000D01*
D13*
X115670000Y-99145000D02*
G75*
G02*
X115470000Y-99145000I-100000J0D01*
G01*
X115470000Y-99145000D02*
G75*
G02*
X115670000Y-99145000I100000J0D01*
G01*
D12*
%TO.C,C2*%
X146800000Y-103505000D02*
G75*
G02*
X140260000Y-103505000I-3270000J0D01*
G01*
X140260000Y-103505000D02*
G75*
G02*
X146800000Y-103505000I3270000J0D01*
G01*
%TO.C,C8*%
X159679998Y-58695000D02*
X161102502Y-58695000D01*
X159679998Y-60515000D02*
X161102502Y-60515000D01*
%TO.C,C12*%
X160115000Y-113685000D02*
G75*
G02*
X153575000Y-113685000I-3270000J0D01*
G01*
X153575000Y-113685000D02*
G75*
G02*
X160115000Y-113685000I3270000J0D01*
G01*
%TO.C,U1*%
X129790000Y-46590000D02*
X129790000Y-97590000D01*
X129790000Y-49190000D02*
X132190000Y-49190000D01*
X132190000Y-46590000D02*
X132190000Y-97590000D01*
X147590000Y-46590000D02*
X147590000Y-97590000D01*
X149990000Y-46590000D02*
X149990000Y-97590000D01*
X129390000Y-46590000D02*
X150390000Y-46590000D01*
X150390000Y-97590000D01*
X129390000Y-97590000D01*
X129390000Y-46590000D01*
%TO.C,C10*%
X159602502Y-51695000D02*
X158179998Y-51695000D01*
X159602502Y-53515000D02*
X158179998Y-53515000D01*
%TO.C,C7*%
X121700000Y-119775000D02*
X121700000Y-126015000D01*
X122235000Y-119775000D02*
X121700000Y-119775000D01*
X122235000Y-126015000D02*
X121700000Y-126015000D01*
X124440000Y-119775000D02*
X123905000Y-119775000D01*
X124440000Y-119775000D02*
X124440000Y-126015000D01*
X124440000Y-126015000D02*
X123905000Y-126015000D01*
%TO.C,R8*%
X111800000Y-96025000D02*
X111800000Y-96355000D01*
X111800000Y-98765000D02*
X111800000Y-98435000D01*
X118340000Y-96025000D02*
X111800000Y-96025000D01*
X118340000Y-96355000D02*
X118340000Y-96025000D01*
X118340000Y-98435000D02*
X118340000Y-98765000D01*
X118340000Y-98765000D02*
X111800000Y-98765000D01*
%TO.C,R7*%
X122335000Y-70515000D02*
X122335000Y-77055000D01*
X122335000Y-77055000D02*
X122665000Y-77055000D01*
X122665000Y-70515000D02*
X122335000Y-70515000D01*
X124745000Y-70515000D02*
X125075000Y-70515000D01*
X125075000Y-70515000D02*
X125075000Y-77055000D01*
X125075000Y-77055000D02*
X124745000Y-77055000D01*
%TO.C,C3*%
X136875000Y-113030000D02*
G75*
G02*
X131635000Y-113030000I-2620000J0D01*
G01*
X131635000Y-113030000D02*
G75*
G02*
X136875000Y-113030000I2620000J0D01*
G01*
%TO.C,U2*%
D10*
X168925000Y-89560000D02*
X154925000Y-89560000D01*
X154925000Y-108560000D01*
X168925000Y-108560000D01*
X168925000Y-89560000D01*
D12*
%TO.C,R11*%
X121700000Y-100315000D02*
X121700000Y-106855000D01*
X121700000Y-106855000D02*
X122030000Y-106855000D01*
X122030000Y-100315000D02*
X121700000Y-100315000D01*
X124110000Y-100315000D02*
X124440000Y-100315000D01*
X124440000Y-100315000D02*
X124440000Y-106855000D01*
X124440000Y-106855000D02*
X124110000Y-106855000D01*
%TO.C,C11*%
X159602502Y-49195000D02*
X158179998Y-49195000D01*
X159602502Y-51015000D02*
X158179998Y-51015000D01*
%TO.C,L1*%
X163831250Y-54795000D02*
X166351250Y-54795000D01*
X163831250Y-57415000D02*
X166351250Y-57415000D01*
%TO.C,C6*%
X113450000Y-88560000D02*
X113450000Y-88025000D01*
X113450000Y-90765000D02*
X113450000Y-90230000D01*
X119690000Y-88025000D02*
X113450000Y-88025000D01*
X119690000Y-88560000D02*
X119690000Y-88025000D01*
X119690000Y-90765000D02*
X113450000Y-90765000D01*
X119690000Y-90765000D02*
X119690000Y-90230000D01*
D16*
%TO.C,U4*%
X159823350Y-57880600D02*
X161779150Y-57880600D01*
X161779150Y-54629400D02*
X159823350Y-54629400D01*
D12*
%TO.C,R3*%
X141510000Y-113565000D02*
X141510000Y-113895000D01*
X141510000Y-116305000D02*
X141510000Y-115975000D01*
X148050000Y-113565000D02*
X141510000Y-113565000D01*
X148050000Y-113895000D02*
X148050000Y-113565000D01*
X148050000Y-115975000D02*
X148050000Y-116305000D01*
X148050000Y-116305000D02*
X141510000Y-116305000D01*
%TO.C,R13*%
X151030000Y-100870000D02*
X151360000Y-100870000D01*
X151030000Y-107410000D02*
X151030000Y-100870000D01*
X151360000Y-107410000D02*
X151030000Y-107410000D01*
X153440000Y-107410000D02*
X153770000Y-107410000D01*
X153770000Y-100870000D02*
X153440000Y-100870000D01*
X153770000Y-107410000D02*
X153770000Y-100870000D01*
D13*
%TO.C,LS1*%
X171795000Y-92690000D02*
X179495000Y-92690000D01*
X171795000Y-102890000D02*
X171795000Y-92690000D01*
X179495000Y-92690000D02*
X179495000Y-102890000D01*
X179495000Y-102890000D02*
X171795000Y-102890000D01*
D14*
X177395000Y-94390000D02*
G75*
G02*
X177195000Y-94390000I-100000J0D01*
G01*
X177195000Y-94390000D02*
G75*
G02*
X177395000Y-94390000I100000J0D01*
G01*
D12*
%TO.C,BT1*%
X155891250Y-59567500D02*
X155891250Y-60187500D01*
X156811250Y-58647500D02*
G75*
G02*
X154971250Y-58647500I-920000J0D01*
G01*
X154971250Y-58647500D02*
G75*
G02*
X156811250Y-58647500I920000J0D01*
G01*
D17*
X156391250Y-54647500D02*
X157391250Y-54647500D01*
X157391250Y-55647500D01*
X156391250Y-55647500D01*
X156391250Y-56647500D01*
X155391250Y-56647500D01*
X155391250Y-55647500D01*
X154391250Y-55647500D01*
X154391250Y-54647500D01*
X155391250Y-54647500D01*
X155391250Y-53647500D01*
X156391250Y-53647500D01*
X156391250Y-54647500D01*
G36*
X156391250Y-54647500D02*
G01*
X157391250Y-54647500D01*
X157391250Y-55647500D01*
X156391250Y-55647500D01*
X156391250Y-56647500D01*
X155391250Y-56647500D01*
X155391250Y-55647500D01*
X154391250Y-55647500D01*
X154391250Y-54647500D01*
X155391250Y-54647500D01*
X155391250Y-53647500D01*
X156391250Y-53647500D01*
X156391250Y-54647500D01*
G37*
D12*
%TO.C,R4*%
X112435000Y-54225000D02*
X112435000Y-54555000D01*
X112435000Y-56965000D02*
X112435000Y-56635000D01*
X118975000Y-54225000D02*
X112435000Y-54225000D01*
X118975000Y-54555000D02*
X118975000Y-54225000D01*
X118975000Y-56635000D02*
X118975000Y-56965000D01*
X118975000Y-56965000D02*
X112435000Y-56965000D01*
%TO.C,R2*%
X151030000Y-84360000D02*
X151360000Y-84360000D01*
X151030000Y-90900000D02*
X151030000Y-84360000D01*
X151360000Y-90900000D02*
X151030000Y-90900000D01*
X153440000Y-90900000D02*
X153770000Y-90900000D01*
X153770000Y-84360000D02*
X153440000Y-84360000D01*
X153770000Y-90900000D02*
X153770000Y-84360000D01*
%TO.C,R10*%
X121700000Y-110625000D02*
X121700000Y-117165000D01*
X121700000Y-117165000D02*
X122030000Y-117165000D01*
X122030000Y-110625000D02*
X121700000Y-110625000D01*
X124110000Y-110625000D02*
X124440000Y-110625000D01*
X124440000Y-110625000D02*
X124440000Y-117165000D01*
X124440000Y-117165000D02*
X124110000Y-117165000D01*
D15*
%TO.C,U3*%
X131285000Y-98710000D02*
X137635000Y-98710000D01*
X131285000Y-108300000D02*
X137635000Y-108300000D01*
D13*
X129525000Y-99695000D02*
G75*
G02*
X129325000Y-99695000I-100000J0D01*
G01*
X129325000Y-99695000D02*
G75*
G02*
X129525000Y-99695000I100000J0D01*
G01*
%TO.C,SW3*%
X171795000Y-104160000D02*
X179495000Y-104160000D01*
X171795000Y-114360000D02*
X171795000Y-104160000D01*
X179495000Y-104160000D02*
X179495000Y-114360000D01*
X179495000Y-114360000D02*
X171795000Y-114360000D01*
D14*
X177395000Y-105860000D02*
G75*
G02*
X177195000Y-105860000I-100000J0D01*
G01*
X177195000Y-105860000D02*
G75*
G02*
X177395000Y-105860000I100000J0D01*
G01*
D15*
%TO.C,DISP1*%
X140340000Y-119590000D02*
X167000000Y-119590000D01*
X140340000Y-126890000D02*
X140340000Y-119590000D01*
X140340000Y-126890000D02*
X167000000Y-126890000D01*
X167000000Y-119590000D02*
X167000000Y-126890000D01*
D13*
X167750000Y-123190000D02*
G75*
G02*
X167550000Y-123190000I-100000J0D01*
G01*
X167550000Y-123190000D02*
G75*
G02*
X167750000Y-123190000I100000J0D01*
G01*
D12*
%TO.C,C9*%
X163129998Y-52370000D02*
X163652502Y-52370000D01*
X163129998Y-53840000D02*
X163652502Y-53840000D01*
D15*
%TO.C,SW1*%
X111955000Y-59095000D02*
X111955000Y-84095000D01*
X111955000Y-59095000D02*
X120205000Y-59095000D01*
X111955000Y-84095000D02*
X120205000Y-84095000D01*
X120205000Y-59095000D02*
X120205000Y-84095000D01*
D13*
X116305000Y-58345000D02*
G75*
G02*
X116105000Y-58345000I-100000J0D01*
G01*
X116105000Y-58345000D02*
G75*
G02*
X116305000Y-58345000I100000J0D01*
G01*
D12*
%TO.C,SW5*%
X130485000Y-122440000D02*
X130485000Y-123940000D01*
X131735000Y-126440000D02*
X136235000Y-126440000D01*
X136235000Y-119940000D02*
X131735000Y-119940000D01*
X137485000Y-123940000D02*
X137485000Y-122440000D01*
%TO.C,C5*%
X122335000Y-79475000D02*
X122335000Y-85715000D01*
X122870000Y-79475000D02*
X122335000Y-79475000D01*
X122870000Y-85715000D02*
X122335000Y-85715000D01*
X125075000Y-79475000D02*
X124540000Y-79475000D01*
X125075000Y-79475000D02*
X125075000Y-85715000D01*
X125075000Y-85715000D02*
X124540000Y-85715000D01*
%TO.C,C1*%
X141065000Y-109755000D02*
X141065000Y-110290000D01*
X141065000Y-109755000D02*
X147305000Y-109755000D01*
X141065000Y-111960000D02*
X141065000Y-112495000D01*
X141065000Y-112495000D02*
X147305000Y-112495000D01*
X147305000Y-109755000D02*
X147305000Y-110290000D01*
X147305000Y-111960000D02*
X147305000Y-112495000D01*
%TO.C,R9*%
X111800000Y-91525000D02*
X118340000Y-91525000D01*
X111800000Y-91855000D02*
X111800000Y-91525000D01*
X111800000Y-93935000D02*
X111800000Y-94265000D01*
X111800000Y-94265000D02*
X118340000Y-94265000D01*
X118340000Y-91525000D02*
X118340000Y-91855000D01*
X118340000Y-94265000D02*
X118340000Y-93935000D01*
%TO.C,R1*%
X151030000Y-73565000D02*
X151030000Y-80105000D01*
X151030000Y-80105000D02*
X151360000Y-80105000D01*
X151360000Y-73565000D02*
X151030000Y-73565000D01*
X153440000Y-73565000D02*
X153770000Y-73565000D01*
X153770000Y-73565000D02*
X153770000Y-80105000D01*
X153770000Y-80105000D02*
X153440000Y-80105000D01*
%TO.C,R5*%
X112245000Y-50725000D02*
X118785000Y-50725000D01*
X112245000Y-51055000D02*
X112245000Y-50725000D01*
X112245000Y-53135000D02*
X112245000Y-53465000D01*
X112245000Y-53465000D02*
X118785000Y-53465000D01*
X118785000Y-50725000D02*
X118785000Y-51055000D01*
X118785000Y-53465000D02*
X118785000Y-53135000D01*
%TO.C,C4*%
X113585000Y-47760000D02*
X113585000Y-47225000D01*
X113585000Y-49965000D02*
X113585000Y-49430000D01*
X119825000Y-47225000D02*
X113585000Y-47225000D01*
X119825000Y-47760000D02*
X119825000Y-47225000D01*
X119825000Y-49965000D02*
X113585000Y-49965000D01*
X119825000Y-49965000D02*
X119825000Y-49430000D01*
%TD*%
M02*
