M48
; DRILL file {KiCad 9.0.2} date 2025-07-08T16:12:31-0700
; FORMAT={-:-/ absolute / metric / decimal}
; #@! TF.CreationDate,2025-07-08T16:12:31-07:00
; #@! TF.GenerationSoftware,Kicad,Pcbnew,9.0.2
; #@! TF.FileFunction,Plated,1,2,PTH
FMAT,2
METRIC
; #@! TA.AperFunction,Plated,PTH,ComponentDrill
T1C0.700
; #@! TA.AperFunction,Plated,PTH,ComponentDrill
T2C0.780
; #@! TA.AperFunction,Plated,PTH,ComponentDrill
T3C0.800
; #@! TA.AperFunction,Plated,PTH,ComponentDrill
T4C1.000
; #@! TA.AperFunction,Plated,PTH,ComponentDrill
T5C1.100
; #@! TA.AperFunction,Plated,PTH,ComponentDrill
T6C1.300
; #@! TA.AperFunction,Plated,PTH,ViaDrill
T7C2.500
%
G90
G05
T1
X155.891Y-58.648
X155.891Y-61.188
T2
X130.49Y-99.695
X130.49Y-102.235
X130.49Y-104.775
X130.49Y-107.315
X138.43Y-99.695
X138.43Y-102.235
X138.43Y-104.775
X138.43Y-107.315
T3
X111.26Y-92.895
X111.26Y-97.395
X111.705Y-52.095
X111.895Y-55.595
X114.07Y-89.395
X114.205Y-48.595
X118.88Y-92.895
X118.88Y-97.395
X119.07Y-89.395
X119.205Y-48.595
X119.325Y-52.095
X119.515Y-55.595
X123.07Y-99.775
X123.07Y-107.395
X123.07Y-110.085
X123.07Y-117.705
X123.07Y-120.395
X123.07Y-125.395
X123.705Y-59.785
X123.705Y-67.405
X123.705Y-69.975
X123.705Y-77.595
X123.705Y-80.095
X123.705Y-85.095
X133.255Y-113.03
X135.255Y-113.03
X140.97Y-114.935
X141.685Y-111.125
X142.28Y-103.505
X144.78Y-103.505
X146.685Y-111.125
X148.59Y-114.935
X152.4Y-73.025
X152.4Y-80.645
X152.4Y-83.82
X152.4Y-91.44
X152.4Y-100.33
X152.4Y-107.95
X156.845Y-112.435
X156.845Y-114.935
X161.925Y-110.49
X161.925Y-118.11
T4
X131.0Y-47.96
X131.0Y-50.5
X131.0Y-53.04
X131.0Y-55.58
X131.0Y-58.12
X131.0Y-60.66
X131.0Y-63.2
X131.0Y-65.74
X131.0Y-68.28
X131.0Y-70.82
X131.0Y-73.36
X131.0Y-75.9
X131.0Y-78.44
X131.0Y-80.98
X131.0Y-83.52
X131.0Y-86.06
X131.0Y-88.6
X131.0Y-91.14
X131.0Y-93.68
X131.0Y-96.22
X148.78Y-47.96
X148.78Y-50.5
X148.78Y-53.04
X148.78Y-55.58
X148.78Y-58.12
X148.78Y-60.66
X148.78Y-63.2
X148.78Y-65.74
X148.78Y-68.28
X148.78Y-70.82
X148.78Y-73.36
X148.78Y-75.9
X148.78Y-78.44
X148.78Y-80.98
X148.78Y-83.52
X148.78Y-86.06
X148.78Y-88.6
X148.78Y-91.14
X148.78Y-93.68
X148.78Y-96.22
X156.845Y-91.44
X156.845Y-106.68
X159.385Y-91.44
X159.385Y-106.68
X161.925Y-91.44
X161.925Y-106.68
X164.465Y-91.44
X164.465Y-106.68
X167.005Y-91.44
X167.005Y-106.68
X167.005Y-110.49
T5
X130.735Y-120.94
X130.735Y-125.44
X137.235Y-120.94
X137.235Y-125.44
X142.24Y-123.19
X146.05Y-123.19
X149.86Y-123.19
X153.67Y-123.19
X157.48Y-123.19
X161.29Y-123.19
X165.1Y-123.19
T6
X115.57Y-102.395
X115.57Y-107.395
X115.57Y-112.395
X115.57Y-117.395
X115.57Y-122.395
X116.205Y-61.595
X116.205Y-66.595
X116.205Y-71.595
X116.205Y-76.595
X116.205Y-81.595
X175.895Y-95.29
X175.895Y-100.29
X175.895Y-106.76
X175.895Y-111.76
X175.895Y-117.76
X175.895Y-122.76
T7
X108.585Y-46.99
X108.585Y-127.635
X166.37Y-46.99
X179.705Y-127.635
M30
