%TF.GenerationSoftware,KiCad,Pcbnew,9.0.2*%
%TF.CreationDate,2025-07-08T16:12:12-07:00*%
%TF.ProjectId,PCB,5043422e-6b69-4636-9164-5f7063625858,rev?*%
%TF.SameCoordinates,Original*%
%TF.FileFunction,Soldermask,Bot*%
%TF.FilePolarity,Negative*%
%FSLAX46Y46*%
G04 Gerber Fmt 4.6, Leading zero omitted, Abs format (unit mm)*
G04 Created by KiCad (PCBNEW 9.0.2) date 2025-07-08 16:12:12*
%MOMM*%
%LPD*%
G01*
G04 APERTURE LIST*
G04 Aperture macros list*
%AMRoundRect*
0 Rectangle with rounded corners*
0 $1 Rounding radius*
0 $2 $3 $4 $5 $6 $7 $8 $9 X,Y pos of 4 corners*
0 Add a 4 corners polygon primitive as box body*
4,1,4,$2,$3,$4,$5,$6,$7,$8,$9,$2,$3,0*
0 Add four circle primitives for the rounded corners*
1,1,$1+$1,$2,$3*
1,1,$1+$1,$4,$5*
1,1,$1+$1,$6,$7*
1,1,$1+$1,$8,$9*
0 Add four rect primitives between the rounded corners*
20,1,$1+$1,$2,$3,$4,$5,0*
20,1,$1+$1,$4,$5,$6,$7,0*
20,1,$1+$1,$6,$7,$8,$9,0*
20,1,$1+$1,$8,$9,$2,$3,0*%
G04 Aperture macros list end*
%ADD10C,1.600000*%
%ADD11C,2.154000*%
%ADD12RoundRect,0.102000X-0.975000X0.975000X-0.975000X-0.975000X0.975000X-0.975000X0.975000X0.975000X0*%
%ADD13R,1.700000X1.700000*%
%ADD14C,1.700000*%
%ADD15C,1.400000*%
%ADD16RoundRect,0.102000X-0.565000X-0.565000X0.565000X-0.565000X0.565000X0.565000X-0.565000X0.565000X0*%
%ADD17C,1.334000*%
%ADD18RoundRect,0.102000X0.825000X0.825000X-0.825000X0.825000X-0.825000X-0.825000X0.825000X-0.825000X0*%
%ADD19C,1.854000*%
%ADD20C,2.000000*%
G04 APERTURE END LIST*
D10*
%TO.C,R6*%
X123705000Y-59785000D03*
X123705000Y-67405000D03*
%TD*%
D11*
%TO.C,SW4*%
X175895000Y-117760000D03*
X175895000Y-122760000D03*
%TD*%
D10*
%TO.C,R12*%
X161925000Y-110490000D03*
X161925000Y-118110000D03*
%TD*%
D11*
%TO.C,SW2*%
X115570000Y-112395000D03*
X115570000Y-117395000D03*
X115570000Y-122395000D03*
D12*
X115570000Y-102395000D03*
D11*
X115570000Y-107395000D03*
%TD*%
D10*
%TO.C,C2*%
X142280000Y-103505000D03*
X144780000Y-103505000D03*
%TD*%
%TO.C,C12*%
X156845000Y-112435000D03*
X156845000Y-114935000D03*
%TD*%
D13*
%TO.C,U1*%
X131000000Y-47960000D03*
D14*
X131000000Y-50500000D03*
X131000000Y-53040000D03*
X131000000Y-55580000D03*
X131000000Y-58120000D03*
X131000000Y-60660000D03*
X131000000Y-63200000D03*
X131000000Y-65740000D03*
X131000000Y-68280000D03*
X131000000Y-70820000D03*
X131000000Y-73360000D03*
X131000000Y-75900000D03*
X131000000Y-78440000D03*
X131000000Y-80980000D03*
X131000000Y-83520000D03*
X131000000Y-86060000D03*
X131000000Y-88600000D03*
X131000000Y-91140000D03*
X131000000Y-93680000D03*
X131000000Y-96220000D03*
X148780000Y-96220000D03*
X148780000Y-93680000D03*
X148780000Y-91140000D03*
X148780000Y-88600000D03*
X148780000Y-86060000D03*
X148780000Y-83520000D03*
X148780000Y-80980000D03*
X148780000Y-78440000D03*
X148780000Y-75900000D03*
X148780000Y-73360000D03*
X148780000Y-70820000D03*
X148780000Y-68280000D03*
X148780000Y-65740000D03*
X148780000Y-63200000D03*
X148780000Y-60660000D03*
X148780000Y-58120000D03*
X148780000Y-55580000D03*
X148780000Y-53040000D03*
X148780000Y-50500000D03*
X148780000Y-47960000D03*
%TD*%
D10*
%TO.C,C7*%
X123070000Y-120395000D03*
X123070000Y-125395000D03*
%TD*%
%TO.C,R8*%
X118880000Y-97395000D03*
X111260000Y-97395000D03*
%TD*%
%TO.C,R7*%
X123705000Y-69975000D03*
X123705000Y-77595000D03*
%TD*%
%TO.C,C3*%
X133255000Y-113030000D03*
X135255000Y-113030000D03*
%TD*%
D13*
%TO.C,U2*%
X167005000Y-91440000D03*
D14*
X164465000Y-91440000D03*
X161925000Y-91440000D03*
X159385000Y-91440000D03*
X156845000Y-91440000D03*
X156845000Y-106680000D03*
X159385000Y-106680000D03*
X161925000Y-106680000D03*
X164465000Y-106680000D03*
X167005000Y-106680000D03*
%TD*%
D10*
%TO.C,R11*%
X123070000Y-99775000D03*
X123070000Y-107395000D03*
%TD*%
%TO.C,C6*%
X119070000Y-89395000D03*
X114070000Y-89395000D03*
%TD*%
%TO.C,R3*%
X148590000Y-114935000D03*
X140970000Y-114935000D03*
%TD*%
%TO.C,R13*%
X152400000Y-107950000D03*
X152400000Y-100330000D03*
%TD*%
D11*
%TO.C,LS1*%
X175895000Y-95290000D03*
X175895000Y-100290000D03*
%TD*%
D15*
%TO.C,BT1*%
X155891250Y-58647500D03*
X155891250Y-61187500D03*
%TD*%
D10*
%TO.C,R4*%
X119515000Y-55595000D03*
X111895000Y-55595000D03*
%TD*%
%TO.C,R2*%
X152400000Y-91440000D03*
X152400000Y-83820000D03*
%TD*%
%TO.C,R10*%
X123070000Y-110085000D03*
X123070000Y-117705000D03*
%TD*%
D16*
%TO.C,U3*%
X130490000Y-99695000D03*
D17*
X130490000Y-102235000D03*
X130490000Y-104775000D03*
X130490000Y-107315000D03*
X138430000Y-107315000D03*
X138430000Y-104775000D03*
X138430000Y-102235000D03*
X138430000Y-99695000D03*
%TD*%
D11*
%TO.C,SW3*%
X175895000Y-106760000D03*
X175895000Y-111760000D03*
%TD*%
D18*
%TO.C,DISP1*%
X165100000Y-123190000D03*
D19*
X161290000Y-123190000D03*
X157480000Y-123190000D03*
X153670000Y-123190000D03*
X149860000Y-123190000D03*
X146050000Y-123190000D03*
X142240000Y-123190000D03*
%TD*%
D11*
%TO.C,SW1*%
X116205000Y-71595000D03*
X116205000Y-76595000D03*
X116205000Y-81595000D03*
D12*
X116205000Y-61595000D03*
D11*
X116205000Y-66595000D03*
%TD*%
D20*
%TO.C,SW5*%
X137235000Y-125440000D03*
X130735000Y-125440000D03*
X137235000Y-120940000D03*
X130735000Y-120940000D03*
%TD*%
D10*
%TO.C,C5*%
X123705000Y-80095000D03*
X123705000Y-85095000D03*
%TD*%
%TO.C,C1*%
X141685000Y-111125000D03*
X146685000Y-111125000D03*
%TD*%
D14*
%TO.C,*%
X167005000Y-110490000D03*
%TD*%
D10*
%TO.C,R9*%
X111260000Y-92895000D03*
X118880000Y-92895000D03*
%TD*%
%TO.C,R1*%
X152400000Y-73025000D03*
X152400000Y-80645000D03*
%TD*%
%TO.C,R5*%
X111705000Y-52095000D03*
X119325000Y-52095000D03*
%TD*%
%TO.C,C4*%
X119205000Y-48595000D03*
X114205000Y-48595000D03*
%TD*%
M02*
